solid OpenSCAD_Model
  facet normal -0 0 -1
    outer loop
      vertex -7.5 0 0
      vertex -7.24444 1.94114 0
      vertex -7.24444 -1.94114 0
    endloop
  endfacet
  facet normal 0 -0 -1
    outer loop
      vertex -7.24444 -1.94114 0
      vertex -7.24444 1.94114 0
      vertex -6.49519 3.75 0
    endloop
  endfacet
  facet normal 0 0 -1
    outer loop
      vertex -7.24444 -1.94114 0
      vertex -6.49519 3.75 0
      vertex -5.3033 5.3033 0
    endloop
  endfacet
  facet normal 0 -0 -1
    outer loop
      vertex -4.76484 4.42112 0
      vertex -5.3033 5.3033 0
      vertex -3.75 6.49519 0
    endloop
  endfacet
  facet normal 0 -0 -1
    outer loop
      vertex -3.25 5.62916 0
      vertex -3.75 6.49519 0
      vertex -1.94114 7.24444 0
    endloop
  endfacet
  facet normal 0 -0 -1
    outer loop
      vertex -1.44639 6.33703 0
      vertex -1.94114 7.24444 0
      vertex 0 7.5 0
    endloop
  endfacet
  facet normal 0 -0 -1
    outer loop
      vertex 0.485746 6.48182 0
      vertex 0 7.5 0
      vertex 1.94114 7.24444 0
    endloop
  endfacet
  facet normal 0 -0 -1
    outer loop
      vertex 2.37472 6.05068 0
      vertex 1.94114 7.24444 0
      vertex 3.75 6.49519 0
    endloop
  endfacet
  facet normal 0 -0 -1
    outer loop
      vertex 4.05268 5.0819 0
      vertex 3.75 6.49519 0
      vertex 5.3033 5.3033 0
    endloop
  endfacet
  facet normal 0 -0 -1
    outer loop
      vertex 5.37055 3.66158 0
      vertex 5.3033 5.3033 0
      vertex 6.49519 3.75 0
    endloop
  endfacet
  facet normal 0 0 -1
    outer loop
      vertex 6.21122 1.91591 0
      vertex 6.49519 3.75 0
      vertex 7.24444 1.94114 0
    endloop
  endfacet
  facet normal -0 0 -1
    outer loop
      vertex 6.5 0 0
      vertex 7.24444 1.94114 0
      vertex 7.5 0 0
    endloop
  endfacet
  facet normal -0 0 -1
    outer loop
      vertex 6.21122 -1.91591 0
      vertex 7.5 0 0
      vertex 7.24444 -1.94114 0
    endloop
  endfacet
  facet normal 0 0 -1
    outer loop
      vertex 5.37055 -3.66158 0
      vertex 6.49519 -3.75 0
      vertex 5.3033 -5.3033 0
    endloop
  endfacet
  facet normal 0 0 -1
    outer loop
      vertex 4.05268 -5.0819 0
      vertex 5.3033 -5.3033 0
      vertex 3.75 -6.49519 0
    endloop
  endfacet
  facet normal 0 0 -1
    outer loop
      vertex 2.37472 -6.05068 0
      vertex 3.75 -6.49519 0
      vertex 1.94114 -7.24444 0
    endloop
  endfacet
  facet normal 0 0 -1
    outer loop
      vertex -1.44639 -6.33703 0
      vertex 1.94114 -7.24444 0
      vertex 0 -7.5 0
    endloop
  endfacet
  facet normal 0 0 -1
    outer loop
      vertex -3.25 -5.62916 0
      vertex 0 -7.5 0
      vertex -1.94114 -7.24444 0
    endloop
  endfacet
  facet normal 0 0 -1
    outer loop
      vertex -4.76484 -4.42112 0
      vertex -1.94114 -7.24444 0
      vertex -3.75 -6.49519 0
    endloop
  endfacet
  facet normal 0 0 -1
    outer loop
      vertex -7.24444 -1.94114 0
      vertex -3.75 -6.49519 0
      vertex -5.3033 -5.3033 0
    endloop
  endfacet
  facet normal 0 0 -1
    outer loop
      vertex -7.24444 -1.94114 0
      vertex -5.3033 -5.3033 0
      vertex -6.49519 -3.75 0
    endloop
  endfacet
  facet normal 0 0 -1
    outer loop
      vertex -7.24444 -1.94114 0
      vertex -5.3033 5.3033 0
      vertex -6.4274 0.968775 0
    endloop
  endfacet
  facet normal 0 0 -1
    outer loop
      vertex -5.8563 -2.82024 0
      vertex -7.24444 -1.94114 0
      vertex -6.4274 -0.968775 0
    endloop
  endfacet
  facet normal 0 0 -1
    outer loop
      vertex -4.76484 -4.42112 0
      vertex -7.24444 -1.94114 0
      vertex -5.8563 -2.82024 0
    endloop
  endfacet
  facet normal 0 0 -1
    outer loop
      vertex -3.25 -5.62916 0
      vertex -1.94114 -7.24444 0
      vertex -4.76484 -4.42112 0
    endloop
  endfacet
  facet normal 0 0 -1
    outer loop
      vertex -7.24444 -1.94114 0
      vertex -4.76484 -4.42112 0
      vertex -3.75 -6.49519 0
    endloop
  endfacet
  facet normal 0 0 -1
    outer loop
      vertex 0.485746 -6.48182 0
      vertex 1.94114 -7.24444 0
      vertex -1.44639 -6.33703 0
    endloop
  endfacet
  facet normal 0 0 -1
    outer loop
      vertex 2.37472 -6.05068 0
      vertex 1.94114 -7.24444 0
      vertex 0.485746 -6.48182 0
    endloop
  endfacet
  facet normal 0 0 -1
    outer loop
      vertex -1.44639 -6.33703 0
      vertex 0 -7.5 0
      vertex -3.25 -5.62916 0
    endloop
  endfacet
  facet normal 0 0 -1
    outer loop
      vertex -1.44639 6.33703 0
      vertex 0 7.5 0
      vertex 0.485746 6.48182 0
    endloop
  endfacet
  facet normal -0 0 -1
    outer loop
      vertex 0.485746 6.48182 0
      vertex 1.94114 7.24444 0
      vertex 2.37472 6.05068 0
    endloop
  endfacet
  facet normal -0 0 -1
    outer loop
      vertex 2.37472 6.05068 0
      vertex 3.75 6.49519 0
      vertex 4.05268 5.0819 0
    endloop
  endfacet
  facet normal 0 0 -1
    outer loop
      vertex -5.8563 2.82024 0
      vertex -5.3033 5.3033 0
      vertex -4.76484 4.42112 0
    endloop
  endfacet
  facet normal 0 0 -1
    outer loop
      vertex -6.4274 0.968775 0
      vertex -5.3033 5.3033 0
      vertex -5.8563 2.82024 0
    endloop
  endfacet
  facet normal 0 0 -1
    outer loop
      vertex -6.4274 -0.968775 0
      vertex -7.24444 -1.94114 0
      vertex -6.4274 0.968775 0
    endloop
  endfacet
  facet normal 0 0 -1
    outer loop
      vertex -4.76484 4.42112 0
      vertex -3.75 6.49519 0
      vertex -3.25 5.62916 0
    endloop
  endfacet
  facet normal 0 0 -1
    outer loop
      vertex -3.25 5.62916 0
      vertex -1.94114 7.24444 0
      vertex -1.44639 6.33703 0
    endloop
  endfacet
  facet normal -0 0 -1
    outer loop
      vertex 4.05268 5.0819 0
      vertex 5.3033 5.3033 0
      vertex 5.37055 3.66158 0
    endloop
  endfacet
  facet normal -0 0 -1
    outer loop
      vertex 5.37055 3.66158 0
      vertex 6.49519 3.75 0
      vertex 6.21122 1.91591 0
    endloop
  endfacet
  facet normal -0 0 -1
    outer loop
      vertex 6.21122 1.91591 0
      vertex 7.24444 1.94114 0
      vertex 6.5 0 0
    endloop
  endfacet
  facet normal 0 0 -1
    outer loop
      vertex 6.21122 -1.91591 0
      vertex 7.24444 -1.94114 0
      vertex 6.49519 -3.75 0
    endloop
  endfacet
  facet normal 0 0 -1
    outer loop
      vertex 6.5 0 0
      vertex 7.5 0 0
      vertex 6.21122 -1.91591 0
    endloop
  endfacet
  facet normal 0 0 -1
    outer loop
      vertex 6.21122 -1.91591 0
      vertex 6.49519 -3.75 0
      vertex 5.37055 -3.66158 0
    endloop
  endfacet
  facet normal 0 0 -1
    outer loop
      vertex 5.37055 -3.66158 0
      vertex 5.3033 -5.3033 0
      vertex 4.05268 -5.0819 0
    endloop
  endfacet
  facet normal 0 0 -1
    outer loop
      vertex 4.05268 -5.0819 0
      vertex 3.75 -6.49519 0
      vertex 2.37472 -6.05068 0
    endloop
  endfacet
  facet normal -0.991445 0.130526 0
    outer loop
      vertex -7.5 0 0
      vertex -7.5 0 8
      vertex -7.24444 1.94114 0
    endloop
  endfacet
  facet normal -0.991445 0.130526 0
    outer loop
      vertex -7.24444 1.94114 0
      vertex -7.5 0 8
      vertex -7.24444 1.94114 8
    endloop
  endfacet
  facet normal -0.991445 -0.130526 -0
    outer loop
      vertex -7.5 0 0
      vertex -7.24444 -1.94114 0
      vertex -7.5 0 8
    endloop
  endfacet
  facet normal -0.991445 -0.130526 0
    outer loop
      vertex -7.5 0 8
      vertex -7.24444 -1.94114 0
      vertex -7.24444 -1.94114 8
    endloop
  endfacet
  facet normal -0.92388 -0.382683 -0
    outer loop
      vertex -7.24444 -1.94114 0
      vertex -6.49519 -3.75 0
      vertex -7.24444 -1.94114 8
    endloop
  endfacet
  facet normal -0.92388 -0.382683 0
    outer loop
      vertex -7.24444 -1.94114 8
      vertex -6.49519 -3.75 0
      vertex -6.49519 -3.75 8
    endloop
  endfacet
  facet normal -0.793353 -0.608762 -0
    outer loop
      vertex -6.49519 -3.75 0
      vertex -5.3033 -5.3033 0
      vertex -6.49519 -3.75 8
    endloop
  endfacet
  facet normal -0.793353 -0.608762 0
    outer loop
      vertex -6.49519 -3.75 8
      vertex -5.3033 -5.3033 0
      vertex -5.3033 -5.3033 8
    endloop
  endfacet
  facet normal -0.608762 -0.793353 0
    outer loop
      vertex -5.3033 -5.3033 8
      vertex -5.3033 -5.3033 0
      vertex -3.75 -6.49519 0
    endloop
  endfacet
  facet normal -0.608762 -0.793353 0
    outer loop
      vertex -3.75 -6.49519 8
      vertex -5.3033 -5.3033 8
      vertex -3.75 -6.49519 0
    endloop
  endfacet
  facet normal -0.382683 -0.92388 0
    outer loop
      vertex -3.75 -6.49519 8
      vertex -3.75 -6.49519 0
      vertex -1.94114 -7.24444 0
    endloop
  endfacet
  facet normal -0.382683 -0.92388 0
    outer loop
      vertex -1.94114 -7.24444 8
      vertex -3.75 -6.49519 8
      vertex -1.94114 -7.24444 0
    endloop
  endfacet
  facet normal -0.130526 -0.991445 0
    outer loop
      vertex -1.94114 -7.24444 8
      vertex -1.94114 -7.24444 0
      vertex 0 -7.5 0
    endloop
  endfacet
  facet normal -0.130526 -0.991445 0
    outer loop
      vertex 0 -7.5 8
      vertex -1.94114 -7.24444 8
      vertex 0 -7.5 0
    endloop
  endfacet
  facet normal 0.130526 -0.991445 0
    outer loop
      vertex 0 -7.5 8
      vertex 0 -7.5 0
      vertex 1.94114 -7.24444 0
    endloop
  endfacet
  facet normal 0.130526 -0.991445 0
    outer loop
      vertex 1.94114 -7.24444 8
      vertex 0 -7.5 8
      vertex 1.94114 -7.24444 0
    endloop
  endfacet
  facet normal 0.382683 -0.92388 0
    outer loop
      vertex 1.94114 -7.24444 8
      vertex 1.94114 -7.24444 0
      vertex 3.75 -6.49519 0
    endloop
  endfacet
  facet normal 0.382683 -0.92388 0
    outer loop
      vertex 3.75 -6.49519 8
      vertex 1.94114 -7.24444 8
      vertex 3.75 -6.49519 0
    endloop
  endfacet
  facet normal 0.608762 -0.793353 0
    outer loop
      vertex 3.75 -6.49519 8
      vertex 3.75 -6.49519 0
      vertex 5.3033 -5.3033 0
    endloop
  endfacet
  facet normal 0.608762 -0.793353 0
    outer loop
      vertex 5.3033 -5.3033 8
      vertex 3.75 -6.49519 8
      vertex 5.3033 -5.3033 0
    endloop
  endfacet
  facet normal 0.793353 -0.608762 0
    outer loop
      vertex 5.3033 -5.3033 8
      vertex 5.3033 -5.3033 0
      vertex 6.49519 -3.75 0
    endloop
  endfacet
  facet normal 0.793353 -0.608762 0
    outer loop
      vertex 6.49519 -3.75 8
      vertex 5.3033 -5.3033 8
      vertex 6.49519 -3.75 0
    endloop
  endfacet
  facet normal 0.92388 -0.382683 0
    outer loop
      vertex 6.49519 -3.75 8
      vertex 6.49519 -3.75 0
      vertex 7.24444 -1.94114 0
    endloop
  endfacet
  facet normal 0.92388 -0.382683 0
    outer loop
      vertex 7.24444 -1.94114 8
      vertex 6.49519 -3.75 8
      vertex 7.24444 -1.94114 0
    endloop
  endfacet
  facet normal 0.991445 -0.130526 0
    outer loop
      vertex 7.24444 -1.94114 8
      vertex 7.24444 -1.94114 0
      vertex 7.5 0 0
    endloop
  endfacet
  facet normal 0.991445 -0.130526 0
    outer loop
      vertex 7.5 0 8
      vertex 7.24444 -1.94114 8
      vertex 7.5 0 0
    endloop
  endfacet
  facet normal 0.991445 0.130526 0
    outer loop
      vertex 7.5 0 0
      vertex 7.24444 1.94114 0
      vertex 7.24444 1.94114 8
    endloop
  endfacet
  facet normal 0.991445 0.130526 -0
    outer loop
      vertex 7.5 0 8
      vertex 7.5 0 0
      vertex 7.24444 1.94114 8
    endloop
  endfacet
  facet normal 0.92388 0.382683 0
    outer loop
      vertex 7.24444 1.94114 0
      vertex 6.49519 3.75 0
      vertex 6.49519 3.75 8
    endloop
  endfacet
  facet normal 0.92388 0.382683 -0
    outer loop
      vertex 7.24444 1.94114 8
      vertex 7.24444 1.94114 0
      vertex 6.49519 3.75 8
    endloop
  endfacet
  facet normal 0.793353 0.608762 0
    outer loop
      vertex 6.49519 3.75 0
      vertex 5.3033 5.3033 0
      vertex 5.3033 5.3033 8
    endloop
  endfacet
  facet normal 0.793353 0.608762 -0
    outer loop
      vertex 6.49519 3.75 8
      vertex 6.49519 3.75 0
      vertex 5.3033 5.3033 8
    endloop
  endfacet
  facet normal 0.608762 0.793353 0
    outer loop
      vertex 3.75 6.49519 0
      vertex 3.75 6.49519 8
      vertex 5.3033 5.3033 0
    endloop
  endfacet
  facet normal 0.608762 0.793353 0
    outer loop
      vertex 5.3033 5.3033 0
      vertex 3.75 6.49519 8
      vertex 5.3033 5.3033 8
    endloop
  endfacet
  facet normal 0.382683 0.92388 0
    outer loop
      vertex 1.94114 7.24444 0
      vertex 1.94114 7.24444 8
      vertex 3.75 6.49519 0
    endloop
  endfacet
  facet normal 0.382683 0.92388 0
    outer loop
      vertex 3.75 6.49519 0
      vertex 1.94114 7.24444 8
      vertex 3.75 6.49519 8
    endloop
  endfacet
  facet normal 0.130526 0.991445 0
    outer loop
      vertex 0 7.5 0
      vertex 0 7.5 8
      vertex 1.94114 7.24444 0
    endloop
  endfacet
  facet normal 0.130526 0.991445 0
    outer loop
      vertex 1.94114 7.24444 0
      vertex 0 7.5 8
      vertex 1.94114 7.24444 8
    endloop
  endfacet
  facet normal -0.130526 0.991445 0
    outer loop
      vertex -1.94114 7.24444 0
      vertex -1.94114 7.24444 8
      vertex 0 7.5 0
    endloop
  endfacet
  facet normal -0.130526 0.991445 0
    outer loop
      vertex 0 7.5 0
      vertex -1.94114 7.24444 8
      vertex 0 7.5 8
    endloop
  endfacet
  facet normal -0.382683 0.92388 0
    outer loop
      vertex -3.75 6.49519 0
      vertex -3.75 6.49519 8
      vertex -1.94114 7.24444 0
    endloop
  endfacet
  facet normal -0.382683 0.92388 0
    outer loop
      vertex -1.94114 7.24444 0
      vertex -3.75 6.49519 8
      vertex -1.94114 7.24444 8
    endloop
  endfacet
  facet normal -0.608762 0.793353 0
    outer loop
      vertex -5.3033 5.3033 0
      vertex -5.3033 5.3033 8
      vertex -3.75 6.49519 0
    endloop
  endfacet
  facet normal -0.608762 0.793353 0
    outer loop
      vertex -3.75 6.49519 0
      vertex -5.3033 5.3033 8
      vertex -3.75 6.49519 8
    endloop
  endfacet
  facet normal -0.793353 0.608762 0
    outer loop
      vertex -6.49519 3.75 0
      vertex -6.49519 3.75 8
      vertex -5.3033 5.3033 0
    endloop
  endfacet
  facet normal -0.793353 0.608762 0
    outer loop
      vertex -5.3033 5.3033 0
      vertex -6.49519 3.75 8
      vertex -5.3033 5.3033 8
    endloop
  endfacet
  facet normal -0.92388 0.382683 0
    outer loop
      vertex -7.24444 1.94114 0
      vertex -7.24444 1.94114 8
      vertex -6.49519 3.75 0
    endloop
  endfacet
  facet normal -0.92388 0.382683 0
    outer loop
      vertex -6.49519 3.75 0
      vertex -7.24444 1.94114 8
      vertex -6.49519 3.75 8
    endloop
  endfacet
  facet normal 1 0 0
    outer loop
      vertex -6.4274 0.968775 0
      vertex -6.4274 0.968775 4
      vertex -6.4274 -0.968775 4
    endloop
  endfacet
  facet normal 1 0 0
    outer loop
      vertex -6.4274 -0.968775 0
      vertex -6.4274 0.968775 0
      vertex -6.4274 -0.968775 4
    endloop
  endfacet
  facet normal 0.955573 -0.294755 0
    outer loop
      vertex -5.8563 2.82024 0
      vertex -5.8563 2.82024 4
      vertex -6.4274 0.968775 4
    endloop
  endfacet
  facet normal 0.955573 -0.294755 0
    outer loop
      vertex -6.4274 0.968775 0
      vertex -5.8563 2.82024 0
      vertex -6.4274 0.968775 4
    endloop
  endfacet
  facet normal 0.826239 -0.56332 0
    outer loop
      vertex -4.76484 4.42112 0
      vertex -4.76484 4.42112 4
      vertex -5.8563 2.82024 4
    endloop
  endfacet
  facet normal 0.826239 -0.56332 0
    outer loop
      vertex -5.8563 2.82024 0
      vertex -4.76484 4.42112 0
      vertex -5.8563 2.82024 4
    endloop
  endfacet
  facet normal 0.62349 -0.781832 0
    outer loop
      vertex -3.25 5.62916 0
      vertex -3.25 5.62916 4
      vertex -4.76484 4.42112 4
    endloop
  endfacet
  facet normal 0.62349 -0.781832 0
    outer loop
      vertex -4.76484 4.42112 0
      vertex -3.25 5.62916 0
      vertex -4.76484 4.42112 4
    endloop
  endfacet
  facet normal 0.365341 -0.930874 0
    outer loop
      vertex -1.44639 6.33703 0
      vertex -1.44639 6.33703 4
      vertex -3.25 5.62916 4
    endloop
  endfacet
  facet normal 0.365341 -0.930874 0
    outer loop
      vertex -3.25 5.62916 0
      vertex -1.44639 6.33703 0
      vertex -3.25 5.62916 4
    endloop
  endfacet
  facet normal 0.0747305 -0.997204 0
    outer loop
      vertex 0.485746 6.48182 0
      vertex 0.485746 6.48182 4
      vertex -1.44639 6.33703 4
    endloop
  endfacet
  facet normal 0.0747305 -0.997204 0
    outer loop
      vertex -1.44639 6.33703 0
      vertex 0.485746 6.48182 0
      vertex -1.44639 6.33703 4
    endloop
  endfacet
  facet normal -0.222521 -0.974928 -0
    outer loop
      vertex 2.37472 6.05068 0
      vertex 2.37472 6.05068 4
      vertex 0.485746 6.48182 4
    endloop
  endfacet
  facet normal -0.222521 -0.974928 -0
    outer loop
      vertex 0.485746 6.48182 0
      vertex 2.37472 6.05068 0
      vertex 0.485746 6.48182 4
    endloop
  endfacet
  facet normal -0.5 -0.866026 -0
    outer loop
      vertex 4.05268 5.0819 0
      vertex 4.05268 5.0819 4
      vertex 2.37472 6.05068 4
    endloop
  endfacet
  facet normal -0.5 -0.866026 -0
    outer loop
      vertex 2.37472 6.05068 0
      vertex 4.05268 5.0819 0
      vertex 2.37472 6.05068 4
    endloop
  endfacet
  facet normal -0.733052 -0.680172 0
    outer loop
      vertex 5.37055 3.66158 4
      vertex 4.05268 5.0819 4
      vertex 5.37055 3.66158 0
    endloop
  endfacet
  facet normal -0.733052 -0.680172 0
    outer loop
      vertex 5.37055 3.66158 0
      vertex 4.05268 5.0819 4
      vertex 4.05268 5.0819 0
    endloop
  endfacet
  facet normal -0.900969 -0.433884 0
    outer loop
      vertex 6.21122 1.91591 4
      vertex 5.37055 3.66158 4
      vertex 6.21122 1.91591 0
    endloop
  endfacet
  facet normal -0.900969 -0.433884 0
    outer loop
      vertex 6.21122 1.91591 0
      vertex 5.37055 3.66158 4
      vertex 5.37055 3.66158 0
    endloop
  endfacet
  facet normal -0.988831 -0.149042 0
    outer loop
      vertex 6.5 0 4
      vertex 6.21122 1.91591 4
      vertex 6.5 0 0
    endloop
  endfacet
  facet normal -0.988831 -0.149042 0
    outer loop
      vertex 6.5 0 0
      vertex 6.21122 1.91591 4
      vertex 6.21122 1.91591 0
    endloop
  endfacet
  facet normal -0.988831 0.149042 0
    outer loop
      vertex 6.5 0 4
      vertex 6.5 0 0
      vertex 6.21122 -1.91591 4
    endloop
  endfacet
  facet normal -0.988831 0.149042 0
    outer loop
      vertex 6.21122 -1.91591 4
      vertex 6.5 0 0
      vertex 6.21122 -1.91591 0
    endloop
  endfacet
  facet normal -0.900969 0.433884 0
    outer loop
      vertex 6.21122 -1.91591 4
      vertex 6.21122 -1.91591 0
      vertex 5.37055 -3.66158 4
    endloop
  endfacet
  facet normal -0.900969 0.433884 0
    outer loop
      vertex 5.37055 -3.66158 4
      vertex 6.21122 -1.91591 0
      vertex 5.37055 -3.66158 0
    endloop
  endfacet
  facet normal -0.733052 0.680172 0
    outer loop
      vertex 5.37055 -3.66158 4
      vertex 5.37055 -3.66158 0
      vertex 4.05268 -5.0819 4
    endloop
  endfacet
  facet normal -0.733052 0.680172 0
    outer loop
      vertex 4.05268 -5.0819 4
      vertex 5.37055 -3.66158 0
      vertex 4.05268 -5.0819 0
    endloop
  endfacet
  facet normal -0.5 0.866026 0
    outer loop
      vertex 4.05268 -5.0819 4
      vertex 4.05268 -5.0819 0
      vertex 2.37472 -6.05068 4
    endloop
  endfacet
  facet normal -0.5 0.866026 0
    outer loop
      vertex 2.37472 -6.05068 4
      vertex 4.05268 -5.0819 0
      vertex 2.37472 -6.05068 0
    endloop
  endfacet
  facet normal -0.222521 0.974928 0
    outer loop
      vertex 2.37472 -6.05068 4
      vertex 2.37472 -6.05068 0
      vertex 0.485746 -6.48182 4
    endloop
  endfacet
  facet normal -0.222521 0.974928 0
    outer loop
      vertex 0.485746 -6.48182 4
      vertex 2.37472 -6.05068 0
      vertex 0.485746 -6.48182 0
    endloop
  endfacet
  facet normal 0.0747305 0.997204 -0
    outer loop
      vertex 0.485746 -6.48182 4
      vertex 0.485746 -6.48182 0
      vertex -1.44639 -6.33703 4
    endloop
  endfacet
  facet normal 0.0747305 0.997204 -0
    outer loop
      vertex -1.44639 -6.33703 4
      vertex 0.485746 -6.48182 0
      vertex -1.44639 -6.33703 0
    endloop
  endfacet
  facet normal 0.365341 0.930874 -0
    outer loop
      vertex -1.44639 -6.33703 4
      vertex -1.44639 -6.33703 0
      vertex -3.25 -5.62916 4
    endloop
  endfacet
  facet normal 0.365341 0.930874 -0
    outer loop
      vertex -3.25 -5.62916 4
      vertex -1.44639 -6.33703 0
      vertex -3.25 -5.62916 0
    endloop
  endfacet
  facet normal 0.62349 0.781832 -0
    outer loop
      vertex -3.25 -5.62916 4
      vertex -3.25 -5.62916 0
      vertex -4.76484 -4.42112 4
    endloop
  endfacet
  facet normal 0.62349 0.781832 -0
    outer loop
      vertex -4.76484 -4.42112 4
      vertex -3.25 -5.62916 0
      vertex -4.76484 -4.42112 0
    endloop
  endfacet
  facet normal 0.826239 0.56332 0
    outer loop
      vertex -5.8563 -2.82024 4
      vertex -4.76484 -4.42112 4
      vertex -4.76484 -4.42112 0
    endloop
  endfacet
  facet normal 0.826239 0.56332 0
    outer loop
      vertex -5.8563 -2.82024 0
      vertex -5.8563 -2.82024 4
      vertex -4.76484 -4.42112 0
    endloop
  endfacet
  facet normal 0.955573 0.294755 0
    outer loop
      vertex -6.4274 -0.968775 4
      vertex -5.8563 -2.82024 4
      vertex -5.8563 -2.82024 0
    endloop
  endfacet
  facet normal 0.955573 0.294755 0
    outer loop
      vertex -6.4274 -0.968775 0
      vertex -6.4274 -0.968775 4
      vertex -5.8563 -2.82024 0
    endloop
  endfacet
  facet normal 0 0 1
    outer loop
      vertex -7.24444 1.94114 8
      vertex -7.5 0 8
      vertex -7.24444 -1.94114 8
    endloop
  endfacet
  facet normal 0 0 1
    outer loop
      vertex -5.3033 -5.3033 8
      vertex -7.24444 1.94114 8
      vertex -6.49519 -3.75 8
    endloop
  endfacet
  facet normal 0 0 1
    outer loop
      vertex -6.49519 -3.75 8
      vertex -7.24444 1.94114 8
      vertex -7.24444 -1.94114 8
    endloop
  endfacet
  facet normal 0 0 1
    outer loop
      vertex -3.75 -6.49519 8
      vertex -7.24444 1.94114 8
      vertex -5.3033 -5.3033 8
    endloop
  endfacet
  facet normal 0 0 1
    outer loop
      vertex -1.94114 -7.24444 8
      vertex -7.24444 1.94114 8
      vertex -3.75 -6.49519 8
    endloop
  endfacet
  facet normal 0 0 1
    outer loop
      vertex 0 -7.5 8
      vertex -7.24444 1.94114 8
      vertex -1.94114 -7.24444 8
    endloop
  endfacet
  facet normal -0 0 1
    outer loop
      vertex 1.94114 -7.24444 8
      vertex -7.24444 1.94114 8
      vertex 0 -7.5 8
    endloop
  endfacet
  facet normal -0 0 1
    outer loop
      vertex 3.75 -6.49519 8
      vertex -7.24444 1.94114 8
      vertex 1.94114 -7.24444 8
    endloop
  endfacet
  facet normal -0 0 1
    outer loop
      vertex 5.3033 -5.3033 8
      vertex -7.24444 1.94114 8
      vertex 3.75 -6.49519 8
    endloop
  endfacet
  facet normal -0 -0 1
    outer loop
      vertex -0.445042 -1.94986 8
      vertex -7.24444 1.94114 8
      vertex 5.3033 -5.3033 8
    endloop
  endfacet
  facet normal 0 -0 1
    outer loop
      vertex 2 0 8
      vertex 1.24698 -1.56366 8
      vertex 7.24444 -1.94114 8
    endloop
  endfacet
  facet normal 0 0 1
    outer loop
      vertex -0.445042 1.94986 8
      vertex 1.24698 1.56366 8
      vertex 7.24444 1.94114 8
    endloop
  endfacet
  facet normal 0 0 1
    outer loop
      vertex 1.24698 1.56366 8
      vertex 2 0 8
      vertex 7.5 0 8
    endloop
  endfacet
  facet normal 0 -0 1
    outer loop
      vertex 5.3033 5.3033 8
      vertex -7.24444 1.94114 8
      vertex 6.49519 3.75 8
    endloop
  endfacet
  facet normal 0 -0 1
    outer loop
      vertex 3.75 6.49519 8
      vertex -7.24444 1.94114 8
      vertex 5.3033 5.3033 8
    endloop
  endfacet
  facet normal 0 -0 1
    outer loop
      vertex 1.94114 7.24444 8
      vertex -7.24444 1.94114 8
      vertex 3.75 6.49519 8
    endloop
  endfacet
  facet normal 0 -0 1
    outer loop
      vertex 0 7.5 8
      vertex -7.24444 1.94114 8
      vertex 1.94114 7.24444 8
    endloop
  endfacet
  facet normal 0 -0 1
    outer loop
      vertex -1.94114 7.24444 8
      vertex -7.24444 1.94114 8
      vertex 0 7.5 8
    endloop
  endfacet
  facet normal 0 -0 1
    outer loop
      vertex -3.75 6.49519 8
      vertex -7.24444 1.94114 8
      vertex -1.94114 7.24444 8
    endloop
  endfacet
  facet normal 0 -0 1
    outer loop
      vertex -5.3033 5.3033 8
      vertex -7.24444 1.94114 8
      vertex -3.75 6.49519 8
    endloop
  endfacet
  facet normal 0 -0 1
    outer loop
      vertex -6.49519 3.75 8
      vertex -7.24444 1.94114 8
      vertex -5.3033 5.3033 8
    endloop
  endfacet
  facet normal 0 0 1
    outer loop
      vertex -1.80194 0.867767 8
      vertex -0.445042 1.94986 8
      vertex -7.24444 1.94114 8
    endloop
  endfacet
  facet normal 0 0 1
    outer loop
      vertex 1.24698 -1.56366 8
      vertex 5.3033 -5.3033 8
      vertex 6.49519 -3.75 8
    endloop
  endfacet
  facet normal 0 -0 1
    outer loop
      vertex 6.49519 3.75 8
      vertex -0.445042 1.94986 8
      vertex 7.24444 1.94114 8
    endloop
  endfacet
  facet normal 0 0 1
    outer loop
      vertex 6.49519 3.75 8
      vertex -7.24444 1.94114 8
      vertex -0.445042 1.94986 8
    endloop
  endfacet
  facet normal 0 -0 1
    outer loop
      vertex 7.24444 1.94114 8
      vertex 1.24698 1.56366 8
      vertex 7.5 0 8
    endloop
  endfacet
  facet normal 0 0 1
    outer loop
      vertex 7.5 0 8
      vertex 2 0 8
      vertex 7.24444 -1.94114 8
    endloop
  endfacet
  facet normal -0 0 1
    outer loop
      vertex 7.24444 -1.94114 8
      vertex 1.24698 -1.56366 8
      vertex 6.49519 -3.75 8
    endloop
  endfacet
  facet normal 0 -0 1
    outer loop
      vertex 1.24698 -1.56366 8
      vertex -0.445042 -1.94986 8
      vertex 5.3033 -5.3033 8
    endloop
  endfacet
  facet normal -0 -0 1
    outer loop
      vertex -1.80194 -0.867767 8
      vertex -7.24444 1.94114 8
      vertex -0.445042 -1.94986 8
    endloop
  endfacet
  facet normal 0 0 1
    outer loop
      vertex -1.80194 -0.867767 8
      vertex -1.80194 0.867767 8
      vertex -7.24444 1.94114 8
    endloop
  endfacet
  facet normal -0 0 -1
    outer loop
      vertex -5.8563 2.82024 4
      vertex -4.76484 4.42112 4
      vertex -6.4274 0.968775 4
    endloop
  endfacet
  facet normal 0 0 -1
    outer loop
      vertex -6.4274 0.968775 4
      vertex -4.76484 4.42112 4
      vertex -3.25 5.62916 4
    endloop
  endfacet
  facet normal 0 0 -1
    outer loop
      vertex -6.4274 0.968775 4
      vertex -3.25 5.62916 4
      vertex -1.44639 6.33703 4
    endloop
  endfacet
  facet normal 0 0 -1
    outer loop
      vertex -6.4274 0.968775 4
      vertex -1.44639 6.33703 4
      vertex 0.485746 6.48182 4
    endloop
  endfacet
  facet normal 0 0 -1
    outer loop
      vertex -6.4274 0.968775 4
      vertex 0.485746 6.48182 4
      vertex 2.37472 6.05068 4
    endloop
  endfacet
  facet normal 0 0 -1
    outer loop
      vertex -0.498102 3.46437 4
      vertex 2.37472 6.05068 4
      vertex 4.05268 5.0819 4
    endloop
  endfacet
  facet normal 0 0 -1
    outer loop
      vertex 1.45395 3.18371 4
      vertex 4.05268 5.0819 4
      vertex 5.37055 3.66158 4
    endloop
  endfacet
  facet normal 0 0 -1
    outer loop
      vertex 2.94439 1.89224 4
      vertex 5.37055 3.66158 4
      vertex 6.21122 1.91591 4
    endloop
  endfacet
  facet normal 0 0 -1
    outer loop
      vertex 3.5 0 4
      vertex 6.5 0 4
      vertex 6.21122 -1.91591 4
    endloop
  endfacet
  facet normal 0 0 -1
    outer loop
      vertex 2.94439 -1.89224 4
      vertex 6.21122 -1.91591 4
      vertex 5.37055 -3.66158 4
    endloop
  endfacet
  facet normal 0 0 -1
    outer loop
      vertex 1.45395 -3.18371 4
      vertex 5.37055 -3.66158 4
      vertex 4.05268 -5.0819 4
    endloop
  endfacet
  facet normal 0 0 -1
    outer loop
      vertex -0.498102 -3.46437 4
      vertex 4.05268 -5.0819 4
      vertex 2.37472 -6.05068 4
    endloop
  endfacet
  facet normal 0 0 -1
    outer loop
      vertex -2.29201 -2.64512 4
      vertex 2.37472 -6.05068 4
      vertex 0.485746 -6.48182 4
    endloop
  endfacet
  facet normal 0 0 -1
    outer loop
      vertex -6.4274 0.968775 4
      vertex 0.485746 -6.48182 4
      vertex -1.44639 -6.33703 4
    endloop
  endfacet
  facet normal 0 0 -1
    outer loop
      vertex -6.4274 0.968775 4
      vertex -1.44639 -6.33703 4
      vertex -3.25 -5.62916 4
    endloop
  endfacet
  facet normal 0 0 -1
    outer loop
      vertex -6.4274 0.968775 4
      vertex -3.25 -5.62916 4
      vertex -4.76484 -4.42112 4
    endloop
  endfacet
  facet normal 0 0 -1
    outer loop
      vertex -6.4274 0.968775 4
      vertex -4.76484 -4.42112 4
      vertex -5.8563 -2.82024 4
    endloop
  endfacet
  facet normal 0 0 -1
    outer loop
      vertex -6.4274 0.968775 4
      vertex -5.8563 -2.82024 4
      vertex -6.4274 -0.968775 4
    endloop
  endfacet
  facet normal 0 0 -1
    outer loop
      vertex -2.29201 -2.64512 4
      vertex -6.4274 0.968775 4
      vertex -3.35823 -0.986064 4
    endloop
  endfacet
  facet normal 0 0 -1
    outer loop
      vertex -0.498102 -3.46437 4
      vertex 2.37472 -6.05068 4
      vertex -2.29201 -2.64512 4
    endloop
  endfacet
  facet normal 0 0 -1
    outer loop
      vertex -6.4274 0.968775 4
      vertex -2.29201 -2.64512 4
      vertex 0.485746 -6.48182 4
    endloop
  endfacet
  facet normal 0 0 -1
    outer loop
      vertex 1.45395 -3.18371 4
      vertex 4.05268 -5.0819 4
      vertex -0.498102 -3.46437 4
    endloop
  endfacet
  facet normal -0 0 -1
    outer loop
      vertex 1.45395 3.18371 4
      vertex 5.37055 3.66158 4
      vertex 2.94439 1.89224 4
    endloop
  endfacet
  facet normal -0 0 -1
    outer loop
      vertex -0.498102 3.46437 4
      vertex 4.05268 5.0819 4
      vertex 1.45395 3.18371 4
    endloop
  endfacet
  facet normal 0 0 -1
    outer loop
      vertex -6.4274 0.968775 4
      vertex 2.37472 6.05068 4
      vertex -0.498102 3.46437 4
    endloop
  endfacet
  facet normal 0 -0 -1
    outer loop
      vertex -3.35823 0.986064 4
      vertex -6.4274 0.968775 4
      vertex -2.29201 2.64512 4
    endloop
  endfacet
  facet normal 0 0 -1
    outer loop
      vertex -6.4274 0.968775 4
      vertex -0.498102 3.46437 4
      vertex -2.29201 2.64512 4
    endloop
  endfacet
  facet normal 0 0 -1
    outer loop
      vertex -3.35823 -0.986064 4
      vertex -6.4274 0.968775 4
      vertex -3.35823 0.986064 4
    endloop
  endfacet
  facet normal -0 0 -1
    outer loop
      vertex 2.94439 1.89224 4
      vertex 6.21122 1.91591 4
      vertex 6.5 0 4
    endloop
  endfacet
  facet normal 0 0 -1
    outer loop
      vertex 2.94439 1.89224 4
      vertex 6.5 0 4
      vertex 3.5 0 4
    endloop
  endfacet
  facet normal 0 0 -1
    outer loop
      vertex 3.5 0 4
      vertex 6.21122 -1.91591 4
      vertex 2.94439 -1.89224 4
    endloop
  endfacet
  facet normal 0 0 -1
    outer loop
      vertex 2.94439 -1.89224 4
      vertex 5.37055 -3.66158 4
      vertex 1.45395 -3.18371 4
    endloop
  endfacet
  facet normal 1 0 0
    outer loop
      vertex -1.80194 0.867767 6
      vertex -1.80194 0.867767 8
      vertex -1.80194 -0.867767 8
    endloop
  endfacet
  facet normal 1 0 0
    outer loop
      vertex -1.80194 -0.867767 6
      vertex -1.80194 0.867767 6
      vertex -1.80194 -0.867767 8
    endloop
  endfacet
  facet normal 0.62349 0.781831 -0
    outer loop
      vertex -0.445042 -1.94986 8
      vertex -0.445042 -1.94986 6
      vertex -1.80194 -0.867767 8
    endloop
  endfacet
  facet normal 0.62349 0.781831 -0
    outer loop
      vertex -1.80194 -0.867767 8
      vertex -0.445042 -1.94986 6
      vertex -1.80194 -0.867767 6
    endloop
  endfacet
  facet normal -0.222521 0.974928 0
    outer loop
      vertex 1.24698 -1.56366 8
      vertex 1.24698 -1.56366 6
      vertex -0.445042 -1.94986 8
    endloop
  endfacet
  facet normal -0.222521 0.974928 0
    outer loop
      vertex -0.445042 -1.94986 8
      vertex 1.24698 -1.56366 6
      vertex -0.445042 -1.94986 6
    endloop
  endfacet
  facet normal -0.900969 0.433884 0
    outer loop
      vertex 2 0 8
      vertex 2 0 6
      vertex 1.24698 -1.56366 8
    endloop
  endfacet
  facet normal -0.900969 0.433884 0
    outer loop
      vertex 1.24698 -1.56366 8
      vertex 2 0 6
      vertex 1.24698 -1.56366 6
    endloop
  endfacet
  facet normal -0.900969 -0.433884 0
    outer loop
      vertex 2 0 8
      vertex 1.24698 1.56366 8
      vertex 2 0 6
    endloop
  endfacet
  facet normal -0.900969 -0.433884 0
    outer loop
      vertex 2 0 6
      vertex 1.24698 1.56366 8
      vertex 1.24698 1.56366 6
    endloop
  endfacet
  facet normal -0.222521 -0.974928 -0
    outer loop
      vertex 1.24698 1.56366 6
      vertex 1.24698 1.56366 8
      vertex -0.445042 1.94986 8
    endloop
  endfacet
  facet normal -0.222521 -0.974928 -0
    outer loop
      vertex -0.445042 1.94986 6
      vertex 1.24698 1.56366 6
      vertex -0.445042 1.94986 8
    endloop
  endfacet
  facet normal 0.62349 -0.781831 0
    outer loop
      vertex -0.445042 1.94986 6
      vertex -0.445042 1.94986 8
      vertex -1.80194 0.867767 8
    endloop
  endfacet
  facet normal 0.62349 -0.781831 0
    outer loop
      vertex -1.80194 0.867767 6
      vertex -0.445042 1.94986 6
      vertex -1.80194 0.867767 8
    endloop
  endfacet
  facet normal 1 0 0
    outer loop
      vertex -3.35823 0.986064 4
      vertex -3.35823 0.986064 6
      vertex -3.35823 -0.986064 6
    endloop
  endfacet
  facet normal 1 0 0
    outer loop
      vertex -3.35823 -0.986064 4
      vertex -3.35823 0.986064 4
      vertex -3.35823 -0.986064 6
    endloop
  endfacet
  facet normal 0.841254 0.54064 0
    outer loop
      vertex -3.35823 -0.986064 6
      vertex -2.29201 -2.64512 6
      vertex -2.29201 -2.64512 4
    endloop
  endfacet
  facet normal 0.841254 0.54064 0
    outer loop
      vertex -3.35823 -0.986064 4
      vertex -3.35823 -0.986064 6
      vertex -2.29201 -2.64512 4
    endloop
  endfacet
  facet normal 0.841254 -0.54064 0
    outer loop
      vertex -2.29201 2.64512 4
      vertex -2.29201 2.64512 6
      vertex -3.35823 0.986064 6
    endloop
  endfacet
  facet normal 0.841254 -0.54064 0
    outer loop
      vertex -3.35823 0.986064 4
      vertex -2.29201 2.64512 4
      vertex -3.35823 0.986064 6
    endloop
  endfacet
  facet normal 0.415415 -0.909632 0
    outer loop
      vertex -0.498102 3.46437 4
      vertex -0.498102 3.46437 6
      vertex -2.29201 2.64512 6
    endloop
  endfacet
  facet normal 0.415415 -0.909632 0
    outer loop
      vertex -2.29201 2.64512 4
      vertex -0.498102 3.46437 4
      vertex -2.29201 2.64512 6
    endloop
  endfacet
  facet normal -0.142315 -0.989821 -0
    outer loop
      vertex 1.45395 3.18371 4
      vertex 1.45395 3.18371 6
      vertex -0.498102 3.46437 6
    endloop
  endfacet
  facet normal -0.142315 -0.989821 -0
    outer loop
      vertex -0.498102 3.46437 4
      vertex 1.45395 3.18371 4
      vertex -0.498102 3.46437 6
    endloop
  endfacet
  facet normal -0.654861 -0.755749 -0
    outer loop
      vertex 2.94439 1.89224 4
      vertex 2.94439 1.89224 6
      vertex 1.45395 3.18371 6
    endloop
  endfacet
  facet normal -0.654861 -0.755749 -0
    outer loop
      vertex 1.45395 3.18371 4
      vertex 2.94439 1.89224 4
      vertex 1.45395 3.18371 6
    endloop
  endfacet
  facet normal -0.959493 -0.281733 0
    outer loop
      vertex 3.5 0 6
      vertex 2.94439 1.89224 6
      vertex 3.5 0 4
    endloop
  endfacet
  facet normal -0.959493 -0.281733 0
    outer loop
      vertex 3.5 0 4
      vertex 2.94439 1.89224 6
      vertex 2.94439 1.89224 4
    endloop
  endfacet
  facet normal -0.959493 0.281733 0
    outer loop
      vertex 3.5 0 6
      vertex 3.5 0 4
      vertex 2.94439 -1.89224 6
    endloop
  endfacet
  facet normal -0.959493 0.281733 0
    outer loop
      vertex 2.94439 -1.89224 6
      vertex 3.5 0 4
      vertex 2.94439 -1.89224 4
    endloop
  endfacet
  facet normal -0.654861 0.755749 0
    outer loop
      vertex 2.94439 -1.89224 6
      vertex 2.94439 -1.89224 4
      vertex 1.45395 -3.18371 6
    endloop
  endfacet
  facet normal -0.654861 0.755749 0
    outer loop
      vertex 1.45395 -3.18371 6
      vertex 2.94439 -1.89224 4
      vertex 1.45395 -3.18371 4
    endloop
  endfacet
  facet normal -0.142315 0.989821 0
    outer loop
      vertex 1.45395 -3.18371 6
      vertex 1.45395 -3.18371 4
      vertex -0.498102 -3.46437 6
    endloop
  endfacet
  facet normal -0.142315 0.989821 0
    outer loop
      vertex -0.498102 -3.46437 6
      vertex 1.45395 -3.18371 4
      vertex -0.498102 -3.46437 4
    endloop
  endfacet
  facet normal 0.415415 0.909632 -0
    outer loop
      vertex -0.498102 -3.46437 6
      vertex -0.498102 -3.46437 4
      vertex -2.29201 -2.64512 6
    endloop
  endfacet
  facet normal 0.415415 0.909632 -0
    outer loop
      vertex -2.29201 -2.64512 6
      vertex -0.498102 -3.46437 4
      vertex -2.29201 -2.64512 4
    endloop
  endfacet
  facet normal -0 0 -1
    outer loop
      vertex -2.29201 2.64512 6
      vertex -0.498102 3.46437 6
      vertex -3.35823 0.986064 6
    endloop
  endfacet
  facet normal 0 0 -1
    outer loop
      vertex -3.35823 0.986064 6
      vertex -0.498102 3.46437 6
      vertex 1.45395 3.18371 6
    endloop
  endfacet
  facet normal -0 0 -1
    outer loop
      vertex -0.445042 1.94986 6
      vertex 1.45395 3.18371 6
      vertex 2.94439 1.89224 6
    endloop
  endfacet
  facet normal -0 0 -1
    outer loop
      vertex 1.24698 1.56366 6
      vertex 2.94439 1.89224 6
      vertex 3.5 0 6
    endloop
  endfacet
  facet normal 0 0 -1
    outer loop
      vertex 2 0 6
      vertex 3.5 0 6
      vertex 2.94439 -1.89224 6
    endloop
  endfacet
  facet normal 0 0 -1
    outer loop
      vertex 1.24698 -1.56366 6
      vertex 2.94439 -1.89224 6
      vertex 1.45395 -3.18371 6
    endloop
  endfacet
  facet normal 0 0 -1
    outer loop
      vertex -0.445042 -1.94986 6
      vertex 1.45395 -3.18371 6
      vertex -0.498102 -3.46437 6
    endloop
  endfacet
  facet normal 0 0 -1
    outer loop
      vertex -3.35823 0.986064 6
      vertex -0.498102 -3.46437 6
      vertex -2.29201 -2.64512 6
    endloop
  endfacet
  facet normal 0 0 -1
    outer loop
      vertex -3.35823 0.986064 6
      vertex -2.29201 -2.64512 6
      vertex -3.35823 -0.986064 6
    endloop
  endfacet
  facet normal 0 0 -1
    outer loop
      vertex 1.24698 -1.56366 6
      vertex 1.45395 -3.18371 6
      vertex -0.445042 -1.94986 6
    endloop
  endfacet
  facet normal 0 0 -1
    outer loop
      vertex -3.35823 0.986064 6
      vertex -1.80194 -0.867767 6
      vertex -0.498102 -3.46437 6
    endloop
  endfacet
  facet normal 0 0 -1
    outer loop
      vertex -1.80194 -0.867767 6
      vertex -0.445042 -1.94986 6
      vertex -0.498102 -3.46437 6
    endloop
  endfacet
  facet normal 0 0 -1
    outer loop
      vertex -0.445042 1.94986 6
      vertex 2.94439 1.89224 6
      vertex 1.24698 1.56366 6
    endloop
  endfacet
  facet normal 0 0 -1
    outer loop
      vertex -3.35823 0.986064 6
      vertex 1.45395 3.18371 6
      vertex -0.445042 1.94986 6
    endloop
  endfacet
  facet normal 0 -0 -1
    outer loop
      vertex -1.80194 0.867767 6
      vertex -3.35823 0.986064 6
      vertex -0.445042 1.94986 6
    endloop
  endfacet
  facet normal 0 0 -1
    outer loop
      vertex -1.80194 -0.867767 6
      vertex -3.35823 0.986064 6
      vertex -1.80194 0.867767 6
    endloop
  endfacet
  facet normal 0 0 -1
    outer loop
      vertex 1.24698 1.56366 6
      vertex 3.5 0 6
      vertex 2 0 6
    endloop
  endfacet
  facet normal 0 0 -1
    outer loop
      vertex 2 0 6
      vertex 2.94439 -1.89224 6
      vertex 1.24698 -1.56366 6
    endloop
  endfacet
endsolid OpenSCAD_Model
