solid OpenSCAD_Model
  facet normal -0 0 -1
    outer loop
      vertex -7.5 0 0
      vertex -7.24444 1.94114 0
      vertex -7.24444 -1.94114 0
    endloop
  endfacet
  facet normal 0 -0 -1
    outer loop
      vertex -7.24444 -1.94114 0
      vertex -7.24444 1.94114 0
      vertex -6.49519 3.75 0
    endloop
  endfacet
  facet normal 0 0 -1
    outer loop
      vertex -7.24444 -1.94114 0
      vertex -6.49519 3.75 0
      vertex -5.3033 5.3033 0
    endloop
  endfacet
  facet normal 0 0 -1
    outer loop
      vertex -7.24444 -1.94114 0
      vertex -5.3033 5.3033 0
      vertex -3.75 6.49519 0
    endloop
  endfacet
  facet normal 0 0 -1
    outer loop
      vertex -7.24444 -1.94114 0
      vertex -3.75 6.49519 0
      vertex -1.94114 7.24444 0
    endloop
  endfacet
  facet normal 0 0 -1
    outer loop
      vertex -7.24444 -1.94114 0
      vertex -1.94114 7.24444 0
      vertex 0 7.5 0
    endloop
  endfacet
  facet normal 0 0 -1
    outer loop
      vertex -2.25 3.89711 0
      vertex 0 7.5 0
      vertex 1.94114 7.24444 0
    endloop
  endfacet
  facet normal 0 0 -1
    outer loop
      vertex -0.470378 4.47535 0
      vertex 1.94114 7.24444 0
      vertex 3.75 6.49519 0
    endloop
  endfacet
  facet normal 0 0 -1
    outer loop
      vertex 1.39058 4.27975 0
      vertex 3.75 6.49519 0
      vertex 5.3033 5.3033 0
    endloop
  endfacet
  facet normal 0 0 -1
    outer loop
      vertex 3.01109 3.34415 0
      vertex 5.3033 5.3033 0
      vertex 6.49519 3.75 0
    endloop
  endfacet
  facet normal 0 0 -1
    outer loop
      vertex 4.11095 1.83031 0
      vertex 6.49519 3.75 0
      vertex 7.24444 1.94114 0
    endloop
  endfacet
  facet normal -0 0 -1
    outer loop
      vertex 4.5 0 0
      vertex 7.24444 1.94114 0
      vertex 7.5 0 0
    endloop
  endfacet
  facet normal -0 0 -1
    outer loop
      vertex 4.11095 -1.83031 0
      vertex 7.5 0 0
      vertex 7.24444 -1.94114 0
    endloop
  endfacet
  facet normal 0 0 -1
    outer loop
      vertex -0.470378 -4.47535 0
      vertex 5.3033 -5.3033 0
      vertex 3.75 -6.49519 0
    endloop
  endfacet
  facet normal 0 0 -1
    outer loop
      vertex -7.24444 -1.94114 0
      vertex 3.75 -6.49519 0
      vertex 1.94114 -7.24444 0
    endloop
  endfacet
  facet normal 0 0 -1
    outer loop
      vertex -7.24444 -1.94114 0
      vertex 1.94114 -7.24444 0
      vertex 0 -7.5 0
    endloop
  endfacet
  facet normal 0 0 -1
    outer loop
      vertex -7.24444 -1.94114 0
      vertex 0 -7.5 0
      vertex -1.94114 -7.24444 0
    endloop
  endfacet
  facet normal 0 0 -1
    outer loop
      vertex -7.24444 -1.94114 0
      vertex -1.94114 -7.24444 0
      vertex -3.75 -6.49519 0
    endloop
  endfacet
  facet normal 0 0 -1
    outer loop
      vertex -7.24444 -1.94114 0
      vertex -3.75 -6.49519 0
      vertex -5.3033 -5.3033 0
    endloop
  endfacet
  facet normal 0 0 -1
    outer loop
      vertex -7.24444 -1.94114 0
      vertex -5.3033 -5.3033 0
      vertex -6.49519 -3.75 0
    endloop
  endfacet
  facet normal 0 0 -1
    outer loop
      vertex -3.64058 -2.64503 0
      vertex -7.24444 -1.94114 0
      vertex -4.40166 -0.935603 0
    endloop
  endfacet
  facet normal 0 0 -1
    outer loop
      vertex 4.11095 -1.83031 0
      vertex 6.49519 -3.75 0
      vertex 3.01109 -3.34415 0
    endloop
  endfacet
  facet normal 0 0 -1
    outer loop
      vertex 3.01109 -3.34415 0
      vertex 6.49519 -3.75 0
      vertex 5.3033 -5.3033 0
    endloop
  endfacet
  facet normal 0 0 -1
    outer loop
      vertex -7.24444 -1.94114 0
      vertex -2.25 -3.89711 0
      vertex 3.75 -6.49519 0
    endloop
  endfacet
  facet normal 0 0 -1
    outer loop
      vertex 3.01109 -3.34415 0
      vertex 5.3033 -5.3033 0
      vertex 1.39058 -4.27975 0
    endloop
  endfacet
  facet normal 0 0 -1
    outer loop
      vertex -2.25 -3.89711 0
      vertex -0.470378 -4.47535 0
      vertex 3.75 -6.49519 0
    endloop
  endfacet
  facet normal 0 0 -1
    outer loop
      vertex 1.39058 -4.27975 0
      vertex 5.3033 -5.3033 0
      vertex -0.470378 -4.47535 0
    endloop
  endfacet
  facet normal 0 0 -1
    outer loop
      vertex -2.25 -3.89711 0
      vertex -7.24444 -1.94114 0
      vertex -3.64058 -2.64503 0
    endloop
  endfacet
  facet normal -0 0 -1
    outer loop
      vertex 3.01109 3.34415 0
      vertex 6.49519 3.75 0
      vertex 4.11095 1.83031 0
    endloop
  endfacet
  facet normal -0 0 -1
    outer loop
      vertex 4.11095 1.83031 0
      vertex 7.24444 1.94114 0
      vertex 4.5 0 0
    endloop
  endfacet
  facet normal 0 0 -1
    outer loop
      vertex 4.11095 -1.83031 0
      vertex 7.24444 -1.94114 0
      vertex 6.49519 -3.75 0
    endloop
  endfacet
  facet normal 0 0 -1
    outer loop
      vertex 4.5 0 0
      vertex 7.5 0 0
      vertex 4.11095 -1.83031 0
    endloop
  endfacet
  facet normal 0 0 -1
    outer loop
      vertex -3.64058 2.64503 0
      vertex 0 7.5 0
      vertex -2.25 3.89711 0
    endloop
  endfacet
  facet normal 0 0 -1
    outer loop
      vertex -7.24444 -1.94114 0
      vertex 0 7.5 0
      vertex -3.64058 2.64503 0
    endloop
  endfacet
  facet normal 0 0 -1
    outer loop
      vertex -7.24444 -1.94114 0
      vertex -3.64058 2.64503 0
      vertex -4.40166 0.935603 0
    endloop
  endfacet
  facet normal 0 0 -1
    outer loop
      vertex -4.40166 -0.935603 0
      vertex -7.24444 -1.94114 0
      vertex -4.40166 0.935603 0
    endloop
  endfacet
  facet normal 0 0 -1
    outer loop
      vertex -2.25 3.89711 0
      vertex 1.94114 7.24444 0
      vertex -0.470378 4.47535 0
    endloop
  endfacet
  facet normal -0 0 -1
    outer loop
      vertex -0.470378 4.47535 0
      vertex 3.75 6.49519 0
      vertex 1.39058 4.27975 0
    endloop
  endfacet
  facet normal -0 0 -1
    outer loop
      vertex 1.39058 4.27975 0
      vertex 5.3033 5.3033 0
      vertex 3.01109 3.34415 0
    endloop
  endfacet
  facet normal -0.991445 0.130526 0
    outer loop
      vertex -7.5 0 0
      vertex -7.5 0 20
      vertex -7.24444 1.94114 0
    endloop
  endfacet
  facet normal -0.991445 0.130526 0
    outer loop
      vertex -7.24444 1.94114 0
      vertex -7.5 0 20
      vertex -7.24444 1.94114 20
    endloop
  endfacet
  facet normal -0.991445 -0.130526 -0
    outer loop
      vertex -7.5 0 0
      vertex -7.24444 -1.94114 0
      vertex -7.5 0 20
    endloop
  endfacet
  facet normal -0.991445 -0.130526 0
    outer loop
      vertex -7.5 0 20
      vertex -7.24444 -1.94114 0
      vertex -7.24444 -1.94114 20
    endloop
  endfacet
  facet normal -0.92388 -0.382683 -0
    outer loop
      vertex -7.24444 -1.94114 0
      vertex -6.49519 -3.75 0
      vertex -7.24444 -1.94114 20
    endloop
  endfacet
  facet normal -0.92388 -0.382683 0
    outer loop
      vertex -7.24444 -1.94114 20
      vertex -6.49519 -3.75 0
      vertex -6.49519 -3.75 20
    endloop
  endfacet
  facet normal -0.793353 -0.608762 -0
    outer loop
      vertex -6.49519 -3.75 0
      vertex -5.3033 -5.3033 0
      vertex -6.49519 -3.75 20
    endloop
  endfacet
  facet normal -0.793353 -0.608762 0
    outer loop
      vertex -6.49519 -3.75 20
      vertex -5.3033 -5.3033 0
      vertex -5.3033 -5.3033 20
    endloop
  endfacet
  facet normal -0.608762 -0.793353 0
    outer loop
      vertex -5.3033 -5.3033 20
      vertex -5.3033 -5.3033 0
      vertex -3.75 -6.49519 0
    endloop
  endfacet
  facet normal -0.608762 -0.793353 0
    outer loop
      vertex -3.75 -6.49519 20
      vertex -5.3033 -5.3033 20
      vertex -3.75 -6.49519 0
    endloop
  endfacet
  facet normal -0.382683 -0.92388 0
    outer loop
      vertex -3.75 -6.49519 20
      vertex -3.75 -6.49519 0
      vertex -1.94114 -7.24444 0
    endloop
  endfacet
  facet normal -0.382683 -0.92388 0
    outer loop
      vertex -1.94114 -7.24444 20
      vertex -3.75 -6.49519 20
      vertex -1.94114 -7.24444 0
    endloop
  endfacet
  facet normal -0.130526 -0.991445 0
    outer loop
      vertex -1.94114 -7.24444 20
      vertex -1.94114 -7.24444 0
      vertex 0 -7.5 0
    endloop
  endfacet
  facet normal -0.130526 -0.991445 0
    outer loop
      vertex 0 -7.5 20
      vertex -1.94114 -7.24444 20
      vertex 0 -7.5 0
    endloop
  endfacet
  facet normal 0.130526 -0.991445 0
    outer loop
      vertex 0 -7.5 20
      vertex 0 -7.5 0
      vertex 1.94114 -7.24444 0
    endloop
  endfacet
  facet normal 0.130526 -0.991445 0
    outer loop
      vertex 1.94114 -7.24444 20
      vertex 0 -7.5 20
      vertex 1.94114 -7.24444 0
    endloop
  endfacet
  facet normal 0.382683 -0.92388 0
    outer loop
      vertex 1.94114 -7.24444 20
      vertex 1.94114 -7.24444 0
      vertex 3.75 -6.49519 0
    endloop
  endfacet
  facet normal 0.382683 -0.92388 0
    outer loop
      vertex 3.75 -6.49519 20
      vertex 1.94114 -7.24444 20
      vertex 3.75 -6.49519 0
    endloop
  endfacet
  facet normal 0.608762 -0.793353 0
    outer loop
      vertex 3.75 -6.49519 20
      vertex 3.75 -6.49519 0
      vertex 5.3033 -5.3033 0
    endloop
  endfacet
  facet normal 0.608762 -0.793353 0
    outer loop
      vertex 5.3033 -5.3033 20
      vertex 3.75 -6.49519 20
      vertex 5.3033 -5.3033 0
    endloop
  endfacet
  facet normal 0.793353 -0.608762 0
    outer loop
      vertex 5.3033 -5.3033 20
      vertex 5.3033 -5.3033 0
      vertex 6.49519 -3.75 0
    endloop
  endfacet
  facet normal 0.793353 -0.608762 0
    outer loop
      vertex 6.49519 -3.75 20
      vertex 5.3033 -5.3033 20
      vertex 6.49519 -3.75 0
    endloop
  endfacet
  facet normal 0.92388 -0.382683 0
    outer loop
      vertex 6.49519 -3.75 20
      vertex 6.49519 -3.75 0
      vertex 7.24444 -1.94114 0
    endloop
  endfacet
  facet normal 0.92388 -0.382683 0
    outer loop
      vertex 7.24444 -1.94114 20
      vertex 6.49519 -3.75 20
      vertex 7.24444 -1.94114 0
    endloop
  endfacet
  facet normal 0.991445 -0.130526 0
    outer loop
      vertex 7.24444 -1.94114 20
      vertex 7.24444 -1.94114 0
      vertex 7.5 0 0
    endloop
  endfacet
  facet normal 0.991445 -0.130526 0
    outer loop
      vertex 7.5 0 20
      vertex 7.24444 -1.94114 20
      vertex 7.5 0 0
    endloop
  endfacet
  facet normal 0.991445 0.130526 0
    outer loop
      vertex 7.5 0 0
      vertex 7.24444 1.94114 0
      vertex 7.24444 1.94114 20
    endloop
  endfacet
  facet normal 0.991445 0.130526 -0
    outer loop
      vertex 7.5 0 20
      vertex 7.5 0 0
      vertex 7.24444 1.94114 20
    endloop
  endfacet
  facet normal 0.92388 0.382683 0
    outer loop
      vertex 7.24444 1.94114 0
      vertex 6.49519 3.75 0
      vertex 6.49519 3.75 20
    endloop
  endfacet
  facet normal 0.92388 0.382683 -0
    outer loop
      vertex 7.24444 1.94114 20
      vertex 7.24444 1.94114 0
      vertex 6.49519 3.75 20
    endloop
  endfacet
  facet normal 0.793353 0.608762 0
    outer loop
      vertex 6.49519 3.75 0
      vertex 5.3033 5.3033 0
      vertex 5.3033 5.3033 20
    endloop
  endfacet
  facet normal 0.793353 0.608762 -0
    outer loop
      vertex 6.49519 3.75 20
      vertex 6.49519 3.75 0
      vertex 5.3033 5.3033 20
    endloop
  endfacet
  facet normal 0.608762 0.793353 0
    outer loop
      vertex 3.75 6.49519 0
      vertex 3.75 6.49519 20
      vertex 5.3033 5.3033 0
    endloop
  endfacet
  facet normal 0.608762 0.793353 0
    outer loop
      vertex 5.3033 5.3033 0
      vertex 3.75 6.49519 20
      vertex 5.3033 5.3033 20
    endloop
  endfacet
  facet normal 0.382683 0.92388 0
    outer loop
      vertex 1.94114 7.24444 0
      vertex 1.94114 7.24444 20
      vertex 3.75 6.49519 0
    endloop
  endfacet
  facet normal 0.382683 0.92388 0
    outer loop
      vertex 3.75 6.49519 0
      vertex 1.94114 7.24444 20
      vertex 3.75 6.49519 20
    endloop
  endfacet
  facet normal 0.130526 0.991445 0
    outer loop
      vertex 0 7.5 0
      vertex 0 7.5 20
      vertex 1.94114 7.24444 0
    endloop
  endfacet
  facet normal 0.130526 0.991445 0
    outer loop
      vertex 1.94114 7.24444 0
      vertex 0 7.5 20
      vertex 1.94114 7.24444 20
    endloop
  endfacet
  facet normal -0.130526 0.991445 0
    outer loop
      vertex -1.94114 7.24444 0
      vertex -1.94114 7.24444 20
      vertex 0 7.5 0
    endloop
  endfacet
  facet normal -0.130526 0.991445 0
    outer loop
      vertex 0 7.5 0
      vertex -1.94114 7.24444 20
      vertex 0 7.5 20
    endloop
  endfacet
  facet normal -0.382683 0.92388 0
    outer loop
      vertex -3.75 6.49519 0
      vertex -3.75 6.49519 20
      vertex -1.94114 7.24444 0
    endloop
  endfacet
  facet normal -0.382683 0.92388 0
    outer loop
      vertex -1.94114 7.24444 0
      vertex -3.75 6.49519 20
      vertex -1.94114 7.24444 20
    endloop
  endfacet
  facet normal -0.608762 0.793353 0
    outer loop
      vertex -5.3033 5.3033 0
      vertex -5.3033 5.3033 20
      vertex -3.75 6.49519 0
    endloop
  endfacet
  facet normal -0.608762 0.793353 0
    outer loop
      vertex -3.75 6.49519 0
      vertex -5.3033 5.3033 20
      vertex -3.75 6.49519 20
    endloop
  endfacet
  facet normal -0.793353 0.608762 0
    outer loop
      vertex -6.49519 3.75 0
      vertex -6.49519 3.75 20
      vertex -5.3033 5.3033 0
    endloop
  endfacet
  facet normal -0.793353 0.608762 0
    outer loop
      vertex -5.3033 5.3033 0
      vertex -6.49519 3.75 20
      vertex -5.3033 5.3033 20
    endloop
  endfacet
  facet normal -0.92388 0.382683 0
    outer loop
      vertex -7.24444 1.94114 0
      vertex -7.24444 1.94114 20
      vertex -6.49519 3.75 0
    endloop
  endfacet
  facet normal -0.92388 0.382683 0
    outer loop
      vertex -6.49519 3.75 0
      vertex -7.24444 1.94114 20
      vertex -6.49519 3.75 20
    endloop
  endfacet
  facet normal 1 0 0
    outer loop
      vertex -4.40166 0.935603 0
      vertex -4.40166 0.935603 16
      vertex -4.40166 -0.935603 16
    endloop
  endfacet
  facet normal 1 0 0
    outer loop
      vertex -4.40166 -0.935603 0
      vertex -4.40166 0.935603 0
      vertex -4.40166 -0.935603 16
    endloop
  endfacet
  facet normal 0.913545 -0.406737 0
    outer loop
      vertex -3.64058 2.64503 0
      vertex -3.64058 2.64503 16
      vertex -4.40166 0.935603 16
    endloop
  endfacet
  facet normal 0.913545 -0.406737 0
    outer loop
      vertex -4.40166 0.935603 0
      vertex -3.64058 2.64503 0
      vertex -4.40166 0.935603 16
    endloop
  endfacet
  facet normal 0.669131 -0.743145 0
    outer loop
      vertex -2.25 3.89711 0
      vertex -2.25 3.89711 16
      vertex -3.64058 2.64503 16
    endloop
  endfacet
  facet normal 0.669131 -0.743145 0
    outer loop
      vertex -3.64058 2.64503 0
      vertex -2.25 3.89711 0
      vertex -3.64058 2.64503 16
    endloop
  endfacet
  facet normal 0.309017 -0.951056 0
    outer loop
      vertex -0.470378 4.47535 0
      vertex -0.470378 4.47535 16
      vertex -2.25 3.89711 16
    endloop
  endfacet
  facet normal 0.309017 -0.951056 0
    outer loop
      vertex -2.25 3.89711 0
      vertex -0.470378 4.47535 0
      vertex -2.25 3.89711 16
    endloop
  endfacet
  facet normal -0.104529 -0.994522 -0
    outer loop
      vertex 1.39058 4.27975 0
      vertex 1.39058 4.27975 16
      vertex -0.470378 4.47535 16
    endloop
  endfacet
  facet normal -0.104529 -0.994522 -0
    outer loop
      vertex -0.470378 4.47535 0
      vertex 1.39058 4.27975 0
      vertex -0.470378 4.47535 16
    endloop
  endfacet
  facet normal -0.5 -0.866026 -0
    outer loop
      vertex 3.01109 3.34415 0
      vertex 3.01109 3.34415 16
      vertex 1.39058 4.27975 16
    endloop
  endfacet
  facet normal -0.5 -0.866026 -0
    outer loop
      vertex 1.39058 4.27975 0
      vertex 3.01109 3.34415 0
      vertex 1.39058 4.27975 16
    endloop
  endfacet
  facet normal -0.809017 -0.587785 0
    outer loop
      vertex 4.11095 1.83031 16
      vertex 3.01109 3.34415 16
      vertex 4.11095 1.83031 0
    endloop
  endfacet
  facet normal -0.809017 -0.587785 0
    outer loop
      vertex 4.11095 1.83031 0
      vertex 3.01109 3.34415 16
      vertex 3.01109 3.34415 0
    endloop
  endfacet
  facet normal -0.978148 -0.207911 0
    outer loop
      vertex 4.5 0 16
      vertex 4.11095 1.83031 16
      vertex 4.5 0 0
    endloop
  endfacet
  facet normal -0.978148 -0.207911 0
    outer loop
      vertex 4.5 0 0
      vertex 4.11095 1.83031 16
      vertex 4.11095 1.83031 0
    endloop
  endfacet
  facet normal -0.978148 0.207911 0
    outer loop
      vertex 4.5 0 16
      vertex 4.5 0 0
      vertex 4.11095 -1.83031 16
    endloop
  endfacet
  facet normal -0.978148 0.207911 0
    outer loop
      vertex 4.11095 -1.83031 16
      vertex 4.5 0 0
      vertex 4.11095 -1.83031 0
    endloop
  endfacet
  facet normal -0.809017 0.587785 0
    outer loop
      vertex 4.11095 -1.83031 16
      vertex 4.11095 -1.83031 0
      vertex 3.01109 -3.34415 16
    endloop
  endfacet
  facet normal -0.809017 0.587785 0
    outer loop
      vertex 3.01109 -3.34415 16
      vertex 4.11095 -1.83031 0
      vertex 3.01109 -3.34415 0
    endloop
  endfacet
  facet normal -0.5 0.866026 0
    outer loop
      vertex 3.01109 -3.34415 16
      vertex 3.01109 -3.34415 0
      vertex 1.39058 -4.27975 16
    endloop
  endfacet
  facet normal -0.5 0.866026 0
    outer loop
      vertex 1.39058 -4.27975 16
      vertex 3.01109 -3.34415 0
      vertex 1.39058 -4.27975 0
    endloop
  endfacet
  facet normal -0.104529 0.994522 0
    outer loop
      vertex 1.39058 -4.27975 16
      vertex 1.39058 -4.27975 0
      vertex -0.470378 -4.47535 16
    endloop
  endfacet
  facet normal -0.104529 0.994522 0
    outer loop
      vertex -0.470378 -4.47535 16
      vertex 1.39058 -4.27975 0
      vertex -0.470378 -4.47535 0
    endloop
  endfacet
  facet normal 0.309017 0.951056 -0
    outer loop
      vertex -0.470378 -4.47535 16
      vertex -0.470378 -4.47535 0
      vertex -2.25 -3.89711 16
    endloop
  endfacet
  facet normal 0.309017 0.951056 -0
    outer loop
      vertex -2.25 -3.89711 16
      vertex -0.470378 -4.47535 0
      vertex -2.25 -3.89711 0
    endloop
  endfacet
  facet normal 0.669131 0.743145 -0
    outer loop
      vertex -2.25 -3.89711 16
      vertex -2.25 -3.89711 0
      vertex -3.64058 -2.64503 16
    endloop
  endfacet
  facet normal 0.669131 0.743145 -0
    outer loop
      vertex -3.64058 -2.64503 16
      vertex -2.25 -3.89711 0
      vertex -3.64058 -2.64503 0
    endloop
  endfacet
  facet normal 0.913545 0.406737 0
    outer loop
      vertex -4.40166 -0.935603 16
      vertex -3.64058 -2.64503 16
      vertex -3.64058 -2.64503 0
    endloop
  endfacet
  facet normal 0.913545 0.406737 0
    outer loop
      vertex -4.40166 -0.935603 0
      vertex -4.40166 -0.935603 16
      vertex -3.64058 -2.64503 0
    endloop
  endfacet
  facet normal 0 0 1
    outer loop
      vertex -7.24444 1.94114 20
      vertex -7.5 0 20
      vertex -7.24444 -1.94114 20
    endloop
  endfacet
  facet normal 0 0 1
    outer loop
      vertex -5.3033 -5.3033 20
      vertex -7.24444 1.94114 20
      vertex -6.49519 -3.75 20
    endloop
  endfacet
  facet normal 0 0 1
    outer loop
      vertex -6.49519 -3.75 20
      vertex -7.24444 1.94114 20
      vertex -7.24444 -1.94114 20
    endloop
  endfacet
  facet normal 0 0 1
    outer loop
      vertex -3.75 -6.49519 20
      vertex -7.24444 1.94114 20
      vertex -5.3033 -5.3033 20
    endloop
  endfacet
  facet normal 0 0 1
    outer loop
      vertex -1.94114 -7.24444 20
      vertex -7.24444 1.94114 20
      vertex -3.75 -6.49519 20
    endloop
  endfacet
  facet normal 0 0 1
    outer loop
      vertex 0 -7.5 20
      vertex -7.24444 1.94114 20
      vertex -1.94114 -7.24444 20
    endloop
  endfacet
  facet normal -0 0 1
    outer loop
      vertex 1.94114 -7.24444 20
      vertex -7.24444 1.94114 20
      vertex 0 -7.5 20
    endloop
  endfacet
  facet normal -0 0 1
    outer loop
      vertex 3.75 -6.49519 20
      vertex -7.24444 1.94114 20
      vertex 1.94114 -7.24444 20
    endloop
  endfacet
  facet normal -0 0 1
    outer loop
      vertex 5.3033 -5.3033 20
      vertex -7.24444 1.94114 20
      vertex 3.75 -6.49519 20
    endloop
  endfacet
  facet normal -0 -0 1
    outer loop
      vertex -0.445042 -1.94986 20
      vertex -7.24444 1.94114 20
      vertex 5.3033 -5.3033 20
    endloop
  endfacet
  facet normal 0 -0 1
    outer loop
      vertex 2 0 20
      vertex 1.24698 -1.56366 20
      vertex 7.24444 -1.94114 20
    endloop
  endfacet
  facet normal 0 0 1
    outer loop
      vertex -0.445042 1.94986 20
      vertex 1.24698 1.56366 20
      vertex 7.24444 1.94114 20
    endloop
  endfacet
  facet normal 0 0 1
    outer loop
      vertex 1.24698 1.56366 20
      vertex 2 0 20
      vertex 7.5 0 20
    endloop
  endfacet
  facet normal 0 -0 1
    outer loop
      vertex 5.3033 5.3033 20
      vertex -7.24444 1.94114 20
      vertex 6.49519 3.75 20
    endloop
  endfacet
  facet normal 0 -0 1
    outer loop
      vertex 3.75 6.49519 20
      vertex -7.24444 1.94114 20
      vertex 5.3033 5.3033 20
    endloop
  endfacet
  facet normal 0 -0 1
    outer loop
      vertex 1.94114 7.24444 20
      vertex -7.24444 1.94114 20
      vertex 3.75 6.49519 20
    endloop
  endfacet
  facet normal 0 -0 1
    outer loop
      vertex 0 7.5 20
      vertex -7.24444 1.94114 20
      vertex 1.94114 7.24444 20
    endloop
  endfacet
  facet normal 0 -0 1
    outer loop
      vertex -1.94114 7.24444 20
      vertex -7.24444 1.94114 20
      vertex 0 7.5 20
    endloop
  endfacet
  facet normal 0 -0 1
    outer loop
      vertex -3.75 6.49519 20
      vertex -7.24444 1.94114 20
      vertex -1.94114 7.24444 20
    endloop
  endfacet
  facet normal 0 -0 1
    outer loop
      vertex -5.3033 5.3033 20
      vertex -7.24444 1.94114 20
      vertex -3.75 6.49519 20
    endloop
  endfacet
  facet normal 0 -0 1
    outer loop
      vertex -6.49519 3.75 20
      vertex -7.24444 1.94114 20
      vertex -5.3033 5.3033 20
    endloop
  endfacet
  facet normal 0 0 1
    outer loop
      vertex -1.80194 0.867767 20
      vertex -0.445042 1.94986 20
      vertex -7.24444 1.94114 20
    endloop
  endfacet
  facet normal 0 0 1
    outer loop
      vertex 1.24698 -1.56366 20
      vertex 5.3033 -5.3033 20
      vertex 6.49519 -3.75 20
    endloop
  endfacet
  facet normal 0 -0 1
    outer loop
      vertex 6.49519 3.75 20
      vertex -0.445042 1.94986 20
      vertex 7.24444 1.94114 20
    endloop
  endfacet
  facet normal 0 0 1
    outer loop
      vertex 6.49519 3.75 20
      vertex -7.24444 1.94114 20
      vertex -0.445042 1.94986 20
    endloop
  endfacet
  facet normal 0 -0 1
    outer loop
      vertex 7.24444 1.94114 20
      vertex 1.24698 1.56366 20
      vertex 7.5 0 20
    endloop
  endfacet
  facet normal 0 0 1
    outer loop
      vertex 7.5 0 20
      vertex 2 0 20
      vertex 7.24444 -1.94114 20
    endloop
  endfacet
  facet normal -0 0 1
    outer loop
      vertex 7.24444 -1.94114 20
      vertex 1.24698 -1.56366 20
      vertex 6.49519 -3.75 20
    endloop
  endfacet
  facet normal 0 -0 1
    outer loop
      vertex 1.24698 -1.56366 20
      vertex -0.445042 -1.94986 20
      vertex 5.3033 -5.3033 20
    endloop
  endfacet
  facet normal -0 -0 1
    outer loop
      vertex -1.80194 -0.867767 20
      vertex -7.24444 1.94114 20
      vertex -0.445042 -1.94986 20
    endloop
  endfacet
  facet normal 0 0 1
    outer loop
      vertex -1.80194 -0.867767 20
      vertex -1.80194 0.867767 20
      vertex -7.24444 1.94114 20
    endloop
  endfacet
  facet normal -0 -0 -1
    outer loop
      vertex -4.40166 -0.935603 16
      vertex -4.40166 0.935603 16
      vertex -3.64058 -2.64503 16
    endloop
  endfacet
  facet normal 0 0 -1
    outer loop
      vertex -3.64058 -2.64503 16
      vertex -4.40166 0.935603 16
      vertex -3.64058 2.64503 16
    endloop
  endfacet
  facet normal 0 -0 -1
    outer loop
      vertex -3.11835 0.915631 16
      vertex -3.64058 2.64503 16
      vertex -2.25 3.89711 16
    endloop
  endfacet
  facet normal 0 -0 -1
    outer loop
      vertex -2.1283 2.45619 16
      vertex -2.25 3.89711 16
      vertex -0.470378 4.47535 16
    endloop
  endfacet
  facet normal 0 -0 -1
    outer loop
      vertex -0.462523 3.21692 16
      vertex -0.470378 4.47535 16
      vertex 1.39058 4.27975 16
    endloop
  endfacet
  facet normal 0 0 -1
    outer loop
      vertex 1.3501 2.9563 16
      vertex 1.39058 4.27975 16
      vertex 3.01109 3.34415 16
    endloop
  endfacet
  facet normal 0 0 -1
    outer loop
      vertex 2.73407 1.75708 16
      vertex 3.01109 3.34415 16
      vertex 4.11095 1.83031 16
    endloop
  endfacet
  facet normal -0 0 -1
    outer loop
      vertex 3.25 0 16
      vertex 4.11095 1.83031 16
      vertex 4.5 0 16
    endloop
  endfacet
  facet normal -0 0 -1
    outer loop
      vertex 2.73407 -1.75708 16
      vertex 4.5 0 16
      vertex 4.11095 -1.83031 16
    endloop
  endfacet
  facet normal -0 0 -1
    outer loop
      vertex 1.3501 -2.9563 16
      vertex 4.11095 -1.83031 16
      vertex 3.01109 -3.34415 16
    endloop
  endfacet
  facet normal 0 0 -1
    outer loop
      vertex -0.462523 -3.21692 16
      vertex 3.01109 -3.34415 16
      vertex 1.39058 -4.27975 16
    endloop
  endfacet
  facet normal 0 0 -1
    outer loop
      vertex -3.64058 -2.64503 16
      vertex 1.39058 -4.27975 16
      vertex -0.470378 -4.47535 16
    endloop
  endfacet
  facet normal 0 0 -1
    outer loop
      vertex -3.64058 -2.64503 16
      vertex -0.470378 -4.47535 16
      vertex -2.25 -3.89711 16
    endloop
  endfacet
  facet normal 0 -0 -1
    outer loop
      vertex -3.64058 -2.64503 16
      vertex -3.64058 2.64503 16
      vertex -3.11835 0.915631 16
    endloop
  endfacet
  facet normal 0 0 -1
    outer loop
      vertex -3.11835 -0.915631 16
      vertex -3.64058 -2.64503 16
      vertex -3.11835 0.915631 16
    endloop
  endfacet
  facet normal 0 0 -1
    outer loop
      vertex -0.462523 -3.21692 16
      vertex -3.64058 -2.64503 16
      vertex -2.1283 -2.45619 16
    endloop
  endfacet
  facet normal 0 0 -1
    outer loop
      vertex 1.3501 -2.9563 16
      vertex 3.01109 -3.34415 16
      vertex -0.462523 -3.21692 16
    endloop
  endfacet
  facet normal 0 0 -1
    outer loop
      vertex -3.64058 -2.64503 16
      vertex -0.462523 -3.21692 16
      vertex 1.39058 -4.27975 16
    endloop
  endfacet
  facet normal 0 0 -1
    outer loop
      vertex 3.25 0 16
      vertex 4.5 0 16
      vertex 2.73407 -1.75708 16
    endloop
  endfacet
  facet normal 0 0 -1
    outer loop
      vertex 2.73407 -1.75708 16
      vertex 4.11095 -1.83031 16
      vertex 1.3501 -2.9563 16
    endloop
  endfacet
  facet normal 0 0 -1
    outer loop
      vertex -2.1283 2.45619 16
      vertex -0.470378 4.47535 16
      vertex -0.462523 3.21692 16
    endloop
  endfacet
  facet normal 0 0 -1
    outer loop
      vertex -3.11835 0.915631 16
      vertex -2.25 3.89711 16
      vertex -2.1283 2.45619 16
    endloop
  endfacet
  facet normal 0 0 -1
    outer loop
      vertex -2.1283 -2.45619 16
      vertex -3.64058 -2.64503 16
      vertex -3.11835 -0.915631 16
    endloop
  endfacet
  facet normal -0 0 -1
    outer loop
      vertex -0.462523 3.21692 16
      vertex 1.39058 4.27975 16
      vertex 1.3501 2.9563 16
    endloop
  endfacet
  facet normal -0 0 -1
    outer loop
      vertex 1.3501 2.9563 16
      vertex 3.01109 3.34415 16
      vertex 2.73407 1.75708 16
    endloop
  endfacet
  facet normal -0 0 -1
    outer loop
      vertex 2.73407 1.75708 16
      vertex 4.11095 1.83031 16
      vertex 3.25 0 16
    endloop
  endfacet
  facet normal 1 0 0
    outer loop
      vertex -1.80194 0.867767 18
      vertex -1.80194 0.867767 20
      vertex -1.80194 -0.867767 20
    endloop
  endfacet
  facet normal 1 0 0
    outer loop
      vertex -1.80194 -0.867767 18
      vertex -1.80194 0.867767 18
      vertex -1.80194 -0.867767 20
    endloop
  endfacet
  facet normal 0.62349 0.781831 -0
    outer loop
      vertex -0.445042 -1.94986 20
      vertex -0.445042 -1.94986 18
      vertex -1.80194 -0.867767 20
    endloop
  endfacet
  facet normal 0.62349 0.781831 -0
    outer loop
      vertex -1.80194 -0.867767 20
      vertex -0.445042 -1.94986 18
      vertex -1.80194 -0.867767 18
    endloop
  endfacet
  facet normal -0.222521 0.974928 0
    outer loop
      vertex 1.24698 -1.56366 20
      vertex 1.24698 -1.56366 18
      vertex -0.445042 -1.94986 20
    endloop
  endfacet
  facet normal -0.222521 0.974928 0
    outer loop
      vertex -0.445042 -1.94986 20
      vertex 1.24698 -1.56366 18
      vertex -0.445042 -1.94986 18
    endloop
  endfacet
  facet normal -0.900969 0.433884 0
    outer loop
      vertex 2 0 20
      vertex 2 0 18
      vertex 1.24698 -1.56366 20
    endloop
  endfacet
  facet normal -0.900969 0.433884 0
    outer loop
      vertex 1.24698 -1.56366 20
      vertex 2 0 18
      vertex 1.24698 -1.56366 18
    endloop
  endfacet
  facet normal -0.900969 -0.433884 0
    outer loop
      vertex 2 0 20
      vertex 1.24698 1.56366 20
      vertex 2 0 18
    endloop
  endfacet
  facet normal -0.900969 -0.433884 0
    outer loop
      vertex 2 0 18
      vertex 1.24698 1.56366 20
      vertex 1.24698 1.56366 18
    endloop
  endfacet
  facet normal -0.222521 -0.974928 -0
    outer loop
      vertex 1.24698 1.56366 18
      vertex 1.24698 1.56366 20
      vertex -0.445042 1.94986 20
    endloop
  endfacet
  facet normal -0.222521 -0.974928 -0
    outer loop
      vertex -0.445042 1.94986 18
      vertex 1.24698 1.56366 18
      vertex -0.445042 1.94986 20
    endloop
  endfacet
  facet normal 0.62349 -0.781831 0
    outer loop
      vertex -0.445042 1.94986 18
      vertex -0.445042 1.94986 20
      vertex -1.80194 0.867767 20
    endloop
  endfacet
  facet normal 0.62349 -0.781831 0
    outer loop
      vertex -1.80194 0.867767 18
      vertex -0.445042 1.94986 18
      vertex -1.80194 0.867767 20
    endloop
  endfacet
  facet normal 1 0 0
    outer loop
      vertex -3.11835 0.915631 16
      vertex -3.11835 0.915631 18
      vertex -3.11835 -0.915631 18
    endloop
  endfacet
  facet normal 1 0 0
    outer loop
      vertex -3.11835 -0.915631 16
      vertex -3.11835 0.915631 16
      vertex -3.11835 -0.915631 18
    endloop
  endfacet
  facet normal 0.841253 -0.540641 0
    outer loop
      vertex -2.1283 2.45619 16
      vertex -2.1283 2.45619 18
      vertex -3.11835 0.915631 18
    endloop
  endfacet
  facet normal 0.841253 -0.540641 0
    outer loop
      vertex -3.11835 0.915631 16
      vertex -2.1283 2.45619 16
      vertex -3.11835 0.915631 18
    endloop
  endfacet
  facet normal 0.415415 -0.909632 0
    outer loop
      vertex -0.462523 3.21692 16
      vertex -0.462523 3.21692 18
      vertex -2.1283 2.45619 18
    endloop
  endfacet
  facet normal 0.415415 -0.909632 0
    outer loop
      vertex -2.1283 2.45619 16
      vertex -0.462523 3.21692 16
      vertex -2.1283 2.45619 18
    endloop
  endfacet
  facet normal -0.142315 -0.989821 -0
    outer loop
      vertex 1.3501 2.9563 16
      vertex 1.3501 2.9563 18
      vertex -0.462523 3.21692 18
    endloop
  endfacet
  facet normal -0.142315 -0.989821 -0
    outer loop
      vertex -0.462523 3.21692 16
      vertex 1.3501 2.9563 16
      vertex -0.462523 3.21692 18
    endloop
  endfacet
  facet normal -0.654861 -0.75575 -0
    outer loop
      vertex 2.73407 1.75708 16
      vertex 2.73407 1.75708 18
      vertex 1.3501 2.9563 18
    endloop
  endfacet
  facet normal -0.654861 -0.75575 -0
    outer loop
      vertex 1.3501 2.9563 16
      vertex 2.73407 1.75708 16
      vertex 1.3501 2.9563 18
    endloop
  endfacet
  facet normal -0.959493 -0.281732 0
    outer loop
      vertex 3.25 0 18
      vertex 2.73407 1.75708 18
      vertex 3.25 0 16
    endloop
  endfacet
  facet normal -0.959493 -0.281732 0
    outer loop
      vertex 3.25 0 16
      vertex 2.73407 1.75708 18
      vertex 2.73407 1.75708 16
    endloop
  endfacet
  facet normal -0.959493 0.281732 0
    outer loop
      vertex 3.25 0 18
      vertex 3.25 0 16
      vertex 2.73407 -1.75708 18
    endloop
  endfacet
  facet normal -0.959493 0.281732 0
    outer loop
      vertex 2.73407 -1.75708 18
      vertex 3.25 0 16
      vertex 2.73407 -1.75708 16
    endloop
  endfacet
  facet normal -0.654861 0.75575 0
    outer loop
      vertex 2.73407 -1.75708 18
      vertex 2.73407 -1.75708 16
      vertex 1.3501 -2.9563 18
    endloop
  endfacet
  facet normal -0.654861 0.75575 0
    outer loop
      vertex 1.3501 -2.9563 18
      vertex 2.73407 -1.75708 16
      vertex 1.3501 -2.9563 16
    endloop
  endfacet
  facet normal -0.142315 0.989821 0
    outer loop
      vertex 1.3501 -2.9563 18
      vertex 1.3501 -2.9563 16
      vertex -0.462523 -3.21692 18
    endloop
  endfacet
  facet normal -0.142315 0.989821 0
    outer loop
      vertex -0.462523 -3.21692 18
      vertex 1.3501 -2.9563 16
      vertex -0.462523 -3.21692 16
    endloop
  endfacet
  facet normal 0.415415 0.909632 -0
    outer loop
      vertex -0.462523 -3.21692 18
      vertex -0.462523 -3.21692 16
      vertex -2.1283 -2.45619 18
    endloop
  endfacet
  facet normal 0.415415 0.909632 -0
    outer loop
      vertex -2.1283 -2.45619 18
      vertex -0.462523 -3.21692 16
      vertex -2.1283 -2.45619 16
    endloop
  endfacet
  facet normal 0.841253 0.540641 0
    outer loop
      vertex -3.11835 -0.915631 18
      vertex -2.1283 -2.45619 18
      vertex -2.1283 -2.45619 16
    endloop
  endfacet
  facet normal 0.841253 0.540641 0
    outer loop
      vertex -3.11835 -0.915631 16
      vertex -3.11835 -0.915631 18
      vertex -2.1283 -2.45619 16
    endloop
  endfacet
  facet normal -0 0 -1
    outer loop
      vertex -2.1283 2.45619 18
      vertex -0.462523 3.21692 18
      vertex -3.11835 0.915631 18
    endloop
  endfacet
  facet normal 0 0 -1
    outer loop
      vertex -3.11835 0.915631 18
      vertex -0.462523 3.21692 18
      vertex 1.3501 2.9563 18
    endloop
  endfacet
  facet normal 0 0 -1
    outer loop
      vertex 1.24698 1.56366 18
      vertex 1.3501 2.9563 18
      vertex 2.73407 1.75708 18
    endloop
  endfacet
  facet normal 0 0 -1
    outer loop
      vertex 2 0 18
      vertex 3.25 0 18
      vertex 2.73407 -1.75708 18
    endloop
  endfacet
  facet normal 0 0 -1
    outer loop
      vertex 1.24698 -1.56366 18
      vertex 2.73407 -1.75708 18
      vertex 1.3501 -2.9563 18
    endloop
  endfacet
  facet normal 0 0 -1
    outer loop
      vertex -0.445042 -1.94986 18
      vertex 1.3501 -2.9563 18
      vertex -0.462523 -3.21692 18
    endloop
  endfacet
  facet normal 0 0 -1
    outer loop
      vertex -3.11835 0.915631 18
      vertex -0.462523 -3.21692 18
      vertex -2.1283 -2.45619 18
    endloop
  endfacet
  facet normal 0 0 -1
    outer loop
      vertex -3.11835 0.915631 18
      vertex -2.1283 -2.45619 18
      vertex -3.11835 -0.915631 18
    endloop
  endfacet
  facet normal 0 0 -1
    outer loop
      vertex 1.24698 -1.56366 18
      vertex 1.3501 -2.9563 18
      vertex -0.445042 -1.94986 18
    endloop
  endfacet
  facet normal 0 0 -1
    outer loop
      vertex -3.11835 0.915631 18
      vertex -1.80194 -0.867767 18
      vertex -0.462523 -3.21692 18
    endloop
  endfacet
  facet normal 0 0 -1
    outer loop
      vertex -1.80194 -0.867767 18
      vertex -0.445042 -1.94986 18
      vertex -0.462523 -3.21692 18
    endloop
  endfacet
  facet normal -0 0 -1
    outer loop
      vertex -0.445042 1.94986 18
      vertex 1.3501 2.9563 18
      vertex 1.24698 1.56366 18
    endloop
  endfacet
  facet normal 0 -0 -1
    outer loop
      vertex -1.80194 0.867767 18
      vertex -3.11835 0.915631 18
      vertex -0.445042 1.94986 18
    endloop
  endfacet
  facet normal 0 0 -1
    outer loop
      vertex -3.11835 0.915631 18
      vertex 1.3501 2.9563 18
      vertex -0.445042 1.94986 18
    endloop
  endfacet
  facet normal 0 0 -1
    outer loop
      vertex -1.80194 -0.867767 18
      vertex -3.11835 0.915631 18
      vertex -1.80194 0.867767 18
    endloop
  endfacet
  facet normal -0 0 -1
    outer loop
      vertex 1.24698 1.56366 18
      vertex 2.73407 1.75708 18
      vertex 3.25 0 18
    endloop
  endfacet
  facet normal 0 0 -1
    outer loop
      vertex 1.24698 1.56366 18
      vertex 3.25 0 18
      vertex 2 0 18
    endloop
  endfacet
  facet normal 0 0 -1
    outer loop
      vertex 2 0 18
      vertex 2.73407 -1.75708 18
      vertex 1.24698 -1.56366 18
    endloop
  endfacet
endsolid OpenSCAD_Model
