solid Default
  facet normal 1.000000e+00 0.000000e+00 0.000000e+00
    outer loop
      vertex -1.666387e+01 6.724359e+00 2.000064e+01
      vertex -1.666387e+01 8.560879e+00 1.514681e+01
      vertex -1.666387e+01 8.560879e+00 2.000129e+01
    endloop
  endfacet
  facet normal 0.000000e+00 -1.000000e+00 -1.224647e-16
    outer loop
      vertex 1.726913e+00 2.117505e+00 4.585509e+00
      vertex 1.710629e+00 2.117505e+00 9.999999e+00
      vertex -9.753586e+00 2.117505e+00 9.999999e+00
    endloop
  endfacet
  facet normal -1.332174e-06 -2.373233e-06 -1.000000e+00
    outer loop
      vertex 1.166272e+00 7.617504e+00 6.484985e-04
      vertex -6.850361e+00 1.211751e+01 6.484985e-04
      vertex 4.952453e+00 9.705857e+00 6.389618e-04
    endloop
  endfacet
  facet normal -7.724109e-05 -1.337853e-04 1.000000e+00
    outer loop
      vertex 1.710629e+00 2.117505e+00 9.999999e+00
      vertex 6.336132e+00 4.230750e+00 1.000064e+01
      vertex 4.749772e+00 5.146637e+00 1.000064e+01
    endloop
  endfacet
  facet normal 1.000000e+00 0.000000e+00 0.000000e+00
    outer loop
      vertex 1.083613e+01 1.026109e+01 3.049250e+00
      vertex 1.083613e+01 1.211751e+01 6.484985e-04
      vertex 1.083613e+01 1.211751e+01 4.693179e+00
    endloop
  endfacet
  facet normal 4.998308e-01 8.661231e-01 2.421319e-05
    outer loop
      vertex -1.916452e+01 1.000426e+01 1.418915e+01
      vertex -1.775557e+01 9.191174e+00 1.394982e+01
      vertex -1.818221e+01 9.437494e+00 1.000064e+01
    endloop
  endfacet
  facet normal 0.000000e+00 -1.000000e+00 -1.224647e-16
    outer loop
      vertex 1.083621e+01 7.617504e+00 2.833309e+00
      vertex 1.166272e+00 7.617504e+00 6.484985e-04
      vertex 1.083613e+01 7.617504e+00 6.484985e-04
    endloop
  endfacet
  facet normal 0.000000e+00 1.000000e+00 1.224647e-16
    outer loop
      vertex -9.657818e+00 1.211751e+01 9.999999e+00
      vertex -1.147159e+01 1.211751e+01 4.511410e+00
      vertex -1.944219e+01 1.211751e+01 5.210269e+00
    endloop
  endfacet
  facet normal 0.000000e+00 -1.224647e-16 1.000000e+00
    outer loop
      vertex -1.666387e+01 6.875568e+00 1.000064e+01
      vertex -1.666387e+01 5.674131e+00 1.000064e+01
      vertex -9.957937e+00 6.473659e+00 1.000064e+01
    endloop
  endfacet
  facet normal 0.000000e+00 -1.000000e+00 -1.224647e-16
    outer loop
      vertex 3.762042e+00 2.117505e+00 6.484985e-04
      vertex 1.083613e+01 2.117505e+00 6.484985e-04
      vertex 1.083613e+01 2.117505e+00 4.168989e+00
    endloop
  endfacet
  facet normal -1.000000e+00 -0.000000e+00 0.000000e+00
    outer loop
      vertex -2.416387e+01 8.420212e+00 6.346649e+00
      vertex -2.416387e+01 6.288371e+00 9.999999e+00
      vertex -2.416387e+01 1.195621e+01 9.999999e+00
    endloop
  endfacet
  facet normal 1.827641e-07 -1.440169e-07 1.000000e+00
    outer loop
      vertex -1.974845e+01 7.362127e+00 2.000064e+01
      vertex -1.818221e+01 4.797515e+00 2.000064e+01
      vertex -1.666387e+01 6.724359e+00 2.000064e+01
    endloop
  endfacet
  facet normal 0.000000e+00 -1.224647e-16 1.000000e+00
    outer loop
      vertex -1.666387e+01 5.674131e+00 1.000064e+01
      vertex -1.818221e+01 4.797515e+00 1.000064e+01
      vertex -1.814699e+01 3.260398e+00 1.000064e+01
    endloop
  endfacet
  facet normal 1.000000e+00 0.000000e+00 0.000000e+00
    outer loop
      vertex 8.836132e+00 8.560879e+00 1.573149e+01
      vertex 8.836132e+00 6.997856e+00 1.395092e+01
      vertex 8.836132e+00 7.591295e+00 1.000064e+01
    endloop
  endfacet
  facet normal -5.002062e-01 -8.659064e-01 -1.285704e-05
    outer loop
      vertex -2.041517e+01 4.953190e+00 1.588329e+01
      vertex -2.014553e+01 4.797515e+00 1.000064e+01
      vertex -1.916452e+01 4.230752e+00 1.438573e+01
    endloop
  endfacet
  facet normal 1.000000e+00 0.000000e+00 0.000000e+00
    outer loop
      vertex -1.666387e+01 8.560879e+00 1.000064e+01
      vertex -1.666387e+01 7.187557e+00 1.410154e+01
      vertex -1.666387e+01 6.875568e+00 1.000064e+01
    endloop
  endfacet
  facet normal 0.000000e+00 1.000000e+00 1.224647e-16
    outer loop
      vertex -2.416387e+01 6.617504e+00 0.000000e+00
      vertex -2.416387e+01 6.617504e+00 2.782900e+00
      vertex -2.068692e+01 6.617504e+00 2.086950e+00
    endloop
  endfacet
  facet normal 3.264901e-04 -4.688666e-06 9.999999e-01
    outer loop
      vertex 1.083613e+01 2.117505e+00 9.999999e+00
      vertex 1.083676e+01 6.426980e+00 1.000002e+01
      vertex 8.915772e+00 4.894722e+00 1.000064e+01
    endloop
  endfacet
  facet normal -1.000000e+00 0.000000e+00 -0.000000e+00
    outer loop
      vertex -2.416387e+01 1.069708e+01 2.353849e+00
      vertex -2.416387e+01 7.617504e+00 2.490570e+00
      vertex -2.416387e+01 7.617504e+00 5.000639e+00
    endloop
  endfacet
  facet normal 1.000000e+00 0.000000e+00 0.000000e+00
    outer loop
      vertex 8.836132e+00 5.674129e+00 1.000064e+01
      vertex 8.836132e+00 7.591295e+00 1.000064e+01
      vertex 8.836132e+00 6.997856e+00 1.395092e+01
    endloop
  endfacet
  facet normal 0.000000e+00 1.133979e-04 1.000000e+00
    outer loop
      vertex -9.957937e+00 6.473659e+00 1.000064e+01
      vertex -1.348851e+00 1.211751e+01 9.999999e+00
      vertex -9.657818e+00 1.211751e+01 9.999999e+00
    endloop
  endfacet
  facet normal 5.000009e-01 -8.660249e-01 -5.788161e-05
    outer loop
      vertex -1.916452e+01 4.230752e+00 1.438573e+01
      vertex -1.818221e+01 4.797515e+00 2.000064e+01
      vertex -1.916387e+01 4.230752e+00 2.000064e+01
    endloop
  endfacet
  facet normal 1.870318e-06 2.037804e-06 -1.000000e+00
    outer loop
      vertex -9.738466e+00 2.117505e+00 6.484985e-04
      vertex -1.776709e+01 4.579013e+00 6.389618e-04
      vertex -1.464144e+01 6.617504e+00 6.484985e-04
    endloop
  endfacet
  facet normal 0.000000e+00 4.026588e-04 9.999999e-01
    outer loop
      vertex 9.107932e+00 1.052807e+01 1.000064e+01
      vertex 1.083613e+01 1.211751e+01 9.999999e+00
      vertex 8.315972e+00 1.211751e+01 9.999999e+00
    endloop
  endfacet
  facet normal 1.561261e-04 3.013086e-04 -9.999999e-01
    outer loop
      vertex -2.416387e+01 4.274762e+00 6.484985e-04
      vertex -2.000057e+01 2.117505e+00 6.484985e-04
      vertex -2.416387e+01 2.117505e+00 0.000000e+00
    endloop
  endfacet
  facet normal -5.000000e-01 8.660254e-01 -2.134854e-07
    outer loop
      vertex 5.435493e+00 9.484270e+00 1.000064e+01
      vertex 5.201552e+00 9.349206e+00 1.536323e+01
      vertex 6.336132e+00 1.000426e+01 1.508633e+01
    endloop
  endfacet
  facet normal -5.001838e-01 8.659193e-01 -2.067100e-05
    outer loop
      vertex -2.059483e+01 9.178094e+00 1.547270e+01
      vertex -1.916452e+01 1.000426e+01 1.418915e+01
      vertex -2.014553e+01 9.437494e+00 1.000064e+01
    endloop
  endfacet
  facet normal 5.000009e-01 8.660249e-01 1.060575e-16
    outer loop
      vertex 8.836132e+00 8.560879e+00 1.573149e+01
      vertex 8.836132e+00 8.560879e+00 1.000064e+01
      vertex 7.732432e+00 9.198102e+00 1.000064e+01
    endloop
  endfacet
  facet normal 5.000009e-01 8.660249e-01 1.843431e-07
    outer loop
      vertex -1.818221e+01 9.437494e+00 2.000064e+01
      vertex -1.666387e+01 8.560879e+00 1.514681e+01
      vertex -1.775557e+01 9.191174e+00 1.394982e+01
    endloop
  endfacet
  facet normal -6.665193e-01 -6.665193e-01 3.339221e-01
    outer loop
      vertex -2.416387e+01 2.117505e+00 9.678060e+00
      vertex -2.400258e+01 2.117505e+00 9.999999e+00
      vertex -2.416387e+01 2.278795e+00 9.999999e+00
    endloop
  endfacet
  facet normal 9.999999e-01 1.871745e-04 -2.251349e-04
    outer loop
      vertex 1.083677e+01 6.617504e+00 5.000639e+00
      vertex 1.083613e+01 4.022747e+00 6.484985e-04
      vertex 1.083613e+01 6.617504e+00 2.157900e+00
    endloop
  endfacet
  facet normal 5.000007e-01 8.660250e-01 4.601343e-08
    outer loop
      vertex 7.732432e+00 9.198102e+00 1.000064e+01
      vertex 7.524222e+00 9.318312e+00 1.614700e+01
      vertex 8.836132e+00 8.560879e+00 1.573149e+01
    endloop
  endfacet
  facet normal 0.000000e+00 1.000000e+00 1.224647e-16
    outer loop
      vertex -1.944219e+01 1.211751e+01 5.210269e+00
      vertex -1.714522e+01 1.211751e+01 6.484985e-04
      vertex -2.416387e+01 1.211751e+01 6.484985e-04
    endloop
  endfacet
  facet normal 0.000000e+00 -1.000000e+00 -1.224647e-16
    outer loop
      vertex -1.014022e+01 2.117505e+00 4.183399e+00
      vertex -1.862685e+01 2.117505e+00 5.685160e+00
      vertex -2.000057e+01 2.117505e+00 6.484985e-04
    endloop
  endfacet
  facet normal 0.000000e+00 1.224647e-16 -1.000000e+00
    outer loop
      vertex -2.138917e+01 6.617504e+00 5.000639e+00
      vertex -2.259003e+01 7.157827e+00 5.000639e+00
      vertex -1.720571e+01 7.617504e+00 5.000639e+00
    endloop
  endfacet
  facet normal -5.000001e-01 -8.660254e-01 -4.640891e-07
    outer loop
      vertex 4.945703e+00 5.033520e+00 1.703536e+01
      vertex 5.435493e+00 4.750738e+00 2.000064e+01
      vertex 3.836132e+00 5.674129e+00 2.000129e+01
    endloop
  endfacet
  facet normal 4.998256e-01 8.661261e-01 -1.628831e-05
    outer loop
      vertex -1.818221e+01 9.437494e+00 2.000064e+01
      vertex -1.775557e+01 9.191174e+00 1.394982e+01
      vertex -1.916452e+01 1.000426e+01 1.418915e+01
    endloop
  endfacet
  facet normal 0.000000e+00 3.859313e-06 -1.000000e+00
    outer loop
      vertex 7.645923e+00 4.026369e+00 6.389618e-04
      vertex 2.345707e+00 6.617504e+00 6.484985e-04
      vertex 1.083613e+01 6.617504e+00 6.484985e-04
    endloop
  endfacet
  facet normal -1.000000e+00 0.000000e+00 0.000000e+00
    outer loop
      vertex -2.416387e+01 6.617504e+00 5.000639e+00
      vertex -2.416387e+01 8.420212e+00 6.346649e+00
      vertex -2.416387e+01 7.198150e+00 5.000639e+00
    endloop
  endfacet
  facet normal 3.670577e-04 3.555251e-06 9.999999e-01
    outer loop
      vertex 9.107932e+00 1.052807e+01 1.000064e+01
      vertex 1.083676e+01 6.426980e+00 1.000002e+01
      vertex 1.083613e+01 1.211751e+01 9.999999e+00
    endloop
  endfacet
  facet normal -5.000007e-01 -8.660250e-01 -1.060575e-16
    outer loop
      vertex 6.336132e+00 4.230750e+00 1.213774e+01
      vertex 4.749772e+00 5.146637e+00 1.000064e+01
      vertex 6.336132e+00 4.230750e+00 1.000064e+01
    endloop
  endfacet
  facet normal -1.000000e+00 0.000000e+00 -0.000000e+00
    outer loop
      vertex -2.416387e+01 6.617504e+00 2.782900e+00
      vertex -2.416387e+01 6.617504e+00 0.000000e+00
      vertex -2.416387e+01 4.274762e+00 6.484985e-04
    endloop
  endfacet
  facet normal 0.000000e+00 -1.224647e-16 1.000000e+00
    outer loop
      vertex 3.836132e+00 6.915892e+00 1.000064e+01
      vertex 3.952146e-01 6.750525e+00 1.000064e+01
      vertex 3.836132e+00 5.674129e+00 1.000064e+01
    endloop
  endfacet
  facet normal 0.000000e+00 -1.000000e+00 -1.224647e-16
    outer loop
      vertex -9.753586e+00 2.117505e+00 9.999999e+00
      vertex -1.862685e+01 2.117505e+00 5.685160e+00
      vertex -1.014022e+01 2.117505e+00 4.183399e+00
    endloop
  endfacet
  facet normal -7.731549e-05 5.369902e-04 9.999999e-01
    outer loop
      vertex 7.098653e+00 7.344083e+00 2.000064e+01
      vertex 3.836132e+00 6.875568e+00 2.000064e+01
      vertex 3.836132e+00 5.674129e+00 2.000129e+01
    endloop
  endfacet
  facet normal 0.000000e+00 -1.224647e-16 1.000000e+00
    outer loop
      vertex -2.210522e+01 8.467169e+00 1.000064e+01
      vertex -2.166387e+01 7.319118e+00 1.000064e+01
      vertex -2.166387e+01 8.560879e+00 1.000064e+01
    endloop
  endfacet
  facet normal -5.000012e-01 -8.660247e-01 -1.060574e-16
    outer loop
      vertex 4.749772e+00 5.146637e+00 1.000064e+01
      vertex 3.836132e+00 5.674129e+00 1.502081e+01
      vertex 3.836132e+00 5.674129e+00 1.000064e+01
    endloop
  endfacet
  facet normal -1.000000e+00 0.000000e+00 -0.000000e+00
    outer loop
      vertex 3.836132e+00 8.560879e+00 2.000129e+01
      vertex 3.836132e+00 7.327524e+00 1.578018e+01
      vertex 3.836132e+00 6.875568e+00 2.000064e+01
    endloop
  endfacet
  facet normal -5.000023e-01 -8.660241e-01 3.637586e-08
    outer loop
      vertex 5.435493e+00 4.750738e+00 2.000064e+01
      vertex 4.945703e+00 5.033520e+00 1.703536e+01
      vertex 6.336132e+00 4.230750e+00 1.854903e+01
    endloop
  endfacet
  facet normal 0.000000e+00 1.000000e+00 1.224647e-16
    outer loop
      vertex -1.464144e+01 6.617504e+00 6.484985e-04
      vertex -2.068692e+01 6.617504e+00 2.086950e+00
      vertex -1.084481e+01 6.617504e+00 5.000639e+00
    endloop
  endfacet
  facet normal 0.000000e+00 1.000000e+00 1.224647e-16
    outer loop
      vertex 5.687443e+00 1.211751e+01 6.484985e-04
      vertex -6.850361e+00 1.211751e+01 6.484985e-04
      vertex 2.498405e+00 1.211751e+01 4.171829e+00
    endloop
  endfacet
  facet normal 5.000017e-01 -8.660244e-01 7.089827e-07
    outer loop
      vertex 7.732432e+00 5.036906e+00 1.000064e+01
      vertex 7.570232e+00 4.943262e+00 1.321101e+01
      vertex 6.336132e+00 4.230750e+00 1.213774e+01
    endloop
  endfacet
  facet normal -4.742508e-05 -1.516038e-04 1.000000e+00
    outer loop
      vertex 1.710629e+00 2.117505e+00 9.999999e+00
      vertex 3.836132e+00 5.674129e+00 1.000064e+01
      vertex 3.952146e-01 6.750525e+00 1.000064e+01
    endloop
  endfacet
  facet normal 0.000000e+00 1.000000e+00 1.224647e-16
    outer loop
      vertex -2.416387e+01 6.617504e+00 0.000000e+00
      vertex -2.068692e+01 6.617504e+00 2.086950e+00
      vertex -1.464144e+01 6.617504e+00 6.484985e-04
    endloop
  endfacet
  facet normal 0.000000e+00 1.224647e-16 -1.000000e+00
    outer loop
      vertex -1.720571e+01 7.617504e+00 5.000639e+00
      vertex -2.059517e-01 7.617504e+00 5.000639e+00
      vertex -6.531559e+00 7.142706e+00 5.000639e+00
    endloop
  endfacet
  facet normal 0.000000e+00 1.000000e+00 1.224647e-16
    outer loop
      vertex -2.138917e+01 6.617504e+00 5.000639e+00
      vertex -2.068692e+01 6.617504e+00 2.086950e+00
      vertex -2.416387e+01 6.617504e+00 2.782900e+00
    endloop
  endfacet
  facet normal -1.000000e+00 0.000000e+00 -0.000000e+00
    outer loop
      vertex -2.416387e+01 8.420212e+00 6.346649e+00
      vertex -2.416387e+01 1.195621e+01 9.999999e+00
      vertex -2.416387e+01 1.211751e+01 9.678060e+00
    endloop
  endfacet
  facet normal -5.000007e-01 -8.660250e-01 1.894250e-06
    outer loop
      vertex 3.836132e+00 5.674129e+00 1.502081e+01
      vertex 6.336132e+00 4.230750e+00 1.471839e+01
      vertex 6.320003e+00 4.240064e+00 1.532323e+01
    endloop
  endfacet
  facet normal 0.000000e+00 -1.000000e+00 -1.224647e-16
    outer loop
      vertex -2.028211e+01 7.617504e+00 1.997620e+00
      vertex -1.720571e+01 7.617504e+00 5.000639e+00
      vertex -2.416387e+01 7.617504e+00 5.000639e+00
    endloop
  endfacet
  facet normal 0.000000e+00 -4.441059e-06 -1.000000e+00
    outer loop
      vertex 3.762042e+00 2.117505e+00 6.484985e-04
      vertex -9.738466e+00 2.117505e+00 6.484985e-04
      vertex -4.101337e+00 4.369220e+00 6.389618e-04
    endloop
  endfacet
  facet normal 0.000000e+00 -1.224647e-16 1.000000e+00
    outer loop
      vertex -2.247316e+01 4.803366e+00 1.000064e+01
      vertex -2.014553e+01 4.797515e+00 1.000064e+01
      vertex -2.166387e+01 5.674131e+00 1.000064e+01
    endloop
  endfacet
  facet normal -3.422748e-07 -1.224647e-16 1.000000e+00
    outer loop
      vertex -1.974845e+01 7.362127e+00 2.000064e+01
      vertex -2.166387e+01 7.440085e+00 2.000064e+01
      vertex -2.166387e+01 5.674131e+00 2.000064e+01
    endloop
  endfacet
  facet normal -5.000023e-01 -8.660241e-01 -1.060574e-16
    outer loop
      vertex 5.435493e+00 4.750738e+00 2.000064e+01
      vertex 6.336132e+00 4.230750e+00 1.854903e+01
      vertex 6.336132e+00 4.230750e+00 2.000129e+01
    endloop
  endfacet
  facet normal -3.785392e-04 -1.224647e-16 9.999999e-01
    outer loop
      vertex -2.416387e+01 2.278795e+00 9.999999e+00
      vertex -2.247316e+01 4.803366e+00 1.000064e+01
      vertex -2.416387e+01 6.288371e+00 9.999999e+00
    endloop
  endfacet
  facet normal 0.000000e+00 1.000000e+00 1.224647e-16
    outer loop
      vertex 5.222512e+00 6.617504e+00 2.447790e+00
      vertex 1.083613e+01 6.617504e+00 2.157900e+00
      vertex 2.345707e+00 6.617504e+00 6.484985e-04
    endloop
  endfacet
  facet normal -5.002493e-01 -8.658814e-01 -1.060399e-16
    outer loop
      vertex -2.014553e+01 4.797515e+00 1.000064e+01
      vertex -1.916452e+01 4.230752e+00 1.000064e+01
      vertex -1.916452e+01 4.230752e+00 1.438573e+01
    endloop
  endfacet
  facet normal 0.000000e+00 -5.599823e-04 9.999998e-01
    outer loop
      vertex -2.400258e+01 2.117505e+00 9.999999e+00
      vertex -1.757617e+01 2.117505e+00 9.999999e+00
      vertex -1.814699e+01 3.260398e+00 1.000064e+01
    endloop
  endfacet
  facet normal 0.000000e+00 -1.799458e-04 1.000000e+00
    outer loop
      vertex -9.753586e+00 2.117505e+00 9.999999e+00
      vertex -1.666387e+01 5.674131e+00 1.000064e+01
      vertex -1.757617e+01 2.117505e+00 9.999999e+00
    endloop
  endfacet
  facet normal 5.000013e-01 -8.660247e-01 -1.060574e-16
    outer loop
      vertex 7.343822e+00 4.812542e+00 2.000064e+01
      vertex 6.336132e+00 4.230750e+00 2.000129e+01
      vertex 6.336132e+00 4.230750e+00 1.854903e+01
    endloop
  endfacet
  facet normal 3.472040e-05 1.115515e-04 1.000000e+00
    outer loop
      vertex -1.666387e+01 8.560879e+00 1.000064e+01
      vertex -9.957937e+00 6.473659e+00 1.000064e+01
      vertex -9.657818e+00 1.211751e+01 9.999999e+00
    endloop
  endfacet
  facet normal 4.997527e-01 -8.661681e-01 -1.060750e-16
    outer loop
      vertex -1.916452e+01 4.230752e+00 1.438573e+01
      vertex -1.916452e+01 4.230752e+00 1.000064e+01
      vertex -1.818221e+01 4.797515e+00 1.000064e+01
    endloop
  endfacet
  facet normal -1.000000e+00 0.000000e+00 0.000000e+00
    outer loop
      vertex -2.166387e+01 7.319118e+00 1.000064e+01
      vertex -2.166387e+01 8.560879e+00 1.583734e+01
      vertex -2.166387e+01 8.560879e+00 1.000064e+01
    endloop
  endfacet
  facet normal 5.000010e-01 -8.660249e-01 -6.310993e-07
    outer loop
      vertex 6.336132e+00 4.230750e+00 1.621032e+01
      vertex 7.570232e+00 4.943262e+00 1.321101e+01
      vertex 7.430022e+00 4.862308e+00 1.802610e+01
    endloop
  endfacet
  facet normal -3.422748e-07 -1.224647e-16 1.000000e+00
    outer loop
      vertex -1.974845e+01 7.362127e+00 2.000064e+01
      vertex -2.166387e+01 8.560879e+00 2.000064e+01
      vertex -2.166387e+01 7.440085e+00 2.000064e+01
    endloop
  endfacet
  facet normal 5.000004e-01 -8.660251e-01 7.247496e-07
    outer loop
      vertex 7.430022e+00 4.862308e+00 1.802610e+01
      vertex 7.343822e+00 4.812542e+00 2.000064e+01
      vertex 6.336132e+00 4.230750e+00 1.854903e+01
    endloop
  endfacet
  facet normal 0.000000e+00 -1.000000e+00 -1.224647e-16
    outer loop
      vertex -2.045116e+00 7.617504e+00 2.264860e+00
      vertex -2.059517e-01 7.617504e+00 5.000639e+00
      vertex -1.720571e+01 7.617504e+00 5.000639e+00
    endloop
  endfacet
  facet normal 5.000021e-01 -8.660242e-01 -1.060574e-16
    outer loop
      vertex 6.336132e+00 4.230750e+00 1.471839e+01
      vertex 6.336132e+00 4.230750e+00 1.213774e+01
      vertex 7.570232e+00 4.943262e+00 1.321101e+01
    endloop
  endfacet
  facet normal 5.477315e-05 -3.828144e-04 9.999999e-01
    outer loop
      vertex 7.098653e+00 7.344083e+00 2.000064e+01
      vertex 3.836132e+00 8.560879e+00 2.000129e+01
      vertex 3.836132e+00 6.875568e+00 2.000064e+01
    endloop
  endfacet
  facet normal 5.000009e-01 -8.660249e-01 6.569322e-07
    outer loop
      vertex 8.836132e+00 5.674129e+00 1.000064e+01
      vertex 7.570232e+00 4.943262e+00 1.321101e+01
      vertex 7.732432e+00 5.036906e+00 1.000064e+01
    endloop
  endfacet
  facet normal 0.000000e+00 1.224647e-16 -1.000000e+00
    outer loop
      vertex -2.416387e+01 7.617504e+00 5.000639e+00
      vertex -2.259003e+01 7.157827e+00 5.000639e+00
      vertex -2.416387e+01 7.198150e+00 5.000639e+00
    endloop
  endfacet
  facet normal -7.974287e-07 2.976995e-06 -1.000000e+00
    outer loop
      vertex -2.416387e+01 1.023746e+01 6.484985e-04
      vertex -1.714522e+01 1.211751e+01 6.484985e-04
      vertex -1.267941e+01 9.954640e+00 6.389618e-04
    endloop
  endfacet
  facet normal -5.641133e-05 9.770728e-05 1.000000e+00
    outer loop
      vertex 3.836132e+00 8.560879e+00 1.000064e+01
      vertex 5.435493e+00 9.484270e+00 1.000064e+01
      vertex -1.348851e+00 1.211751e+01 9.999999e+00
    endloop
  endfacet
  facet normal 0.000000e+00 -1.000000e+00 -1.224647e-16
    outer loop
      vertex -9.738466e+00 2.117505e+00 6.484985e-04
      vertex 1.726913e+00 2.117505e+00 4.585509e+00
      vertex -1.014022e+01 2.117505e+00 4.183399e+00
    endloop
  endfacet
  facet normal -1.000000e+00 0.000000e+00 0.000000e+00
    outer loop
      vertex -2.416387e+01 2.117505e+00 4.421009e+00
      vertex -2.416387e+01 4.340601e+00 6.405119e+00
      vertex -2.416387e+01 4.274762e+00 6.484985e-04
    endloop
  endfacet
  facet normal 5.000006e-01 -8.660250e-01 7.347263e-07
    outer loop
      vertex 8.836132e+00 5.674129e+00 2.000129e+01
      vertex 7.343822e+00 4.812542e+00 2.000064e+01
      vertex 7.430022e+00 4.862308e+00 1.802610e+01
    endloop
  endfacet
  facet normal 9.999998e-01 -5.357249e-04 1.500155e-04
    outer loop
      vertex 1.083677e+01 6.617504e+00 5.000639e+00
      vertex 1.083613e+01 5.982390e+00 6.998790e+00
      vertex 1.083613e+01 4.022747e+00 6.484985e-04
    endloop
  endfacet
  facet normal 0.000000e+00 1.224647e-16 -1.000000e+00
    outer loop
      vertex -6.531559e+00 7.142706e+00 5.000639e+00
      vertex -1.084481e+01 6.617504e+00 5.000639e+00
      vertex -1.622410e+01 7.092303e+00 5.000639e+00
    endloop
  endfacet
  facet normal 5.000008e-01 -8.660249e-01 -1.060575e-16
    outer loop
      vertex 7.732432e+00 5.036906e+00 1.000064e+01
      vertex 6.336132e+00 4.230750e+00 1.213774e+01
      vertex 6.336132e+00 4.230750e+00 1.000064e+01
    endloop
  endfacet
  facet normal -1.642403e-07 2.844719e-07 1.000000e+00
    outer loop
      vertex -2.014553e+01 9.437494e+00 2.000064e+01
      vertex -1.974845e+01 7.362127e+00 2.000064e+01
      vertex -1.916387e+01 1.000426e+01 2.000064e+01
    endloop
  endfacet
  facet normal 0.000000e+00 -4.788462e-06 -1.000000e+00
    outer loop
      vertex 1.083613e+01 7.617504e+00 6.484985e-04
      vertex 1.166272e+00 7.617504e+00 6.484985e-04
      vertex 4.952453e+00 9.705857e+00 6.389618e-04
    endloop
  endfacet
  facet normal -1.000000e+00 0.000000e+00 0.000000e+00
    outer loop
      vertex -2.416387e+01 2.117505e+00 9.678060e+00
      vertex -2.416387e+01 6.288371e+00 9.999999e+00
      vertex -2.416387e+01 4.340601e+00 6.405119e+00
    endloop
  endfacet
  facet normal 9.927822e-05 -1.719545e-04 1.000000e+00
    outer loop
      vertex 6.336132e+00 4.230750e+00 1.000064e+01
      vertex 9.122422e+00 2.117505e+00 9.999999e+00
      vertex 7.732432e+00 5.036906e+00 1.000064e+01
    endloop
  endfacet
  facet normal -7.063994e-05 -1.980601e-04 1.000000e+00
    outer loop
      vertex -2.400258e+01 2.117505e+00 9.999999e+00
      vertex -1.814699e+01 3.260398e+00 1.000064e+01
      vertex -2.247316e+01 4.803366e+00 1.000064e+01
    endloop
  endfacet
  facet normal -1.000000e+00 0.000000e+00 -0.000000e+00
    outer loop
      vertex -2.166387e+01 7.440085e+00 2.000064e+01
      vertex -2.166387e+01 8.560879e+00 2.000064e+01
      vertex -2.166387e+01 8.560879e+00 1.583734e+01
    endloop
  endfacet
  facet normal 0.000000e+00 1.000000e+00 1.224647e-16
    outer loop
      vertex -1.348851e+00 1.211751e+01 9.999999e+00
      vertex -1.147159e+01 1.211751e+01 4.511410e+00
      vertex -9.657818e+00 1.211751e+01 9.999999e+00
    endloop
  endfacet
  facet normal 0.000000e+00 -1.224647e-16 1.000000e+00
    outer loop
      vertex 7.732432e+00 5.036906e+00 1.000064e+01
      vertex 8.915772e+00 4.894722e+00 1.000064e+01
      vertex 8.836132e+00 5.674129e+00 1.000064e+01
    endloop
  endfacet
  facet normal 0.000000e+00 1.000000e+00 1.224647e-16
    outer loop
      vertex -9.657818e+00 1.211751e+01 9.999999e+00
      vertex -1.944219e+01 1.211751e+01 5.210269e+00
      vertex -1.909331e+01 1.211751e+01 9.999999e+00
    endloop
  endfacet
  facet normal 0.000000e+00 1.224647e-16 -1.000000e+00
    outer loop
      vertex -2.416387e+01 6.617504e+00 5.000639e+00
      vertex -2.259003e+01 7.157827e+00 5.000639e+00
      vertex -2.138917e+01 6.617504e+00 5.000639e+00
    endloop
  endfacet
  facet normal 0.000000e+00 1.000000e+00 1.224647e-16
    outer loop
      vertex -1.084481e+01 6.617504e+00 5.000639e+00
      vertex -2.068692e+01 6.617504e+00 2.086950e+00
      vertex -2.138917e+01 6.617504e+00 5.000639e+00
    endloop
  endfacet
  facet normal -5.000026e-01 -8.660239e-01 -1.060573e-16
    outer loop
      vertex 5.365132e+00 4.791361e+00 1.261185e+01
      vertex 6.336132e+00 4.230750e+00 1.213774e+01
      vertex 6.336132e+00 4.230750e+00 1.471839e+01
    endloop
  endfacet
  facet normal 0.000000e+00 -1.224647e-16 1.000000e+00
    outer loop
      vertex 8.836132e+00 7.591295e+00 1.000064e+01
      vertex 8.836132e+00 5.674129e+00 1.000064e+01
      vertex 9.223232e+00 6.472343e+00 1.000064e+01
    endloop
  endfacet
  facet normal 0.000000e+00 1.000000e+00 1.224647e-16
    outer loop
      vertex -7.623615e+00 6.617504e+00 2.583599e+00
      vertex 5.222512e+00 6.617504e+00 2.447790e+00
      vertex 2.345707e+00 6.617504e+00 6.484985e-04
    endloop
  endfacet
  facet normal 0.000000e+00 1.000000e+00 1.224647e-16
    outer loop
      vertex 1.083613e+01 6.617504e+00 2.157900e+00
      vertex 1.083613e+01 6.617504e+00 6.484985e-04
      vertex 2.345707e+00 6.617504e+00 6.484985e-04
    endloop
  endfacet
  facet normal -1.000000e+00 0.000000e+00 -0.000000e+00
    outer loop
      vertex 3.836132e+00 6.915892e+00 1.000064e+01
      vertex 3.836132e+00 5.674129e+00 1.000064e+01
      vertex 3.836132e+00 5.674129e+00 1.502081e+01
    endloop
  endfacet
  facet normal -1.000000e+00 0.000000e+00 -0.000000e+00
    outer loop
      vertex 3.836132e+00 8.560879e+00 2.000129e+01
      vertex 3.836132e+00 8.560879e+00 1.492756e+01
      vertex 3.836132e+00 7.327524e+00 1.578018e+01
    endloop
  endfacet
  facet normal 9.999999e-01 1.107095e-04 -2.263140e-04
    outer loop
      vertex 1.083613e+01 5.982390e+00 6.998790e+00
      vertex 1.083613e+01 1.211751e+01 9.999999e+00
      vertex 1.083676e+01 6.426980e+00 1.000002e+01
    endloop
  endfacet
  facet normal 0.000000e+00 -1.224647e-16 1.000000e+00
    outer loop
      vertex 3.952146e-01 6.750525e+00 1.000064e+01
      vertex 3.836132e+00 6.915892e+00 1.000064e+01
      vertex 3.836132e+00 8.560879e+00 1.000064e+01
    endloop
  endfacet
  facet normal 1.000000e+00 0.000000e+00 0.000000e+00
    outer loop
      vertex -1.666387e+01 8.560879e+00 1.000064e+01
      vertex -1.666387e+01 8.560879e+00 1.514681e+01
      vertex -1.666387e+01 7.187557e+00 1.410154e+01
    endloop
  endfacet
  facet normal 1.000000e+00 0.000000e+00 0.000000e+00
    outer loop
      vertex 1.083613e+01 4.022747e+00 6.484985e-04
      vertex 1.083613e+01 6.617504e+00 6.484985e-04
      vertex 1.083613e+01 6.617504e+00 2.157900e+00
    endloop
  endfacet
  facet normal 1.000000e+00 0.000000e+00 0.000000e+00
    outer loop
      vertex 1.083613e+01 1.026109e+01 3.049250e+00
      vertex 1.083613e+01 9.410850e+00 6.389618e-04
      vertex 1.083613e+01 1.211751e+01 6.484985e-04
    endloop
  endfacet
  facet normal -1.642401e-07 2.844719e-07 1.000000e+00
    outer loop
      vertex -2.166387e+01 8.560879e+00 2.000064e+01
      vertex -1.974845e+01 7.362127e+00 2.000064e+01
      vertex -2.014553e+01 9.437494e+00 2.000064e+01
    endloop
  endfacet
  facet normal 1.000000e+00 0.000000e+00 0.000000e+00
    outer loop
      vertex 8.836132e+00 6.956214e+00 2.000064e+01
      vertex 8.836132e+00 6.997856e+00 1.395092e+01
      vertex 8.836132e+00 8.560879e+00 1.573149e+01
    endloop
  endfacet
  facet normal 1.032830e-06 1.839959e-06 -1.000000e+00
    outer loop
      vertex 1.166272e+00 7.617504e+00 6.484985e-04
      vertex -1.267941e+01 9.954640e+00 6.389618e-04
      vertex -6.850361e+00 1.211751e+01 6.484985e-04
    endloop
  endfacet
  facet normal 1.270328e-07 2.200267e-07 1.000000e+00
    outer loop
      vertex -1.818221e+01 9.437494e+00 2.000064e+01
      vertex -1.916387e+01 1.000426e+01 2.000064e+01
      vertex -1.974845e+01 7.362127e+00 2.000064e+01
    endloop
  endfacet
  facet normal 0.000000e+00 1.224647e-16 -1.000000e+00
    outer loop
      vertex 1.083677e+01 7.617504e+00 5.000639e+00
      vertex 1.083613e+01 7.198150e+00 5.000639e+00
      vertex 6.057113e+00 7.137666e+00 5.000639e+00
    endloop
  endfacet
  facet normal -1.153637e-04 1.153630e-04 1.000000e+00
    outer loop
      vertex -2.210522e+01 8.467169e+00 1.000064e+01
      vertex -2.400258e+01 1.211751e+01 9.999999e+00
      vertex -2.416387e+01 1.195621e+01 9.999999e+00
    endloop
  endfacet
  facet normal -1.000000e+00 0.000000e+00 -0.000000e+00
    outer loop
      vertex 3.836132e+00 6.875568e+00 2.000064e+01
      vertex 3.836132e+00 5.674129e+00 1.502081e+01
      vertex 3.836132e+00 5.674129e+00 2.000129e+01
    endloop
  endfacet
  facet normal -3.161471e-06 1.182203e-04 1.000000e+00
    outer loop
      vertex -9.957937e+00 6.473659e+00 1.000064e+01
      vertex 3.952146e-01 6.750525e+00 1.000064e+01
      vertex -1.348851e+00 1.211751e+01 9.999999e+00
    endloop
  endfacet
  facet normal -5.357881e-05 1.018366e-04 1.000000e+00
    outer loop
      vertex 3.836132e+00 8.560879e+00 1.000064e+01
      vertex -1.348851e+00 1.211751e+01 9.999999e+00
      vertex 3.952146e-01 6.750525e+00 1.000064e+01
    endloop
  endfacet
  facet normal 3.099024e-04 -1.224647e-16 9.999999e-01
    outer loop
      vertex 1.083676e+01 6.426980e+00 1.000002e+01
      vertex 8.836132e+00 8.560879e+00 1.000064e+01
      vertex 8.836132e+00 7.591295e+00 1.000064e+01
    endloop
  endfacet
  facet normal 0.000000e+00 -1.000000e+00 -1.224647e-16
    outer loop
      vertex -2.000057e+01 2.117505e+00 6.484985e-04
      vertex -1.862685e+01 2.117505e+00 5.685160e+00
      vertex -2.416387e+01 2.117505e+00 4.421009e+00
    endloop
  endfacet
  facet normal -2.795884e-07 -5.576169e-06 -1.000000e+00
    outer loop
      vertex 1.083613e+01 7.617504e+00 6.484985e-04
      vertex 4.952453e+00 9.705857e+00 6.389618e-04
      vertex 1.083613e+01 9.410850e+00 6.389618e-04
    endloop
  endfacet
  facet normal 1.741924e-05 -1.461014e-04 1.000000e+00
    outer loop
      vertex -9.753586e+00 2.117505e+00 9.999999e+00
      vertex -9.957937e+00 6.473659e+00 1.000064e+01
      vertex -1.666387e+01 5.674131e+00 1.000064e+01
    endloop
  endfacet
  facet normal 2.783324e-04 2.166011e-04 9.999999e-01
    outer loop
      vertex 3.836132e+00 8.560879e+00 2.000129e+01
      vertex 7.098653e+00 7.344083e+00 2.000064e+01
      vertex 5.435493e+00 9.484270e+00 2.000064e+01
    endloop
  endfacet
  facet normal 0.000000e+00 1.224647e-16 -1.000000e+00
    outer loop
      vertex 6.057113e+00 7.137666e+00 5.000639e+00
      vertex 1.083613e+01 7.198150e+00 5.000639e+00
      vertex 1.083677e+01 6.617504e+00 5.000639e+00
    endloop
  endfacet
  facet normal -5.000029e-01 8.660237e-01 -8.717319e-07
    outer loop
      vertex -2.059483e+01 9.178094e+00 1.547270e+01
      vertex -2.014553e+01 9.437494e+00 1.000064e+01
      vertex -2.166387e+01 8.560879e+00 1.583734e+01
    endloop
  endfacet
  facet normal 1.000000e+00 -1.574822e-10 -2.824201e-05
    outer loop
      vertex 1.083621e+01 7.617504e+00 2.833309e+00
      vertex 1.083613e+01 7.617504e+00 6.484985e-04
      vertex 1.083613e+01 9.410850e+00 6.389618e-04
    endloop
  endfacet
  facet normal 0.000000e+00 1.224647e-16 -1.000000e+00
    outer loop
      vertex -1.622410e+01 7.092303e+00 5.000639e+00
      vertex -1.084481e+01 6.617504e+00 5.000639e+00
      vertex -2.138917e+01 6.617504e+00 5.000639e+00
    endloop
  endfacet
  facet normal 5.000002e-01 -8.660253e-01 -1.060575e-16
    outer loop
      vertex 6.336132e+00 4.230750e+00 1.854903e+01
      vertex 6.336132e+00 4.230750e+00 1.621032e+01
      vertex 7.430022e+00 4.862308e+00 1.802610e+01
    endloop
  endfacet
  facet normal 0.000000e+00 -1.000000e+00 -1.224647e-16
    outer loop
      vertex -1.607919e+01 7.617504e+00 6.484985e-04
      vertex -2.045116e+00 7.617504e+00 2.264860e+00
      vertex -1.720571e+01 7.617504e+00 5.000639e+00
    endloop
  endfacet
  facet normal -1.000000e+00 0.000000e+00 -0.000000e+00
    outer loop
      vertex -2.416387e+01 8.420212e+00 6.346649e+00
      vertex -2.416387e+01 7.617504e+00 5.000639e+00
      vertex -2.416387e+01 7.198150e+00 5.000639e+00
    endloop
  endfacet
  facet normal -1.000000e+00 0.000000e+00 -0.000000e+00
    outer loop
      vertex -2.416387e+01 2.117505e+00 9.678060e+00
      vertex -2.416387e+01 2.278795e+00 9.999999e+00
      vertex -2.416387e+01 6.288371e+00 9.999999e+00
    endloop
  endfacet
  facet normal -1.354795e-07 -2.346568e-07 1.000000e+00
    outer loop
      vertex -1.974845e+01 7.362127e+00 2.000064e+01
      vertex -2.014553e+01 4.797515e+00 2.000064e+01
      vertex -1.916387e+01 4.230752e+00 2.000064e+01
    endloop
  endfacet
  facet normal 0.000000e+00 1.000000e+00 1.224647e-16
    outer loop
      vertex -1.464144e+01 6.617504e+00 6.484985e-04
      vertex -1.084481e+01 6.617504e+00 5.000639e+00
      vertex -7.623615e+00 6.617504e+00 2.583599e+00
    endloop
  endfacet
  facet normal -5.001556e-01 8.659356e-01 2.124872e-05
    outer loop
      vertex -2.059483e+01 9.178094e+00 1.547270e+01
      vertex -2.014553e+01 9.437494e+00 2.000064e+01
      vertex -1.916452e+01 1.000426e+01 1.418915e+01
    endloop
  endfacet
  facet normal 0.000000e+00 -1.224647e-16 1.000000e+00
    outer loop
      vertex -1.916387e+01 1.102879e+01 1.000064e+01
      vertex -2.210522e+01 8.467169e+00 1.000064e+01
      vertex -2.014553e+01 9.437494e+00 1.000064e+01
    endloop
  endfacet
  facet normal -5.228776e-04 3.350783e-04 9.999998e-01
    outer loop
      vertex 6.336132e+00 4.230750e+00 2.000129e+01
      vertex 7.098653e+00 7.344083e+00 2.000064e+01
      vertex 5.435493e+00 4.750738e+00 2.000064e+01
    endloop
  endfacet
  facet normal 0.000000e+00 4.447837e-06 -1.000000e+00
    outer loop
      vertex 2.345707e+00 6.617504e+00 6.484985e-04
      vertex -4.101337e+00 4.369220e+00 6.389618e-04
      vertex -1.464144e+01 6.617504e+00 6.484985e-04
    endloop
  endfacet
  facet normal 5.000010e-01 8.660248e-01 1.060575e-16
    outer loop
      vertex -1.775557e+01 9.191174e+00 1.394982e+01
      vertex -1.666387e+01 8.560879e+00 1.514681e+01
      vertex -1.666387e+01 8.560879e+00 1.000064e+01
    endloop
  endfacet
  facet normal 3.880246e-04 1.342366e-04 9.999999e-01
    outer loop
      vertex 1.083676e+01 6.426980e+00 1.000002e+01
      vertex 8.836132e+00 7.591295e+00 1.000064e+01
      vertex 9.223232e+00 6.472343e+00 1.000064e+01
    endloop
  endfacet
  facet normal 0.000000e+00 -1.000000e+00 -1.224647e-16
    outer loop
      vertex -1.862685e+01 2.117505e+00 5.685160e+00
      vertex -2.416387e+01 2.117505e+00 9.678060e+00
      vertex -2.416387e+01 2.117505e+00 4.421009e+00
    endloop
  endfacet
  facet normal -1.443248e-07 -4.945067e-06 -1.000000e+00
    outer loop
      vertex 7.645923e+00 4.026369e+00 6.389618e-04
      vertex 3.762042e+00 2.117505e+00 6.484985e-04
      vertex -4.101337e+00 4.369220e+00 6.389618e-04
    endloop
  endfacet
  facet normal 0.000000e+00 -1.224647e-16 1.000000e+00
    outer loop
      vertex 9.107932e+00 1.052807e+01 1.000064e+01
      vertex 7.732432e+00 9.198102e+00 1.000064e+01
      vertex 8.836132e+00 8.560879e+00 1.000064e+01
    endloop
  endfacet
  facet normal 0.000000e+00 1.224647e-16 -1.000000e+00
    outer loop
      vertex -2.138917e+01 6.617504e+00 5.000639e+00
      vertex -1.720571e+01 7.617504e+00 5.000639e+00
      vertex -1.622410e+01 7.092303e+00 5.000639e+00
    endloop
  endfacet
  facet normal 0.000000e+00 1.000000e+00 1.224647e-16
    outer loop
      vertex -7.623615e+00 6.617504e+00 2.583599e+00
      vertex 2.345707e+00 6.617504e+00 6.484985e-04
      vertex -1.464144e+01 6.617504e+00 6.484985e-04
    endloop
  endfacet
  facet normal -4.946023e-04 -3.840538e-04 9.999998e-01
    outer loop
      vertex 6.336132e+00 1.000426e+01 2.000129e+01
      vertex 5.435493e+00 9.484270e+00 2.000064e+01
      vertex 7.098653e+00 7.344083e+00 2.000064e+01
    endloop
  endfacet
  facet normal 1.134733e-04 1.965415e-04 1.000000e+00
    outer loop
      vertex 8.315972e+00 1.211751e+01 9.999999e+00
      vertex 6.336132e+00 1.000426e+01 1.000064e+01
      vertex 7.732432e+00 9.198102e+00 1.000064e+01
    endloop
  endfacet
  facet normal 0.000000e+00 -2.304465e-04 1.000000e+00
    outer loop
      vertex 1.083613e+01 2.117505e+00 9.999999e+00
      vertex 8.915772e+00 4.894722e+00 1.000064e+01
      vertex 9.122422e+00 2.117505e+00 9.999999e+00
    endloop
  endfacet
  facet normal 3.134590e-06 1.224647e-16 -1.000000e+00
    outer loop
      vertex 7.645923e+00 4.026369e+00 6.389618e-04
      vertex 1.083613e+01 6.617504e+00 6.484985e-04
      vertex 1.083613e+01 4.022747e+00 6.484985e-04
    endloop
  endfacet
  facet normal -5.000007e-01 8.660250e-01 1.060575e-16
    outer loop
      vertex 3.836132e+00 8.560879e+00 2.000129e+01
      vertex 5.201552e+00 9.349206e+00 1.536323e+01
      vertex 3.836132e+00 8.560879e+00 1.492756e+01
    endloop
  endfacet
  facet normal 0.000000e+00 1.000000e+00 1.224647e-16
    outer loop
      vertex 2.498405e+00 1.211751e+01 4.171829e+00
      vertex -6.850361e+00 1.211751e+01 6.484985e-04
      vertex -1.147159e+01 1.211751e+01 4.511410e+00
    endloop
  endfacet
  facet normal 1.163323e-05 -2.774526e-04 -9.999999e-01
    outer loop
      vertex -1.776709e+01 4.579013e+00 6.389618e-04
      vertex -2.416387e+01 4.274762e+00 6.484985e-04
      vertex -2.416387e+01 6.617504e+00 0.000000e+00
    endloop
  endfacet
  facet normal 0.000000e+00 1.000000e+00 1.224647e-16
    outer loop
      vertex 1.083613e+01 1.211751e+01 4.693179e+00
      vertex 1.083613e+01 1.211751e+01 6.484985e-04
      vertex 5.687443e+00 1.211751e+01 6.484985e-04
    endloop
  endfacet
  facet normal -5.000001e-01 8.660254e-01 1.060575e-16
    outer loop
      vertex 5.435493e+00 9.484270e+00 1.000064e+01
      vertex 3.836132e+00 8.560879e+00 1.000064e+01
      vertex 3.836132e+00 8.560879e+00 1.492756e+01
    endloop
  endfacet
  facet normal 0.000000e+00 1.000000e+00 1.224647e-16
    outer loop
      vertex -7.623615e+00 6.617504e+00 2.583599e+00
      vertex -1.084481e+01 6.617504e+00 5.000639e+00
      vertex 4.396493e+00 6.617504e+00 5.000639e+00
    endloop
  endfacet
  facet normal 1.000000e+00 0.000000e+00 0.000000e+00
    outer loop
      vertex 8.836132e+00 6.956214e+00 2.000064e+01
      vertex 8.836132e+00 8.560879e+00 1.573149e+01
      vertex 8.836132e+00 8.560879e+00 2.000129e+01
    endloop
  endfacet
  facet normal -1.236020e-06 -1.346705e-06 -1.000000e+00
    outer loop
      vertex -1.464144e+01 6.617504e+00 6.484985e-04
      vertex -4.101337e+00 4.369220e+00 6.389618e-04
      vertex -9.738466e+00 2.117505e+00 6.484985e-04
    endloop
  endfacet
  facet normal -1.000000e+00 0.000000e+00 -0.000000e+00
    outer loop
      vertex -2.416387e+01 1.069708e+01 2.353849e+00
      vertex -2.416387e+01 1.211751e+01 6.484985e-04
      vertex -2.416387e+01 1.023746e+01 6.484985e-04
    endloop
  endfacet
  facet normal 0.000000e+00 5.878510e-04 9.999998e-01
    outer loop
      vertex -1.916387e+01 1.102879e+01 1.000064e+01
      vertex -9.657818e+00 1.211751e+01 9.999999e+00
      vertex -1.909331e+01 1.211751e+01 9.999999e+00
    endloop
  endfacet
  facet normal 0.000000e+00 1.224647e-16 -1.000000e+00
    outer loop
      vertex 6.057113e+00 7.137666e+00 5.000639e+00
      vertex 1.083677e+01 6.617504e+00 5.000639e+00
      vertex 4.396493e+00 6.617504e+00 5.000639e+00
    endloop
  endfacet
  facet normal 0.000000e+00 1.000000e+00 1.224647e-16
    outer loop
      vertex -2.416387e+01 1.211751e+01 9.678060e+00
      vertex -1.944219e+01 1.211751e+01 5.210269e+00
      vertex -2.416387e+01 1.211751e+01 4.728469e+00
    endloop
  endfacet
  facet normal 0.000000e+00 1.224647e-16 -1.000000e+00
    outer loop
      vertex -2.416387e+01 1.023746e+01 6.484985e-04
      vertex -2.416387e+01 1.211751e+01 6.484985e-04
      vertex -1.714522e+01 1.211751e+01 6.484985e-04
    endloop
  endfacet
  facet normal 0.000000e+00 -1.000000e+00 -1.224647e-16
    outer loop
      vertex 1.166272e+00 7.617504e+00 6.484985e-04
      vertex -2.059517e-01 7.617504e+00 5.000639e+00
      vertex -2.045116e+00 7.617504e+00 2.264860e+00
    endloop
  endfacet
  facet normal -2.663405e-04 -4.208657e-05 9.999999e-01
    outer loop
      vertex -2.416387e+01 6.288371e+00 9.999999e+00
      vertex -2.166387e+01 5.674131e+00 1.000064e+01
      vertex -2.210522e+01 8.467169e+00 1.000064e+01
    endloop
  endfacet
  facet normal -1.000000e+00 0.000000e+00 -0.000000e+00
    outer loop
      vertex -2.416387e+01 6.288371e+00 9.999999e+00
      vertex -2.416387e+01 8.420212e+00 6.346649e+00
      vertex -2.416387e+01 6.617504e+00 5.000639e+00
    endloop
  endfacet
  facet normal 1.000000e+00 0.000000e+00 0.000000e+00
    outer loop
      vertex 8.836132e+00 5.674129e+00 1.000064e+01
      vertex 8.836132e+00 6.997856e+00 1.395092e+01
      vertex 8.836132e+00 5.674129e+00 1.597847e+01
    endloop
  endfacet
  facet normal 1.000000e+00 0.000000e+00 0.000000e+00
    outer loop
      vertex 1.083613e+01 5.982390e+00 6.998790e+00
      vertex 1.083613e+01 1.211751e+01 4.693179e+00
      vertex 1.083613e+01 1.211751e+01 9.999999e+00
    endloop
  endfacet
  facet normal 0.000000e+00 1.224647e-16 -1.000000e+00
    outer loop
      vertex -2.059517e-01 7.617504e+00 5.000639e+00
      vertex 6.057113e+00 7.137666e+00 5.000639e+00
      vertex 4.396493e+00 6.617504e+00 5.000639e+00
    endloop
  endfacet
  facet normal 5.000008e-01 -8.660249e-01 -1.060575e-16
    outer loop
      vertex -1.666387e+01 5.674131e+00 1.533835e+01
      vertex -1.818221e+01 4.797515e+00 1.000064e+01
      vertex -1.666387e+01 5.674131e+00 1.000064e+01
    endloop
  endfacet
  facet normal 0.000000e+00 -1.000000e+00 -1.224647e-16
    outer loop
      vertex 1.726913e+00 2.117505e+00 4.585509e+00
      vertex 1.083613e+01 2.117505e+00 4.168989e+00
      vertex 9.122422e+00 2.117505e+00 9.999999e+00
    endloop
  endfacet
  facet normal 5.000007e-01 -8.660250e-01 -6.420319e-07
    outer loop
      vertex 8.836132e+00 5.674129e+00 1.597847e+01
      vertex 7.430022e+00 4.862308e+00 1.802610e+01
      vertex 7.570232e+00 4.943262e+00 1.321101e+01
    endloop
  endfacet
  facet normal 5.000009e-01 8.660249e-01 -5.577476e-05
    outer loop
      vertex -1.818221e+01 9.437494e+00 2.000064e+01
      vertex -1.916452e+01 1.000426e+01 1.418915e+01
      vertex -1.916387e+01 1.000426e+01 2.000064e+01
    endloop
  endfacet
  facet normal -1.000000e+00 0.000000e+00 -0.000000e+00
    outer loop
      vertex -2.416387e+01 4.340601e+00 6.405119e+00
      vertex -2.416387e+01 6.617504e+00 5.000639e+00
      vertex -2.416387e+01 6.617504e+00 2.782900e+00
    endloop
  endfacet
  facet normal -2.627463e-04 2.717415e-04 9.999999e-01
    outer loop
      vertex 8.315972e+00 1.211751e+01 9.999999e+00
      vertex 7.732432e+00 9.198102e+00 1.000064e+01
      vertex 9.107932e+00 1.052807e+01 1.000064e+01
    endloop
  endfacet
  facet normal 0.000000e+00 -1.000000e+00 -1.224647e-16
    outer loop
      vertex -2.028211e+01 7.617504e+00 1.997620e+00
      vertex -2.416387e+01 7.617504e+00 5.000639e+00
      vertex -2.416387e+01 7.617504e+00 2.490570e+00
    endloop
  endfacet
  facet normal 0.000000e+00 1.224647e-16 -1.000000e+00
    outer loop
      vertex -2.416387e+01 7.617504e+00 5.000639e+00
      vertex -1.720571e+01 7.617504e+00 5.000639e+00
      vertex -2.259003e+01 7.157827e+00 5.000639e+00
    endloop
  endfacet
  facet normal 0.000000e+00 1.000000e+00 1.224647e-16
    outer loop
      vertex -1.348851e+00 1.211751e+01 9.999999e+00
      vertex 2.498405e+00 1.211751e+01 4.171829e+00
      vertex -1.147159e+01 1.211751e+01 4.511410e+00
    endloop
  endfacet
  facet normal 2.700980e-04 -3.731850e-05 9.999999e-01
    outer loop
      vertex 1.083676e+01 6.426980e+00 1.000002e+01
      vertex 9.107932e+00 1.052807e+01 1.000064e+01
      vertex 8.836132e+00 8.560879e+00 1.000064e+01
    endloop
  endfacet
  facet normal 0.000000e+00 1.000000e+00 1.224647e-16
    outer loop
      vertex -1.944219e+01 1.211751e+01 5.210269e+00
      vertex -2.416387e+01 1.211751e+01 6.484985e-04
      vertex -2.416387e+01 1.211751e+01 4.728469e+00
    endloop
  endfacet
  facet normal 4.860895e-05 8.419307e-05 1.000000e+00
    outer loop
      vertex -1.666387e+01 8.560879e+00 1.000064e+01
      vertex -9.657818e+00 1.211751e+01 9.999999e+00
      vertex -1.818221e+01 9.437494e+00 1.000064e+01
    endloop
  endfacet
  facet normal -5.000004e-01 8.660251e-01 1.060575e-16
    outer loop
      vertex -2.014553e+01 9.437494e+00 2.000064e+01
      vertex -2.166387e+01 8.560879e+00 1.583734e+01
      vertex -2.166387e+01 8.560879e+00 2.000064e+01
    endloop
  endfacet
  facet normal 0.000000e+00 -1.000000e+00 -1.224647e-16
    outer loop
      vertex -1.757617e+01 2.117505e+00 9.999999e+00
      vertex -2.416387e+01 2.117505e+00 9.678060e+00
      vertex -1.862685e+01 2.117505e+00 5.685160e+00
    endloop
  endfacet
  facet normal 4.999999e-01 8.660254e-01 -1.630988e-08
    outer loop
      vertex 7.524222e+00 9.318312e+00 1.614700e+01
      vertex 6.336132e+00 1.000426e+01 2.000129e+01
      vertex 7.732432e+00 9.198102e+00 2.000064e+01
    endloop
  endfacet
  facet normal 1.091163e-07 -1.889945e-07 1.000000e+00
    outer loop
      vertex -1.916387e+01 4.230752e+00 2.000064e+01
      vertex -1.818221e+01 4.797515e+00 2.000064e+01
      vertex -1.974845e+01 7.362127e+00 2.000064e+01
    endloop
  endfacet
  facet normal -1.000000e+00 0.000000e+00 0.000000e+00
    outer loop
      vertex -2.166387e+01 5.674131e+00 1.568109e+01
      vertex -2.166387e+01 7.440085e+00 2.000064e+01
      vertex -2.166387e+01 7.226688e+00 1.561070e+01
    endloop
  endfacet
  facet normal 3.134590e-06 1.224647e-16 -1.000000e+00
    outer loop
      vertex 7.645923e+00 4.026369e+00 6.389618e-04
      vertex 1.083613e+01 4.022747e+00 6.484985e-04
      vertex 1.083613e+01 2.117505e+00 6.484985e-04
    endloop
  endfacet
  facet normal -5.001802e-01 -8.659213e-01 1.609906e-05
    outer loop
      vertex -2.041517e+01 4.953190e+00 1.588329e+01
      vertex -1.916452e+01 4.230752e+00 1.438573e+01
      vertex -2.014553e+01 4.797515e+00 2.000064e+01
    endloop
  endfacet
  facet normal 9.999999e-01 1.738249e-04 4.625396e-04
    outer loop
      vertex 1.083677e+01 7.617504e+00 5.000639e+00
      vertex 1.083613e+01 1.211751e+01 4.693179e+00
      vertex 1.083613e+01 5.982390e+00 6.998790e+00
    endloop
  endfacet
  facet normal 9.999999e-01 5.136774e-05 -2.583824e-04
    outer loop
      vertex 1.083621e+01 7.617504e+00 2.833309e+00
      vertex 1.083613e+01 1.026109e+01 3.049250e+00
      vertex 1.083677e+01 7.617504e+00 5.000639e+00
    endloop
  endfacet
  facet normal 0.000000e+00 1.000000e+00 1.224647e-16
    outer loop
      vertex -1.944219e+01 1.211751e+01 5.210269e+00
      vertex -1.147159e+01 1.211751e+01 4.511410e+00
      vertex -1.714522e+01 1.211751e+01 6.484985e-04
    endloop
  endfacet
  facet normal -6.665211e-01 6.665170e-01 3.339231e-01
    outer loop
      vertex -2.416387e+01 1.211751e+01 9.678060e+00
      vertex -2.416387e+01 1.195621e+01 9.999999e+00
      vertex -2.400258e+01 1.211751e+01 9.999999e+00
    endloop
  endfacet
  facet normal 1.000000e+00 0.000000e+00 0.000000e+00
    outer loop
      vertex -1.666387e+01 6.724359e+00 2.000064e+01
      vertex -1.666387e+01 5.674131e+00 1.533835e+01
      vertex -1.666387e+01 7.187557e+00 1.410154e+01
    endloop
  endfacet
  facet normal 0.000000e+00 3.694597e-06 -1.000000e+00
    outer loop
      vertex 5.687443e+00 1.211751e+01 6.484985e-04
      vertex 1.083613e+01 1.211751e+01 6.484985e-04
      vertex 1.083613e+01 9.410850e+00 6.389618e-04
    endloop
  endfacet
  facet normal 1.000000e+00 3.096739e-05 -8.636640e-06
    outer loop
      vertex 1.083621e+01 7.617504e+00 2.833309e+00
      vertex 1.083613e+01 9.410850e+00 6.389618e-04
      vertex 1.083613e+01 1.026109e+01 3.049250e+00
    endloop
  endfacet
  facet normal 6.288278e-05 3.879187e-05 1.000000e+00
    outer loop
      vertex -1.818221e+01 9.437494e+00 1.000064e+01
      vertex -9.657818e+00 1.211751e+01 9.999999e+00
      vertex -1.916387e+01 1.102879e+01 1.000064e+01
    endloop
  endfacet
  facet normal 0.000000e+00 -1.000000e+00 -1.224647e-16
    outer loop
      vertex 1.726913e+00 2.117505e+00 4.585509e+00
      vertex -9.753586e+00 2.117505e+00 9.999999e+00
      vertex -1.014022e+01 2.117505e+00 4.183399e+00
    endloop
  endfacet
  facet normal 0.000000e+00 -1.000000e+00 -1.224647e-16
    outer loop
      vertex 1.083613e+01 2.117505e+00 4.168989e+00
      vertex 1.083613e+01 2.117505e+00 9.999999e+00
      vertex 9.122422e+00 2.117505e+00 9.999999e+00
    endloop
  endfacet
  facet normal -1.000000e+00 0.000000e+00 -0.000000e+00
    outer loop
      vertex -2.416387e+01 1.069708e+01 2.353849e+00
      vertex -2.416387e+01 7.617504e+00 5.000639e+00
      vertex -2.416387e+01 8.420212e+00 6.346649e+00
    endloop
  endfacet
  facet normal 4.998302e-01 -8.661234e-01 -1.806632e-05
    outer loop
      vertex -1.916452e+01 4.230752e+00 1.438573e+01
      vertex -1.785357e+01 4.987256e+00 1.585230e+01
      vertex -1.818221e+01 4.797515e+00 2.000064e+01
    endloop
  endfacet
  facet normal 0.000000e+00 -1.000000e+00 -1.224647e-16
    outer loop
      vertex 1.083621e+01 7.617504e+00 2.833309e+00
      vertex 1.083677e+01 7.617504e+00 5.000639e+00
      vertex -2.059517e-01 7.617504e+00 5.000639e+00
    endloop
  endfacet
  facet normal 0.000000e+00 1.000000e+00 1.224647e-16
    outer loop
      vertex 1.083677e+01 6.617504e+00 5.000639e+00
      vertex 5.222512e+00 6.617504e+00 2.447790e+00
      vertex 4.396493e+00 6.617504e+00 5.000639e+00
    endloop
  endfacet
  facet normal -5.000000e-01 8.660254e-01 2.488773e-07
    outer loop
      vertex 3.836132e+00 8.560879e+00 2.000129e+01
      vertex 5.435493e+00 9.484270e+00 2.000064e+01
      vertex 5.201552e+00 9.349206e+00 1.536323e+01
    endloop
  endfacet
  facet normal 0.000000e+00 -1.224647e-16 1.000000e+00
    outer loop
      vertex -2.247316e+01 4.803366e+00 1.000064e+01
      vertex -1.814699e+01 3.260398e+00 1.000064e+01
      vertex -1.916452e+01 4.230752e+00 1.000064e+01
    endloop
  endfacet
  facet normal 0.000000e+00 1.753263e-04 1.000000e+00
    outer loop
      vertex -2.400258e+01 1.211751e+01 9.999999e+00
      vertex -2.210522e+01 8.467169e+00 1.000064e+01
      vertex -1.909331e+01 1.211751e+01 9.999999e+00
    endloop
  endfacet
  facet normal -1.000000e+00 -0.000000e+00 0.000000e+00
    outer loop
      vertex -2.166387e+01 5.674131e+00 1.568109e+01
      vertex -2.166387e+01 5.674131e+00 2.000064e+01
      vertex -2.166387e+01 7.440085e+00 2.000064e+01
    endloop
  endfacet
  facet normal -1.000000e+00 -0.000000e+00 0.000000e+00
    outer loop
      vertex -2.166387e+01 7.319118e+00 1.000064e+01
      vertex -2.166387e+01 7.226688e+00 1.561070e+01
      vertex -2.166387e+01 8.560879e+00 1.583734e+01
    endloop
  endfacet
  facet normal 5.000004e-01 8.660251e-01 -2.187813e-07
    outer loop
      vertex -1.775557e+01 9.191174e+00 1.394982e+01
      vertex -1.666387e+01 8.560879e+00 1.000064e+01
      vertex -1.818221e+01 9.437494e+00 1.000064e+01
    endloop
  endfacet
  facet normal 4.998025e-01 -8.661394e-01 1.487761e-05
    outer loop
      vertex -1.785357e+01 4.987256e+00 1.585230e+01
      vertex -1.916452e+01 4.230752e+00 1.438573e+01
      vertex -1.818221e+01 4.797515e+00 1.000064e+01
    endloop
  endfacet
  facet normal 5.000008e-01 -8.660249e-01 -3.680616e-08
    outer loop
      vertex -1.785357e+01 4.987256e+00 1.585230e+01
      vertex -1.666387e+01 5.674131e+00 2.000129e+01
      vertex -1.818221e+01 4.797515e+00 2.000064e+01
    endloop
  endfacet
  facet normal -1.000000e+00 -0.000000e+00 0.000000e+00
    outer loop
      vertex 3.836132e+00 6.915892e+00 1.000064e+01
      vertex 3.836132e+00 5.674129e+00 1.502081e+01
      vertex 3.836132e+00 7.327524e+00 1.578018e+01
    endloop
  endfacet
  facet normal 5.000000e-01 8.660254e-01 1.060575e-16
    outer loop
      vertex 7.524222e+00 9.318312e+00 1.614700e+01
      vertex 6.336132e+00 1.000426e+01 1.508633e+01
      vertex 6.336132e+00 1.000426e+01 2.000129e+01
    endloop
  endfacet
  facet normal -4.999991e-01 -8.660259e-01 -1.060576e-16
    outer loop
      vertex 4.945703e+00 5.033520e+00 1.703536e+01
      vertex 3.836132e+00 5.674129e+00 2.000129e+01
      vertex 3.836132e+00 5.674129e+00 1.502081e+01
    endloop
  endfacet
  facet normal -7.795825e-04 6.143060e-04 9.999995e-01
    outer loop
      vertex -1.666387e+01 6.724359e+00 2.000064e+01
      vertex -1.818221e+01 4.797515e+00 2.000064e+01
      vertex -1.666387e+01 5.674131e+00 2.000129e+01
    endloop
  endfacet
  facet normal 3.924002e-06 -1.467345e-04 1.000000e+00
    outer loop
      vertex -9.753586e+00 2.117505e+00 9.999999e+00
      vertex 3.952146e-01 6.750525e+00 1.000064e+01
      vertex -9.957937e+00 6.473659e+00 1.000064e+01
    endloop
  endfacet
  facet normal 0.000000e+00 -1.000000e+00 -1.224647e-16
    outer loop
      vertex -2.028211e+01 7.617504e+00 1.997620e+00
      vertex -2.416387e+01 7.617504e+00 2.490570e+00
      vertex -2.416387e+01 7.617504e+00 6.484985e-04
    endloop
  endfacet
  facet normal 0.000000e+00 -1.224647e-16 1.000000e+00
    outer loop
      vertex -2.247316e+01 4.803366e+00 1.000064e+01
      vertex -1.916452e+01 4.230752e+00 1.000064e+01
      vertex -2.014553e+01 4.797515e+00 1.000064e+01
    endloop
  endfacet
  facet normal 1.000000e+00 0.000000e+00 0.000000e+00
    outer loop
      vertex 1.083613e+01 4.022747e+00 6.484985e-04
      vertex 1.083613e+01 2.117505e+00 4.168989e+00
      vertex 1.083613e+01 2.117505e+00 6.484985e-04
    endloop
  endfacet
  facet normal -1.000000e+00 0.000000e+00 -0.000000e+00
    outer loop
      vertex 3.836132e+00 8.560879e+00 1.492756e+01
      vertex 3.836132e+00 8.560879e+00 1.000064e+01
      vertex 3.836132e+00 6.915892e+00 1.000064e+01
    endloop
  endfacet
  facet normal 0.000000e+00 -1.000000e+00 -1.224647e-16
    outer loop
      vertex -1.757617e+01 2.117505e+00 9.999999e+00
      vertex -2.400258e+01 2.117505e+00 9.999999e+00
      vertex -2.416387e+01 2.117505e+00 9.678060e+00
    endloop
  endfacet
  facet normal 6.064766e-04 5.847595e-05 9.999998e-01
    outer loop
      vertex 6.336132e+00 4.230750e+00 2.000129e+01
      vertex 7.343822e+00 4.812542e+00 2.000064e+01
      vertex 7.098653e+00 7.344083e+00 2.000064e+01
    endloop
  endfacet
  facet normal -8.937568e-05 -4.020535e-04 9.999999e-01
    outer loop
      vertex 8.836132e+00 8.560879e+00 2.000129e+01
      vertex 7.098653e+00 7.344083e+00 2.000064e+01
      vertex 8.836132e+00 6.956214e+00 2.000064e+01
    endloop
  endfacet
  facet normal 4.999999e-01 8.660254e-01 1.166553e-08
    outer loop
      vertex 7.732432e+00 9.198102e+00 1.000064e+01
      vertex 6.336132e+00 1.000426e+01 1.508633e+01
      vertex 7.524222e+00 9.318312e+00 1.614700e+01
    endloop
  endfacet
  facet normal 0.000000e+00 -1.224647e-16 1.000000e+00
    outer loop
      vertex -2.210522e+01 8.467169e+00 1.000064e+01
      vertex -2.166387e+01 5.674131e+00 1.000064e+01
      vertex -2.166387e+01 7.319118e+00 1.000064e+01
    endloop
  endfacet
  facet normal 0.000000e+00 1.224647e-16 -1.000000e+00
    outer loop
      vertex 4.396493e+00 6.617504e+00 5.000639e+00
      vertex -1.084481e+01 6.617504e+00 5.000639e+00
      vertex -6.531559e+00 7.142706e+00 5.000639e+00
    endloop
  endfacet
  facet normal 0.000000e+00 1.000000e+00 1.224647e-16
    outer loop
      vertex -7.623615e+00 6.617504e+00 2.583599e+00
      vertex 4.396493e+00 6.617504e+00 5.000639e+00
      vertex 5.222512e+00 6.617504e+00 2.447790e+00
    endloop
  endfacet
  facet normal -5.000006e-01 8.660250e-01 -2.486401e-07
    outer loop
      vertex 5.435493e+00 9.484270e+00 1.000064e+01
      vertex 3.836132e+00 8.560879e+00 1.492756e+01
      vertex 5.201552e+00 9.349206e+00 1.536323e+01
    endloop
  endfacet
  facet normal -5.000021e-01 -8.660242e-01 1.405670e-06
    outer loop
      vertex 5.365132e+00 4.791361e+00 1.261185e+01
      vertex 4.749772e+00 5.146637e+00 1.000064e+01
      vertex 6.336132e+00 4.230750e+00 1.213774e+01
    endloop
  endfacet
  facet normal -4.999992e-01 -8.660259e-01 4.923344e-07
    outer loop
      vertex 4.749772e+00 5.146637e+00 1.000064e+01
      vertex 5.365132e+00 4.791361e+00 1.261185e+01
      vertex 3.836132e+00 5.674129e+00 1.502081e+01
    endloop
  endfacet
  facet normal 0.000000e+00 1.000000e+00 1.224647e-16
    outer loop
      vertex 8.315972e+00 1.211751e+01 9.999999e+00
      vertex 1.083613e+01 1.211751e+01 4.693179e+00
      vertex 2.498405e+00 1.211751e+01 4.171829e+00
    endloop
  endfacet
  facet normal 1.000000e+00 0.000000e+00 0.000000e+00
    outer loop
      vertex 8.836132e+00 8.560879e+00 1.573149e+01
      vertex 8.836132e+00 7.591295e+00 1.000064e+01
      vertex 8.836132e+00 8.560879e+00 1.000064e+01
    endloop
  endfacet
  facet normal -1.000000e+00 0.000000e+00 -0.000000e+00
    outer loop
      vertex -2.416387e+01 2.117505e+00 4.421009e+00
      vertex -2.416387e+01 4.274762e+00 6.484985e-04
      vertex -2.416387e+01 2.117505e+00 0.000000e+00
    endloop
  endfacet
  facet normal -8.913151e-05 -2.128199e-05 1.000000e+00
    outer loop
      vertex -1.348851e+00 1.211751e+01 9.999999e+00
      vertex 6.336132e+00 1.000426e+01 1.000064e+01
      vertex 6.125953e+00 1.088452e+01 1.000064e+01
    endloop
  endfacet
  facet normal 0.000000e+00 1.224647e-16 -1.000000e+00
    outer loop
      vertex -6.531559e+00 7.142706e+00 5.000639e+00
      vertex -1.622410e+01 7.092303e+00 5.000639e+00
      vertex -1.720571e+01 7.617504e+00 5.000639e+00
    endloop
  endfacet
  facet normal 4.671717e-01 -8.839879e-01 -1.777590e-02
    outer loop
      vertex 6.320003e+00 4.240064e+00 1.532323e+01
      vertex 7.570232e+00 4.943262e+00 1.321101e+01
      vertex 6.336132e+00 4.230750e+00 1.621032e+01
    endloop
  endfacet
  facet normal 0.000000e+00 -1.000000e+00 -1.224647e-16
    outer loop
      vertex 1.726913e+00 2.117505e+00 4.585509e+00
      vertex 9.122422e+00 2.117505e+00 9.999999e+00
      vertex 1.710629e+00 2.117505e+00 9.999999e+00
    endloop
  endfacet
  facet normal -1.000000e+00 0.000000e+00 -0.000000e+00
    outer loop
      vertex -2.416387e+01 4.274762e+00 6.484985e-04
      vertex -2.416387e+01 4.340601e+00 6.405119e+00
      vertex -2.416387e+01 6.617504e+00 2.782900e+00
    endloop
  endfacet
  facet normal -1.000000e+00 0.000000e+00 -0.000000e+00
    outer loop
      vertex -2.416387e+01 2.117505e+00 9.678060e+00
      vertex -2.416387e+01 4.340601e+00 6.405119e+00
      vertex -2.416387e+01 2.117505e+00 4.421009e+00
    endloop
  endfacet
  facet normal 0.000000e+00 1.224647e-16 -1.000000e+00
    outer loop
      vertex -2.416387e+01 1.023746e+01 6.484985e-04
      vertex -1.607919e+01 7.617504e+00 6.484985e-04
      vertex -2.416387e+01 7.617504e+00 6.484985e-04
    endloop
  endfacet
  facet normal 0.000000e+00 1.224647e-16 -1.000000e+00
    outer loop
      vertex 1.083677e+01 7.617504e+00 5.000639e+00
      vertex 6.057113e+00 7.137666e+00 5.000639e+00
      vertex -2.059517e-01 7.617504e+00 5.000639e+00
    endloop
  endfacet
  facet normal -1.000000e+00 0.000000e+00 -0.000000e+00
    outer loop
      vertex -2.416387e+01 1.211751e+01 9.678060e+00
      vertex -2.416387e+01 1.211751e+01 4.728469e+00
      vertex -2.416387e+01 8.420212e+00 6.346649e+00
    endloop
  endfacet
  facet normal 1.000000e+00 0.000000e+00 0.000000e+00
    outer loop
      vertex -1.666387e+01 5.674131e+00 1.533835e+01
      vertex -1.666387e+01 6.875568e+00 1.000064e+01
      vertex -1.666387e+01 7.187557e+00 1.410154e+01
    endloop
  endfacet
  facet normal 2.984275e-04 3.049339e-05 9.999999e-01
    outer loop
      vertex 8.836132e+00 5.674129e+00 1.000064e+01
      vertex 8.915772e+00 4.894722e+00 1.000064e+01
      vertex 1.083676e+01 6.426980e+00 1.000002e+01
    endloop
  endfacet
  facet normal 0.000000e+00 1.000000e+00 1.224647e-16
    outer loop
      vertex 8.315972e+00 1.211751e+01 9.999999e+00
      vertex 1.083613e+01 1.211751e+01 9.999999e+00
      vertex 1.083613e+01 1.211751e+01 4.693179e+00
    endloop
  endfacet
  facet normal 0.000000e+00 4.623497e-06 -1.000000e+00
    outer loop
      vertex -1.714522e+01 1.211751e+01 6.484985e-04
      vertex -6.850361e+00 1.211751e+01 6.484985e-04
      vertex -1.267941e+01 9.954640e+00 6.389618e-04
    endloop
  endfacet
  facet normal 2.942796e-04 -1.889798e-04 9.999999e-01
    outer loop
      vertex 3.836132e+00 5.674129e+00 2.000129e+01
      vertex 5.435493e+00 4.750738e+00 2.000064e+01
      vertex 7.098653e+00 7.344083e+00 2.000064e+01
    endloop
  endfacet
  facet normal 0.000000e+00 1.224647e-16 -1.000000e+00
    outer loop
      vertex -2.416387e+01 6.617504e+00 5.000639e+00
      vertex -2.416387e+01 7.198150e+00 5.000639e+00
      vertex -2.259003e+01 7.157827e+00 5.000639e+00
    endloop
  endfacet
  facet normal -5.000008e-01 -8.660249e-01 4.375797e-07
    outer loop
      vertex -2.041517e+01 4.953190e+00 1.588329e+01
      vertex -2.014553e+01 4.797515e+00 2.000064e+01
      vertex -2.166387e+01 5.674131e+00 2.000064e+01
    endloop
  endfacet
  facet normal 0.000000e+00 -1.000000e+00 -1.224647e-16
    outer loop
      vertex -1.607919e+01 7.617504e+00 6.484985e-04
      vertex -1.720571e+01 7.617504e+00 5.000639e+00
      vertex -2.028211e+01 7.617504e+00 1.997620e+00
    endloop
  endfacet
  facet normal 5.000004e-01 8.660251e-01 1.060575e-16
    outer loop
      vertex -1.818221e+01 9.437494e+00 2.000064e+01
      vertex -1.666387e+01 8.560879e+00 2.000129e+01
      vertex -1.666387e+01 8.560879e+00 1.514681e+01
    endloop
  endfacet
  facet normal 0.000000e+00 -1.224647e-16 1.000000e+00
    outer loop
      vertex -1.818221e+01 9.437494e+00 1.000064e+01
      vertex -1.916387e+01 1.102879e+01 1.000064e+01
      vertex -1.916452e+01 1.000426e+01 1.000064e+01
    endloop
  endfacet
  facet normal 0.000000e+00 -1.000000e+00 -1.224647e-16
    outer loop
      vertex -9.753586e+00 2.117505e+00 9.999999e+00
      vertex -1.757617e+01 2.117505e+00 9.999999e+00
      vertex -1.862685e+01 2.117505e+00 5.685160e+00
    endloop
  endfacet
  facet normal 0.000000e+00 -1.000000e+00 -1.224647e-16
    outer loop
      vertex 1.083613e+01 2.117505e+00 4.168989e+00
      vertex 1.726913e+00 2.117505e+00 4.585509e+00
      vertex 3.762042e+00 2.117505e+00 6.484985e-04
    endloop
  endfacet
  facet normal -5.000009e-01 8.660249e-01 5.607280e-05
    outer loop
      vertex -1.916452e+01 1.000426e+01 1.418915e+01
      vertex -2.014553e+01 9.437494e+00 2.000064e+01
      vertex -1.916387e+01 1.000426e+01 2.000064e+01
    endloop
  endfacet
  facet normal -5.000024e-01 8.660240e-01 9.904693e-07
    outer loop
      vertex -2.059483e+01 9.178094e+00 1.547270e+01
      vertex -2.166387e+01 8.560879e+00 1.583734e+01
      vertex -2.014553e+01 9.437494e+00 2.000064e+01
    endloop
  endfacet
  facet normal 5.000007e-01 8.660250e-01 -7.138023e-08
    outer loop
      vertex 8.836132e+00 8.560879e+00 1.573149e+01
      vertex 7.524222e+00 9.318312e+00 1.614700e+01
      vertex 7.732432e+00 9.198102e+00 2.000064e+01
    endloop
  endfacet
  facet normal -5.425855e-04 6.230162e-04 9.999996e-01
    outer loop
      vertex -1.916387e+01 1.102879e+01 1.000064e+01
      vertex -1.909331e+01 1.211751e+01 9.999999e+00
      vertex -2.210522e+01 8.467169e+00 1.000064e+01
    endloop
  endfacet
  facet normal 0.000000e+00 -1.224647e-16 1.000000e+00
    outer loop
      vertex -1.814699e+01 3.260398e+00 1.000064e+01
      vertex -1.818221e+01 4.797515e+00 1.000064e+01
      vertex -1.916452e+01 4.230752e+00 1.000064e+01
    endloop
  endfacet
  facet normal 0.000000e+00 1.000000e+00 1.224647e-16
    outer loop
      vertex -2.416387e+01 6.617504e+00 2.782900e+00
      vertex -2.416387e+01 6.617504e+00 5.000639e+00
      vertex -2.138917e+01 6.617504e+00 5.000639e+00
    endloop
  endfacet
  facet normal -5.000028e-01 -8.660238e-01 -1.239846e-06
    outer loop
      vertex 6.320003e+00 4.240064e+00 1.532323e+01
      vertex 6.336132e+00 4.230750e+00 1.621032e+01
      vertex 4.945703e+00 5.033520e+00 1.703536e+01
    endloop
  endfacet
  facet normal -1.000000e+00 0.000000e+00 -0.000000e+00
    outer loop
      vertex -2.166387e+01 7.440085e+00 2.000064e+01
      vertex -2.166387e+01 8.560879e+00 1.583734e+01
      vertex -2.166387e+01 7.226688e+00 1.561070e+01
    endloop
  endfacet
  facet normal 0.000000e+00 -4.062550e-06 -1.000000e+00
    outer loop
      vertex -1.776709e+01 4.579013e+00 6.389618e-04
      vertex -9.738466e+00 2.117505e+00 6.484985e-04
      vertex -2.000057e+01 2.117505e+00 6.484985e-04
    endloop
  endfacet
  facet normal 0.000000e+00 -4.278741e-06 -1.000000e+00
    outer loop
      vertex -1.607919e+01 7.617504e+00 6.484985e-04
      vertex -1.267941e+01 9.954640e+00 6.389618e-04
      vertex 1.166272e+00 7.617504e+00 6.484985e-04
    endloop
  endfacet
  facet normal 0.000000e+00 -1.000000e+00 -1.224647e-16
    outer loop
      vertex -2.028211e+01 7.617504e+00 1.997620e+00
      vertex -2.416387e+01 7.617504e+00 6.484985e-04
      vertex -1.607919e+01 7.617504e+00 6.484985e-04
    endloop
  endfacet
  facet normal -5.000006e-01 -8.660250e-01 1.117742e-06
    outer loop
      vertex 6.320003e+00 4.240064e+00 1.532323e+01
      vertex 4.945703e+00 5.033520e+00 1.703536e+01
      vertex 3.836132e+00 5.674129e+00 1.502081e+01
    endloop
  endfacet
  facet normal 2.047779e-07 4.084133e-06 -1.000000e+00
    outer loop
      vertex 5.687443e+00 1.211751e+01 6.484985e-04
      vertex 1.083613e+01 9.410850e+00 6.389618e-04
      vertex 4.952453e+00 9.705857e+00 6.389618e-04
    endloop
  endfacet
  facet normal -2.793905e-05 -2.325254e-04 1.000000e+00
    outer loop
      vertex 8.915772e+00 4.894722e+00 1.000064e+01
      vertex 7.732432e+00 5.036906e+00 1.000064e+01
      vertex 9.122422e+00 2.117505e+00 9.999999e+00
    endloop
  endfacet
  facet normal 4.997534e-01 8.661678e-01 1.060750e-16
    outer loop
      vertex -1.916452e+01 1.000426e+01 1.418915e+01
      vertex -1.818221e+01 9.437494e+00 1.000064e+01
      vertex -1.916452e+01 1.000426e+01 1.000064e+01
    endloop
  endfacet
  facet normal 0.000000e+00 -1.000000e+00 -1.224647e-16
    outer loop
      vertex 1.166272e+00 7.617504e+00 6.484985e-04
      vertex -2.045116e+00 7.617504e+00 2.264860e+00
      vertex -1.607919e+01 7.617504e+00 6.484985e-04
    endloop
  endfacet
  facet normal 0.000000e+00 -1.000000e+00 -1.224647e-16
    outer loop
      vertex -1.014022e+01 2.117505e+00 4.183399e+00
      vertex -2.000057e+01 2.117505e+00 6.484985e-04
      vertex -9.738466e+00 2.117505e+00 6.484985e-04
    endloop
  endfacet
  facet normal -1.000000e+00 0.000000e+00 0.000000e+00
    outer loop
      vertex -2.416387e+01 1.069708e+01 2.353849e+00
      vertex -2.416387e+01 1.211751e+01 4.728469e+00
      vertex -2.416387e+01 1.211751e+01 6.484985e-04
    endloop
  endfacet
  facet normal -1.431853e-06 -2.763340e-06 -1.000000e+00
    outer loop
      vertex -2.416387e+01 4.274762e+00 6.484985e-04
      vertex -1.776709e+01 4.579013e+00 6.389618e-04
      vertex -2.000057e+01 2.117505e+00 6.484985e-04
    endloop
  endfacet
  facet normal -5.000004e-01 8.660251e-01 1.060575e-16
    outer loop
      vertex -2.014553e+01 9.437494e+00 1.000064e+01
      vertex -2.166387e+01 8.560879e+00 1.000064e+01
      vertex -2.166387e+01 8.560879e+00 1.583734e+01
    endloop
  endfacet
  facet normal 1.000000e+00 0.000000e+00 0.000000e+00
    outer loop
      vertex 8.836132e+00 5.674129e+00 1.597847e+01
      vertex 8.836132e+00 6.997856e+00 1.395092e+01
      vertex 8.836132e+00 6.956214e+00 2.000064e+01
    endloop
  endfacet
  facet normal 0.000000e+00 1.000000e+00 1.224647e-16
    outer loop
      vertex -1.909331e+01 1.211751e+01 9.999999e+00
      vertex -2.416387e+01 1.211751e+01 9.678060e+00
      vertex -2.400258e+01 1.211751e+01 9.999999e+00
    endloop
  endfacet
  facet normal 0.000000e+00 1.000000e+00 1.224647e-16
    outer loop
      vertex -1.348851e+00 1.211751e+01 9.999999e+00
      vertex 8.315972e+00 1.211751e+01 9.999999e+00
      vertex 2.498405e+00 1.211751e+01 4.171829e+00
    endloop
  endfacet
  facet normal 5.000009e-01 8.660249e-01 1.060575e-16
    outer loop
      vertex 7.732432e+00 9.198102e+00 2.000064e+01
      vertex 8.836132e+00 8.560879e+00 2.000129e+01
      vertex 8.836132e+00 8.560879e+00 1.573149e+01
    endloop
  endfacet
  facet normal -1.000000e+00 -0.000000e+00 0.000000e+00
    outer loop
      vertex -2.416387e+01 1.069708e+01 2.353849e+00
      vertex -2.416387e+01 8.420212e+00 6.346649e+00
      vertex -2.416387e+01 1.211751e+01 4.728469e+00
    endloop
  endfacet
  facet normal 0.000000e+00 1.000000e+00 1.224647e-16
    outer loop
      vertex -2.416387e+01 1.211751e+01 9.678060e+00
      vertex -1.909331e+01 1.211751e+01 9.999999e+00
      vertex -1.944219e+01 1.211751e+01 5.210269e+00
    endloop
  endfacet
  facet normal 1.000000e+00 1.320350e-04 -1.491009e-04
    outer loop
      vertex 1.083677e+01 7.617504e+00 5.000639e+00
      vertex 1.083613e+01 1.026109e+01 3.049250e+00
      vertex 1.083613e+01 1.211751e+01 4.693179e+00
    endloop
  endfacet
  facet normal -1.000000e+00 -0.000000e+00 0.000000e+00
    outer loop
      vertex -2.416387e+01 1.023746e+01 6.484985e-04
      vertex -2.416387e+01 7.617504e+00 2.490570e+00
      vertex -2.416387e+01 1.069708e+01 2.353849e+00
    endloop
  endfacet
  facet normal 0.000000e+00 -1.381388e-04 1.000000e+00
    outer loop
      vertex -9.753586e+00 2.117505e+00 9.999999e+00
      vertex 1.710629e+00 2.117505e+00 9.999999e+00
      vertex 3.952146e-01 6.750525e+00 1.000064e+01
    endloop
  endfacet
  facet normal -4.999999e-01 8.660254e-01 2.412706e-07
    outer loop
      vertex 5.435493e+00 9.484270e+00 2.000064e+01
      vertex 6.336132e+00 1.000426e+01 1.508633e+01
      vertex 5.201552e+00 9.349206e+00 1.536323e+01
    endloop
  endfacet
  facet normal -5.000023e-01 -8.660241e-01 -1.060574e-16
    outer loop
      vertex 4.945703e+00 5.033520e+00 1.703536e+01
      vertex 6.336132e+00 4.230750e+00 1.621032e+01
      vertex 6.336132e+00 4.230750e+00 1.854903e+01
    endloop
  endfacet
  facet normal 1.000000e+00 0.000000e+00 0.000000e+00
    outer loop
      vertex -1.666387e+01 6.724359e+00 2.000064e+01
      vertex -1.666387e+01 5.674131e+00 2.000129e+01
      vertex -1.666387e+01 5.674131e+00 1.533835e+01
    endloop
  endfacet
  facet normal 9.999984e-01 -1.526153e-03 -9.285766e-04
    outer loop
      vertex 1.083677e+01 7.617504e+00 5.000639e+00
      vertex 1.083613e+01 5.982390e+00 6.998790e+00
      vertex 1.083613e+01 7.198150e+00 5.000639e+00
    endloop
  endfacet
  facet normal 1.197877e-07 4.104341e-06 -1.000000e+00
    outer loop
      vertex 2.345707e+00 6.617504e+00 6.484985e-04
      vertex 7.645923e+00 4.026369e+00 6.389618e-04
      vertex -4.101337e+00 4.369220e+00 6.389618e-04
    endloop
  endfacet
  facet normal 0.000000e+00 5.190633e-04 9.999999e-01
    outer loop
      vertex -1.348851e+00 1.211751e+01 9.999999e+00
      vertex 6.125953e+00 1.088452e+01 1.000064e+01
      vertex 8.315972e+00 1.211751e+01 9.999999e+00
    endloop
  endfacet
  facet normal -5.000009e-01 8.660249e-01 1.060575e-16
    outer loop
      vertex 6.336132e+00 1.000426e+01 1.508633e+01
      vertex 5.435493e+00 9.484270e+00 2.000064e+01
      vertex 6.336132e+00 1.000426e+01 2.000129e+01
    endloop
  endfacet
  facet normal -5.000009e-01 -8.660249e-01 5.788161e-05
    outer loop
      vertex -2.014553e+01 4.797515e+00 2.000064e+01
      vertex -1.916452e+01 4.230752e+00 1.438573e+01
      vertex -1.916387e+01 4.230752e+00 2.000064e+01
    endloop
  endfacet
  facet normal 0.000000e+00 -1.224647e-16 1.000000e+00
    outer loop
      vertex -1.666387e+01 6.875568e+00 1.000064e+01
      vertex -9.957937e+00 6.473659e+00 1.000064e+01
      vertex -1.666387e+01 8.560879e+00 1.000064e+01
    endloop
  endfacet
  facet normal -9.423546e-07 -2.907919e-06 -1.000000e+00
    outer loop
      vertex -2.416387e+01 1.023746e+01 6.484985e-04
      vertex -1.267941e+01 9.954640e+00 6.389618e-04
      vertex -1.607919e+01 7.617504e+00 6.484985e-04
    endloop
  endfacet
  facet normal 1.000000e+00 0.000000e+00 0.000000e+00
    outer loop
      vertex 1.083613e+01 5.982390e+00 6.998790e+00
      vertex 1.083613e+01 2.117505e+00 4.168989e+00
      vertex 1.083613e+01 4.022747e+00 6.484985e-04
    endloop
  endfacet
  facet normal -1.000000e+00 0.000000e+00 0.000000e+00
    outer loop
      vertex -2.166387e+01 5.674131e+00 1.000064e+01
      vertex -2.166387e+01 7.226688e+00 1.561070e+01
      vertex -2.166387e+01 7.319118e+00 1.000064e+01
    endloop
  endfacet
  facet normal 5.244302e-01 -8.510224e-01 2.709065e-02
    outer loop
      vertex 6.320003e+00 4.240064e+00 1.532323e+01
      vertex 6.336132e+00 4.230750e+00 1.471839e+01
      vertex 7.570232e+00 4.943262e+00 1.321101e+01
    endloop
  endfacet
  facet normal 9.999992e-01 1.102220e-03 6.706379e-04
    outer loop
      vertex 1.083677e+01 6.617504e+00 5.000639e+00
      vertex 1.083613e+01 7.198150e+00 5.000639e+00
      vertex 1.083613e+01 5.982390e+00 6.998790e+00
    endloop
  endfacet
  facet normal -7.724116e-05 -1.337852e-04 1.000000e+00
    outer loop
      vertex 1.710629e+00 2.117505e+00 9.999999e+00
      vertex 4.749772e+00 5.146637e+00 1.000064e+01
      vertex 3.836132e+00 5.674129e+00 1.000064e+01
    endloop
  endfacet
  facet normal 1.000000e+00 0.000000e+00 0.000000e+00
    outer loop
      vertex -1.666387e+01 6.875568e+00 1.000064e+01
      vertex -1.666387e+01 5.674131e+00 1.533835e+01
      vertex -1.666387e+01 5.674131e+00 1.000064e+01
    endloop
  endfacet
  facet normal 1.000000e+00 -1.461886e-04 -1.882581e-04
    outer loop
      vertex 1.083613e+01 5.982390e+00 6.998790e+00
      vertex 1.083676e+01 6.426980e+00 1.000002e+01
      vertex 1.083613e+01 2.117505e+00 9.999999e+00
    endloop
  endfacet
  facet normal -4.880225e-04 1.671798e-04 9.999999e-01
    outer loop
      vertex 8.836132e+00 8.560879e+00 2.000129e+01
      vertex 7.732432e+00 9.198102e+00 2.000064e+01
      vertex 7.098653e+00 7.344083e+00 2.000064e+01
    endloop
  endfacet
  facet normal 5.000008e-01 -8.660250e-01 -1.060575e-16
    outer loop
      vertex -1.785357e+01 4.987256e+00 1.585230e+01
      vertex -1.666387e+01 5.674131e+00 1.533835e+01
      vertex -1.666387e+01 5.674131e+00 2.000129e+01
    endloop
  endfacet
  facet normal 6.825990e-05 -9.975831e-05 -1.000000e+00
    outer loop
      vertex -1.776709e+01 4.579013e+00 6.389618e-04
      vertex -2.416387e+01 6.617504e+00 0.000000e+00
      vertex -1.464144e+01 6.617504e+00 6.484985e-04
    endloop
  endfacet
  facet normal 5.000014e-01 -8.660246e-01 -1.060574e-16
    outer loop
      vertex 8.836132e+00 5.674129e+00 2.000129e+01
      vertex 7.430022e+00 4.862308e+00 1.802610e+01
      vertex 8.836132e+00 5.674129e+00 1.597847e+01
    endloop
  endfacet
  facet normal -4.092893e-04 -3.989707e-05 9.999999e-01
    outer loop
      vertex 7.098653e+00 7.344083e+00 2.000064e+01
      vertex 7.343822e+00 4.812542e+00 2.000064e+01
      vertex 8.836132e+00 5.674129e+00 2.000129e+01
    endloop
  endfacet
  facet normal 2.576052e-04 6.150856e-05 9.999999e-01
    outer loop
      vertex 8.315972e+00 1.211751e+01 9.999999e+00
      vertex 6.125953e+00 1.088452e+01 1.000064e+01
      vertex 6.336132e+00 1.000426e+01 1.000064e+01
    endloop
  endfacet
  facet normal 1.000000e+00 0.000000e+00 0.000000e+00
    outer loop
      vertex 1.083613e+01 5.982390e+00 6.998790e+00
      vertex 1.083613e+01 2.117505e+00 9.999999e+00
      vertex 1.083613e+01 2.117505e+00 4.168989e+00
    endloop
  endfacet
  facet normal -5.000010e-01 -8.660249e-01 -1.011038e-06
    outer loop
      vertex 3.836132e+00 5.674129e+00 1.502081e+01
      vertex 5.365132e+00 4.791361e+00 1.261185e+01
      vertex 6.336132e+00 4.230750e+00 1.471839e+01
    endloop
  endfacet
  facet normal -5.641138e-05 9.770714e-05 1.000000e+00
    outer loop
      vertex -1.348851e+00 1.211751e+01 9.999999e+00
      vertex 5.435493e+00 9.484270e+00 1.000064e+01
      vertex 6.336132e+00 1.000426e+01 1.000064e+01
    endloop
  endfacet
  facet normal 0.000000e+00 -1.000000e+00 -1.224647e-16
    outer loop
      vertex -2.000057e+01 2.117505e+00 6.484985e-04
      vertex -2.416387e+01 2.117505e+00 4.421009e+00
      vertex -2.416387e+01 2.117505e+00 0.000000e+00
    endloop
  endfacet
  facet normal -1.000000e+00 0.000000e+00 -0.000000e+00
    outer loop
      vertex 3.836132e+00 6.875568e+00 2.000064e+01
      vertex 3.836132e+00 7.327524e+00 1.578018e+01
      vertex 3.836132e+00 5.674129e+00 1.502081e+01
    endloop
  endfacet
  facet normal -5.000008e-01 -8.660249e-01 -1.060575e-16
    outer loop
      vertex -2.014553e+01 4.797515e+00 1.000064e+01
      vertex -2.166387e+01 5.674131e+00 1.568109e+01
      vertex -2.166387e+01 5.674131e+00 1.000064e+01
    endloop
  endfacet
  facet normal -6.277328e-04 -3.512954e-04 9.999998e-01
    outer loop
      vertex -1.818221e+01 9.437494e+00 2.000064e+01
      vertex -1.666387e+01 6.724359e+00 2.000064e+01
      vertex -1.666387e+01 8.560879e+00 2.000129e+01
    endloop
  endfacet
  facet normal 1.000000e+00 0.000000e+00 0.000000e+00
    outer loop
      vertex 8.836132e+00 5.674129e+00 1.597847e+01
      vertex 8.836132e+00 6.956214e+00 2.000064e+01
      vertex 8.836132e+00 5.674129e+00 2.000129e+01
    endloop
  endfacet
  facet normal -2.084096e-04 1.936961e-04 9.999999e-01
    outer loop
      vertex -2.416387e+01 6.288371e+00 9.999999e+00
      vertex -2.247316e+01 4.803366e+00 1.000064e+01
      vertex -2.166387e+01 5.674131e+00 1.000064e+01
    endloop
  endfacet
  facet normal 2.499050e-04 2.664519e-05 9.999999e-01
    outer loop
      vertex 6.336132e+00 4.230750e+00 1.000064e+01
      vertex 6.480033e+00 2.881113e+00 1.000064e+01
      vertex 9.122422e+00 2.117505e+00 9.999999e+00
    endloop
  endfacet
  facet normal 1.127127e-04 5.032126e-04 9.999999e-01
    outer loop
      vertex 8.836132e+00 5.674129e+00 2.000129e+01
      vertex 8.836132e+00 6.956214e+00 2.000064e+01
      vertex 7.098653e+00 7.344083e+00 2.000064e+01
    endloop
  endfacet
  facet normal 1.000000e+00 0.000000e+00 0.000000e+00
    outer loop
      vertex -1.666387e+01 6.724359e+00 2.000064e+01
      vertex -1.666387e+01 7.187557e+00 1.410154e+01
      vertex -1.666387e+01 8.560879e+00 1.514681e+01
    endloop
  endfacet
  facet normal 5.027211e-04 -3.088973e-04 9.999998e-01
    outer loop
      vertex -1.666387e+01 5.674131e+00 1.000064e+01
      vertex -1.814699e+01 3.260398e+00 1.000064e+01
      vertex -1.757617e+01 2.117505e+00 9.999999e+00
    endloop
  endfacet
  facet normal 2.403518e-07 1.345070e-07 1.000000e+00
    outer loop
      vertex -1.818221e+01 9.437494e+00 2.000064e+01
      vertex -1.974845e+01 7.362127e+00 2.000064e+01
      vertex -1.666387e+01 6.724359e+00 2.000064e+01
    endloop
  endfacet
  facet normal -1.354795e-07 -2.346568e-07 1.000000e+00
    outer loop
      vertex -1.974845e+01 7.362127e+00 2.000064e+01
      vertex -2.166387e+01 5.674131e+00 2.000064e+01
      vertex -2.014553e+01 4.797515e+00 2.000064e+01
    endloop
  endfacet
  facet normal -1.000000e+00 0.000000e+00 -0.000000e+00
    outer loop
      vertex 3.836132e+00 8.560879e+00 1.492756e+01
      vertex 3.836132e+00 6.915892e+00 1.000064e+01
      vertex 3.836132e+00 7.327524e+00 1.578018e+01
    endloop
  endfacet
  facet normal -5.000009e-01 8.660249e-01 1.060575e-16
    outer loop
      vertex 6.336132e+00 1.000426e+01 1.508633e+01
      vertex 6.336132e+00 1.000426e+01 1.000064e+01
      vertex 5.435493e+00 9.484270e+00 1.000064e+01
    endloop
  endfacet
  facet normal 0.000000e+00 -5.238718e-06 -1.000000e+00
    outer loop
      vertex 7.645923e+00 4.026369e+00 6.389618e-04
      vertex 1.083613e+01 2.117505e+00 6.484985e-04
      vertex 3.762042e+00 2.117505e+00 6.484985e-04
    endloop
  endfacet
  facet normal -1.000000e+00 -0.000000e+00 0.000000e+00
    outer loop
      vertex -2.166387e+01 5.674131e+00 1.000064e+01
      vertex -2.166387e+01 5.674131e+00 1.568109e+01
      vertex -2.166387e+01 7.226688e+00 1.561070e+01
    endloop
  endfacet
  facet normal 0.000000e+00 -8.381261e-04 9.999996e-01
    outer loop
      vertex 6.480033e+00 2.881113e+00 1.000064e+01
      vertex 1.710629e+00 2.117505e+00 9.999999e+00
      vertex 9.122422e+00 2.117505e+00 9.999999e+00
    endloop
  endfacet
  facet normal -5.002499e-01 8.658810e-01 1.060398e-16
    outer loop
      vertex -2.014553e+01 9.437494e+00 1.000064e+01
      vertex -1.916452e+01 1.000426e+01 1.418915e+01
      vertex -1.916452e+01 1.000426e+01 1.000064e+01
    endloop
  endfacet
  facet normal 0.000000e+00 1.000000e+00 1.224647e-16
    outer loop
      vertex 1.083613e+01 1.211751e+01 4.693179e+00
      vertex 5.687443e+00 1.211751e+01 6.484985e-04
      vertex 2.498405e+00 1.211751e+01 4.171829e+00
    endloop
  endfacet
  facet normal -5.000019e-01 -8.660243e-01 -1.060574e-16
    outer loop
      vertex -2.041517e+01 4.953190e+00 1.588329e+01
      vertex -2.166387e+01 5.674131e+00 2.000064e+01
      vertex -2.166387e+01 5.674131e+00 1.568109e+01
    endloop
  endfacet
  facet normal 0.000000e+00 -1.224647e-16 1.000000e+00
    outer loop
      vertex -1.916387e+01 1.102879e+01 1.000064e+01
      vertex -2.014553e+01 9.437494e+00 1.000064e+01
      vertex -1.916452e+01 1.000426e+01 1.000064e+01
    endloop
  endfacet
  facet normal 0.000000e+00 -1.000000e+00 -1.224647e-16
    outer loop
      vertex -9.738466e+00 2.117505e+00 6.484985e-04
      vertex 3.762042e+00 2.117505e+00 6.484985e-04
      vertex 1.726913e+00 2.117505e+00 4.585509e+00
    endloop
  endfacet
  facet normal 0.000000e+00 4.146542e-06 -1.000000e+00
    outer loop
      vertex -6.850361e+00 1.211751e+01 6.484985e-04
      vertex 5.687443e+00 1.211751e+01 6.484985e-04
      vertex 4.952453e+00 9.705857e+00 6.389618e-04
    endloop
  endfacet
  facet normal 3.860610e-04 -1.316179e-04 9.999999e-01
    outer loop
      vertex 6.336132e+00 1.000426e+01 2.000129e+01
      vertex 7.098653e+00 7.344083e+00 2.000064e+01
      vertex 7.732432e+00 9.198102e+00 2.000064e+01
    endloop
  endfacet
  facet normal -1.319364e-04 -1.406723e-05 1.000000e+00
    outer loop
      vertex 1.710629e+00 2.117505e+00 9.999999e+00
      vertex 6.480033e+00 2.881113e+00 1.000064e+01
      vertex 6.336132e+00 4.230750e+00 1.000064e+01
    endloop
  endfacet
  facet normal 3.790821e-04 -1.838387e-04 9.999999e-01
    outer loop
      vertex 8.836132e+00 5.674129e+00 1.000064e+01
      vertex 1.083676e+01 6.426980e+00 1.000002e+01
      vertex 9.223232e+00 6.472343e+00 1.000064e+01
    endloop
  endfacet
  facet normal 4.999996e-01 -8.660256e-01 -1.060576e-16
    outer loop
      vertex 8.836132e+00 5.674129e+00 1.000064e+01
      vertex 8.836132e+00 5.674129e+00 1.597847e+01
      vertex 7.570232e+00 4.943262e+00 1.321101e+01
    endloop
  endfacet
  facet normal 4.999999e-01 8.660254e-01 1.060575e-16
    outer loop
      vertex 7.732432e+00 9.198102e+00 1.000064e+01
      vertex 6.336132e+00 1.000426e+01 1.000064e+01
      vertex 6.336132e+00 1.000426e+01 1.508633e+01
    endloop
  endfacet
  facet normal -5.000019e-01 -8.660243e-01 -3.696589e-07
    outer loop
      vertex -2.041517e+01 4.953190e+00 1.588329e+01
      vertex -2.166387e+01 5.674131e+00 1.568109e+01
      vertex -2.014553e+01 4.797515e+00 1.000064e+01
    endloop
  endfacet
  facet normal -1.000000e+00 0.000000e+00 -0.000000e+00
    outer loop
      vertex -2.416387e+01 1.023746e+01 6.484985e-04
      vertex -2.416387e+01 7.617504e+00 6.484985e-04
      vertex -2.416387e+01 7.617504e+00 2.490570e+00
    endloop
  endfacet
  facet normal 0.000000e+00 -1.000000e+00 -1.224647e-16
    outer loop
      vertex 1.166272e+00 7.617504e+00 6.484985e-04
      vertex 1.083621e+01 7.617504e+00 2.833309e+00
      vertex -2.059517e-01 7.617504e+00 5.000639e+00
    endloop
  endfacet
  facet normal 0.000000e+00 1.224647e-16 -1.000000e+00
    outer loop
      vertex 4.396493e+00 6.617504e+00 5.000639e+00
      vertex -6.531559e+00 7.142706e+00 5.000639e+00
      vertex -2.059517e-01 7.617504e+00 5.000639e+00
    endloop
  endfacet
  facet normal 0.000000e+00 1.000000e+00 1.224647e-16
    outer loop
      vertex -1.714522e+01 1.211751e+01 6.484985e-04
      vertex -1.147159e+01 1.211751e+01 4.511410e+00
      vertex -6.850361e+00 1.211751e+01 6.484985e-04
    endloop
  endfacet
  facet normal 0.000000e+00 -1.224647e-16 1.000000e+00
    outer loop
      vertex -2.014553e+01 9.437494e+00 1.000064e+01
      vertex -2.210522e+01 8.467169e+00 1.000064e+01
      vertex -2.166387e+01 8.560879e+00 1.000064e+01
    endloop
  endfacet
  facet normal -1.000000e+00 0.000000e+00 -0.000000e+00
    outer loop
      vertex -2.416387e+01 6.288371e+00 9.999999e+00
      vertex -2.416387e+01 6.617504e+00 5.000639e+00
      vertex -2.416387e+01 4.340601e+00 6.405119e+00
    endloop
  endfacet
  facet normal 0.000000e+00 1.000000e+00 1.224647e-16
    outer loop
      vertex 1.083677e+01 6.617504e+00 5.000639e+00
      vertex 1.083613e+01 6.617504e+00 2.157900e+00
      vertex 5.222512e+00 6.617504e+00 2.447790e+00
    endloop
  endfacet
  facet normal 5.000008e-01 -8.660250e-01 3.251255e-08
    outer loop
      vertex -1.785357e+01 4.987256e+00 1.585230e+01
      vertex -1.818221e+01 4.797515e+00 1.000064e+01
      vertex -1.666387e+01 5.674131e+00 1.533835e+01
    endloop
  endfacet
  facet normal -1.518285e-04 -1.518285e-04 1.000000e+00
    outer loop
      vertex -2.247316e+01 4.803366e+00 1.000064e+01
      vertex -2.416387e+01 2.278795e+00 9.999999e+00
      vertex -2.400258e+01 2.117505e+00 9.999999e+00
    endloop
  endfacet
  facet normal -3.108833e-04 -1.224647e-16 9.999999e-01
    outer loop
      vertex -2.416387e+01 6.288371e+00 9.999999e+00
      vertex -2.210522e+01 8.467169e+00 1.000064e+01
      vertex -2.416387e+01 1.195621e+01 9.999999e+00
    endloop
  endfacet
endsolid Default
